<?xml version="1.0" encoding="UTF-8"?>
<!DOCTYPE svg PUBLIC "-//W3C//DTD SVG 1.1//EN" "http://www.w3.org/Graphics/SVG/1.1/DTD/svg11.dtd">
<!-- Creator: CorelDRAW 2018 (64 Bit Versão de avaliação) -->
<svg xmlns="http://www.w3.org/2000/svg" xml:space="preserve" width="593px" height="645px" version="1.1" style="shape-rendering:geometricPrecision; text-rendering:geometricPrecision; image-rendering:optimizeQuality; fill-rule:evenodd; clip-rule:evenodd"
viewBox="0 0 133.8 145.59"
 xmlns:xlink="http://www.w3.org/1999/xlink">
 <defs>
  <style type="text/css">
   <![CDATA[
    .fil8 {fill:#A3060C}
    .fil7 {fill:#F03940}
    .fil10 {fill:#FFE1B8}
    .fil6 {fill:#FFE1B8}
    .fil1 {fill:#323F48;fill-rule:nonzero}
    .fil5 {fill:#A3060C;fill-rule:nonzero}
    .fil2 {fill:#C7181E;fill-rule:nonzero}
    .fil12 {fill:#EB4011;fill-rule:nonzero}
    .fil4 {fill:#F03940;fill-rule:nonzero}
    .fil3 {fill:#FC9846;fill-rule:nonzero}
    .fil0 {fill:#FFD79E;fill-rule:nonzero}
    .fil9 {fill:#FFE1B8;fill-rule:nonzero}
    .fil11 {fill:black;fill-rule:nonzero;fill-opacity:0.168627}
   ]]>
  </style>
 </defs>
 <g id="Camada_x0020_1">
  <metadata id="CorelCorpID_0Corel-Layer"/>
  <g id="_2559125202128">
   <path class="fil0" d="M38.7 130.79l0 -12.42c-1.15,0.3 -2.24,0.83 -3.19,1.6 -1.51,1.22 -3.43,1.96 -5.52,1.96 -4.85,0 -8.78,-3.93 -8.78,-8.78 0,-4.85 3.93,-8.78 8.78,-8.78 2.09,0 4.01,0.73 5.52,1.95 0.95,0.77 2.04,1.31 3.19,1.6l0 -19.49 -9.87 0c13.26,-11.72 20.19,-30.3 17.64,-47.83 -1.49,-10.24 -5.84,-21.14 -1.27,-30.42 3.19,-6.5 10.5,-10.18 17.77,-10.18 2.31,0 4.61,0.37 6.78,1.14 8.99,3.21 15.23,12.12 16.72,21.55 1.59,10.09 -1.33,21.59 4.73,29.81 7.41,10.08 23.3,8.59 33.23,16.21 6.47,4.96 9.61,13.48 9.35,21.64 -0.19,5.96 -2.01,11.73 -4.71,17.08 -1.15,-3.58 -3.54,-6.76 -6.59,-8.99 -1.53,-1.11 -3.26,-2.04 -4.41,-3.54 -1,-1.32 -1.47,-2.95 -2.17,-4.45 -0.7,-1.51 -1.78,-2.99 -3.37,-3.44 -0.34,-0.1 -0.68,-0.14 -1.02,-0.14 -1.39,0 -2.75,0.73 -4,1.56l0 0 -19.5 0c0.3,1.14 0.83,2.23 1.6,3.18 1.23,1.51 1.96,3.43 1.96,5.52 0,4.85 -3.93,8.78 -8.78,8.78 -4.85,0 -8.78,-3.93 -8.78,-8.78 0,-2.09 0.73,-4.01 1.95,-5.52 0.77,-0.95 1.31,-2.04 1.61,-3.18l-19.5 0 0 19.44c-1.08,-0.31 -2.1,-0.82 -2.99,-1.55 -1.51,-1.22 -3.43,-1.95 -5.52,-1.95 -4.85,0 -8.78,3.93 -8.78,8.78 0,4.85 3.93,8.78 8.78,8.78 2.09,0 4.01,-0.74 5.52,-1.96 0.89,-0.72 1.91,-1.24 2.99,-1.55l0 6.88c-3.84,1.46 -7.58,3.11 -11.06,4.05 -2.72,0.73 -5.5,1.19 -8.31,1.44zm73.85 -74.13c-4.59,0 -9.54,-1.22 -12.73,-2.96 -4.93,-2.68 -7.93,-10.36 -8.15,-15.6 -0.24,-5.88 3.29,-12.15 8.98,-13.61 0.9,-0.23 1.81,-0.33 2.72,-0.33 3.48,0 6.97,1.54 9.86,3.6 4.11,2.94 7.45,6.95 9.58,11.53 1.23,2.64 2.07,5.55 1.82,8.46 -0.26,2.9 -1.75,5.8 -4.29,7.24 -2.08,1.17 -4.86,1.67 -7.79,1.67zm-5.04 69.17l0 -8.01c0.25,0.37 0.51,0.74 0.81,1.08 1.86,2.18 4.6,3.38 7.34,4.22 0.05,0.01 0.1,0.03 0.15,0.04 -0.77,0.4 -1.56,0.75 -2.36,1.06l0.07 -0.17c-0.47,0 -3.25,0.6 -6.01,1.78z"/>
   <path class="fil1" d="M61.59 131.35l0 1.08c0,0 5.07,2.03 5.07,2.34 0.01,0.31 -7.92,0 -7.92,0l-0.41 -3.42 3.26 0z"/>
   <path class="fil2" d="M88.01 88.43c0.3,1.14 0.83,2.23 1.6,3.18 1.23,1.51 1.96,3.43 1.96,5.52 0,4.85 -3.93,8.78 -8.78,8.78 -4.85,0 -8.78,-3.93 -8.78,-8.78 0,-2.09 0.73,-4.01 1.95,-5.52 0.77,-0.95 1.31,-2.04 1.61,-3.18l-19.5 0 0 19.44c-1.08,-0.31 -2.1,-0.82 -2.99,-1.55 -1.51,-1.22 -3.43,-1.95 -5.52,-1.95 -4.85,0 -8.78,3.93 -8.78,8.78 0,4.85 3.93,8.78 8.78,8.78 2.09,0 4.01,-0.74 5.52,-1.96 0.89,-0.72 1.91,-1.24 2.99,-1.55l0 19.45 41.04 0c4.64,0 8.4,-3.76 8.4,-8.4l0 -41.04 -19.5 0z"/>
   <path class="fil3" d="M107.56 47.42c0,-4.64 -3.76,-8.4 -8.4,-8.4l-41.04 0 0 19.5c1.15,-0.3 2.23,-0.83 3.18,-1.6 1.51,-1.23 3.43,-1.96 5.53,-1.96 4.85,0 8.78,3.93 8.78,8.78l0 0c0,4.85 -3.93,8.78 -8.78,8.78 -2.1,0 -4.02,-0.73 -5.53,-1.95 -0.95,-0.77 -2.03,-1.31 -3.18,-1.61l0 19.5 19.07 0c-0.3,1 -0.79,1.95 -1.45,2.77 -1.31,1.62 -2.03,3.66 -2.03,5.74 0,5.04 4.09,9.14 9.13,9.14 5.04,0 9.13,-4.1 9.13,-9.14 0,-2.08 -0.72,-4.12 -2.03,-5.74 -0.67,-0.82 -1.15,-1.77 -1.45,-2.77l19.07 0 0 -41.04z"/>
   <path class="fil4" d="M41.59 68.64c0.59,2.01 0.43,4.06 -0.32,5.85 -0.47,1.13 -0.67,2.32 -0.64,3.51l18.71 -5.49 -5.47 -18.66c1.11,-0.01 2.24,0.2 3.3,0.65 1.79,0.74 3.84,0.91 5.85,0.32 4.65,-1.37 7.32,-6.25 5.95,-10.9 -1.36,-4.65 -6.24,-7.32 -10.9,-5.95 -2,0.59 -3.64,1.83 -4.74,3.43 -0.66,0.95 -1.49,1.73 -2.43,2.33l-5.48 -18.66 -39.38 11.55c-4.45,1.31 -7,5.98 -5.7,10.43l11.56 39.38 18.71 -5.49c-0.61,-1.02 -1.43,-1.91 -2.44,-2.6 -1.59,-1.11 -2.84,-2.75 -3.43,-4.75 -1.36,-4.66 1.3,-9.53 5.96,-10.9 4.65,-1.36 9.53,1.3 10.89,5.95z"/>
   <path class="fil4" d="M75.72 141.84c0,0 -2.57,-8.43 8.19,-11.35 0.08,11.16 -8.19,11.35 -8.19,11.35z"/>
   <path class="fil5" d="M75.72 141.84l0 0 0 0 0 -0.01 0 0 0 0 0 0 0 0 0 0 0 0 0 0 0 0 0 0 0 0 0 0 0 0 0 0 0 0 0 -0.01 0 0 -0.01 0 0 0 0 0 0 0 0 -0.01 0 0 0 0 0 0 0 0 0 0 0 -0.01 0 0 0 0 0 0 0 -0.01 0 0 0 0 0 0 -0.01 -0.01 0 0 0 0 0 0 0 0 0 -0.01 0 0 0 0 0 -0.01 0 0 0 0 0 -0.01 0 0 -0.01 0 0 -0.01 0 -0.01 0 0 0 0 0 -0.01 0 0 0 -0.01 0 0 -0.01 0 0 -0.01 0 0c4.79,-4.76 8.23,-10.67 8.23,-10.67 0,0.16 -0.01,0.31 -0.01,0.46l-0.01 0.03c0,0.16 -0.01,0.31 -0.02,0.46l0 0.01c-0.01,0.15 -0.02,0.3 -0.04,0.45l0 0.03c-0.01,0.15 -0.03,0.29 -0.04,0.43l-0.01 0.01c-0.01,0.15 -0.03,0.29 -0.05,0.43l0 0.01c-0.02,0.14 -0.05,0.28 -0.07,0.41l0 0.01 0 0.01c-0.03,0.13 -0.05,0.26 -0.08,0.39l0 0.03c-0.03,0.12 -0.05,0.24 -0.08,0.37l0 0.01 -0.01 0 0 0c-0.03,0.13 -0.06,0.25 -0.09,0.37l0 0.02c-0.04,0.12 -0.07,0.24 -0.1,0.35l0 0.01 0 0c-0.04,0.11 -0.08,0.23 -0.11,0.34l-0.01 0.02c-0.04,0.11 -0.07,0.22 -0.11,0.33l-0.01 0 0 0.01c-0.04,0.1 -0.08,0.21 -0.12,0.31l-0.01 0.02c-0.04,0.1 -0.08,0.21 -0.13,0.3l0 0.01c-0.04,0.1 -0.09,0.19 -0.13,0.29l-0.01 0.02c-0.05,0.09 -0.09,0.19 -0.14,0.28l-0.01 0.01c-0.04,0.09 -0.09,0.18 -0.14,0.26l-0.01 0.02c-0.05,0.09 -0.1,0.17 -0.15,0.25l-0.01 0.02c-0.05,0.08 -0.1,0.16 -0.15,0.24l-0.03 0.04c-0.04,0.06 -0.08,0.12 -0.12,0.18l-0.04 0.06c-0.05,0.06 -0.09,0.13 -0.14,0.19l-0.02 0.02c-0.05,0.07 -0.1,0.13 -0.15,0.19l-0.05 0.07c-0.04,0.04 -0.07,0.09 -0.11,0.13l-0.05 0.06c-0.05,0.06 -0.1,0.11 -0.15,0.17l-0.06 0.06c-0.03,0.04 -0.07,0.08 -0.11,0.11l-0.05 0.06c-0.06,0.05 -0.11,0.11 -0.16,0.16l-0.04 0.04c-0.04,0.03 -0.08,0.07 -0.13,0.11l-0.06 0.06c-0.04,0.03 -0.08,0.07 -0.12,0.1l-0.06 0.05c-0.05,0.04 -0.1,0.08 -0.14,0.12l-0.07 0.05c-0.04,0.03 -0.07,0.06 -0.11,0.08l-0.06 0.05c-0.05,0.04 -0.1,0.08 -0.16,0.11l-0.06 0.05c-0.03,0.02 -0.07,0.05 -0.11,0.07l-0.06 0.05c-0.06,0.03 -0.11,0.06 -0.16,0.09l-0.05 0.04c-0.04,0.02 -0.08,0.04 -0.12,0.07l-0.07 0.04 -0.1 0.06 -0.1 0.05 -0.11 0.06 -0.07 0.04 -0.1 0.05 -0.07 0.03c-0.05,0.02 -0.1,0.05 -0.14,0.07l-0.07 0.03 -0.09 0.04 -0.07 0.03c-0.05,0.02 -0.09,0.03 -0.13,0.05l-0.09 0.04 -0.07 0.03 -0.08 0.02 -0.09 0.04 -0.09 0.03 -0.1 0.03 -0.07 0.03 -0.07 0.02 -0.07 0.02 0 0 -0.11 0.03 -0.01 0.01 -0.07 0.02 -0.06 0.01 -0.06 0.02 -0.12 0.03 -0.05 0.01 -0.08 0.02 -0.04 0.01 -0.11 0.02 -0.01 0.01 0 0 0 0 -0.1 0.02 -0.05 0.01 -0.08 0.01 -0.02 0.01 -0.01 0 -0.08 0.01 -0.01 0 -0.04 0.01 -0.05 0.01 -0.04 0 -0.01 0 -0.07 0.01 -0.01 0 -0.01 0.01 -0.07 0 -0.01 0.01 -0.02 0 -0.06 0.01 0 0 -0.05 0 -0.02 0 -0.02 0 -0.04 0.01 0 0 -0.04 0 -0.01 0 -0.02 0 -0.02 0 0 0 -0.02 0 -0.01 0 -0.01 0.01 0 0 -0.01 0 0 0z"/>
   <path class="fil4" d="M72.01 141.84c0,0 -7.87,-5.04 -3.09,-15.87 6.53,8.93 3.09,15.87 3.09,15.87z"/>
   <path class="fil5" d="M45.57 104.37c2.09,0 4.01,0.73 5.52,1.95 0.95,0.77 2.04,1.31 3.19,1.6l0 -19.49 -19.45 0c0.31,-1.08 0.83,-2.1 1.55,-2.99 1.22,-1.51 1.96,-3.43 1.96,-5.52 0,-4.85 -3.93,-8.78 -8.78,-8.78 -4.85,0 -8.78,3.93 -8.78,8.78 0,2.09 0.73,4.01 1.95,5.52 0.73,0.89 1.24,1.91 1.55,2.99l-19.44 0 0 41.04c0,4.64 3.76,8.4 8.4,8.4l41.04 0 0 -19.5c-1.15,0.3 -2.24,0.83 -3.19,1.6 -1.51,1.22 -3.43,1.96 -5.52,1.96 -4.85,0 -8.78,-3.93 -8.78,-8.78 0,-4.85 3.93,-8.78 8.78,-8.78z"/>
   <path class="fil4" d="M15.84 143.15c0,0 -7.73,-4.04 -0.62,-14.33 5.64,7.49 0.62,14.33 0.62,14.33z"/>
   <path class="fil5" d="M15.58 142.99c-0.12,-0.08 -0.27,-0.18 -0.44,-0.31l0 0c-0.04,-0.03 -0.07,-0.06 -0.11,-0.09l-0.02 -0.01 -0.09 -0.08 -0.03 -0.02 -0.05 -0.05 -0.01 0 -0.06 -0.06 0 0 -0.05 -0.04 -0.07 -0.06 -0.05 -0.04 -0.06 -0.06 -0.05 -0.05 -0.07 -0.07 -0.05 -0.05 -0.01 -0.01 -0.07 -0.07 -0.05 -0.05 -0.07 -0.08 -0.06 -0.06 -0.06 -0.07 -0.06 -0.06c-0.02,-0.03 -0.05,-0.06 -0.07,-0.09l-0.04 -0.05c-0.03,-0.04 -0.06,-0.07 -0.09,-0.11l-0.05 -0.06 -0.07 -0.09 -0.05 -0.07 -0.06 -0.09 -0.04 -0.06c-0.03,-0.04 -0.06,-0.08 -0.09,-0.13l-0.04 -0.05c-0.03,-0.04 -0.05,-0.09 -0.08,-0.14l-0.04 -0.05c-0.02,-0.04 -0.05,-0.08 -0.07,-0.13l-0.04 -0.06c-0.02,-0.04 -0.05,-0.08 -0.07,-0.12l-0.03 -0.06c-0.03,-0.05 -0.05,-0.11 -0.08,-0.16l-0.03 -0.05c-0.02,-0.06 -0.05,-0.11 -0.07,-0.16l-0.03 -0.07c-0.02,-0.04 -0.05,-0.09 -0.07,-0.14l-0.03 -0.08c-0.02,-0.05 -0.04,-0.09 -0.06,-0.14l-0.02 -0.06c-0.02,-0.06 -0.04,-0.12 -0.06,-0.18l-0.03 -0.07c-0.02,-0.06 -0.03,-0.12 -0.05,-0.18l-0.02 -0.07c-0.02,-0.06 -0.04,-0.12 -0.05,-0.19l-0.02 -0.05c-0.01,-0.06 -0.03,-0.12 -0.04,-0.19l-0.02 -0.05c-0.01,-0.07 -0.02,-0.15 -0.04,-0.22l-0.01 -0.07c-0.01,-0.07 -0.03,-0.14 -0.04,-0.21l0 -0.06c-0.01,-0.07 -0.02,-0.15 -0.03,-0.22l-0.01 -0.06c0,-0.07 -0.01,-0.14 -0.02,-0.21l0 -0.07c-0.01,-0.08 -0.01,-0.15 -0.01,-0.23l-0.01 -0.07c0,-0.09 0,-0.18 0,-0.26l0 -0.03c0,-0.09 0,-0.19 0.01,-0.28l0 -0.03c0,-0.1 0.01,-0.2 0.02,-0.3l0 -0.02c0.01,-0.1 0.02,-0.2 0.03,-0.31l0 -0.03c0.01,-0.1 0.03,-0.2 0.04,-0.3l0.01 -0.04c0.01,-0.1 0.03,-0.2 0.05,-0.31l0.01 -0.03c0.02,-0.11 0.04,-0.22 0.06,-0.33l0.01 -0.02c0.02,-0.11 0.05,-0.23 0.08,-0.35l0 -0.01c0.03,-0.12 0.07,-0.23 0.1,-0.35l0.01 -0.04c0.03,-0.11 0.07,-0.22 0.11,-0.34l0.01 -0.03c0.04,-0.12 0.08,-0.24 0.12,-0.36l0.01 -0.02c0.04,-0.13 0.09,-0.26 0.14,-0.38l0.01 -0.03c0.05,-0.12 0.1,-0.25 0.16,-0.38l0.01 -0.02c0.05,-0.13 0.11,-0.26 0.17,-0.39l0.01 -0.02c0.06,-0.14 0.13,-0.27 0.2,-0.41l0 -0.01c0.07,-0.14 0.14,-0.28 0.22,-0.43l0 0 0 0 0 -0.01c0.08,-0.14 0.16,-0.28 0.24,-0.42l0.01 -0.03c0.08,-0.14 0.16,-0.28 0.24,-0.42l0.02 -0.03c0.09,-0.14 0.17,-0.28 0.27,-0.43l0.01 -0.02c0.09,-0.15 0.19,-0.3 0.28,-0.45l0.02 -0.02c0.06,-0.1 0.13,-0.2 0.2,-0.29 -0.31,2.79 -0.79,8.57 0.13,12.72 0.1,0.43 0.21,0.85 0.35,1.27z"/>
   <path class="fil4" d="M18.98 143.81c0,0 8.8,0.43 9.01,-10.72 -10.85,2.65 -9.01,10.72 -9.01,10.72z"/>
   <path class="fil5" d="M19.11 143.81c-0.05,0 -0.09,0 -0.11,0l0 0 0 0 -0.01 0 0 0 0 0 0 0 0 0 0 0 0 0 0 0 0 0 -0.01 0 0 0 0 0 0 0 0 0 0 0 0 0 0 0 0 0 0 0 0 0 0 0 0 0 0 0 0 0 0 -0.01 0 0 0 0 0 0 0 0 0 -0.01 0 0 0 -0.01 0 0 -0.01 0 0 -0.01 0 -0.01 0 -0.01 0 0 0 -0.01 0 -0.01 -0.01 -0.01 0 0 0 -0.01 0 -0.01 0 -0.01 0 -0.02 -0.01 -0.01 0 0 0 0 0 -0.04 -0.01 -0.02 0 -0.04 -0.01 -0.01 0 -0.02 0 0 -0.01 -0.06 0 -0.02 -0.01 -0.07 0 -0.01 -0.01 -0.09 0 -0.01 0 -0.02 -0.01 -0.08 0 -0.01 -0.01 -0.1 0 -0.02 -0.01 -0.11 0 -0.01 0 -0.12 0 -0.01 0 -0.01 -0.01 -0.12 0 0 0 -0.01 0 -0.03 0 -0.08 0 -0.06 0 -0.01 0 -0.11 0 -0.06 0.01 -0.08 0 -0.06 0 -0.09 0 -0.06c0.01,-0.05 0.01,-0.09 0.01,-0.14l0.01 -0.06 0.01 -0.09 0 -0.07 0.02 -0.13 0 -0.03 0 -0.01c0.01,-0.05 0.01,-0.1 0.02,-0.15l0.01 -0.06 0.01 -0.12 0.01 -0.06c0.01,-0.06 0.02,-0.11 0.03,-0.17l0 0 0 -0.01c0.02,-0.05 0.03,-0.11 0.04,-0.17l0.01 -0.05c0.01,-0.05 0.02,-0.1 0.03,-0.14l0.01 -0.05c0.02,-0.06 0.03,-0.12 0.05,-0.19l0.01 -0.03c0.01,-0.06 0.03,-0.11 0.04,-0.16l0.02 -0.06c0.01,-0.04 0.03,-0.09 0.04,-0.14l0.02 -0.05c0.02,-0.06 0.04,-0.13 0.06,-0.19l0.02 -0.06c0.02,-0.05 0.04,-0.1 0.05,-0.14l0.02 -0.06zm-0.45 1.67c0.01,-0.06 0.02,-0.11 0.03,-0.17zm0.5 -1.7l0 0c0.03,-0.07 0.06,-0.13 0.09,-0.2l0.02 -0.05c0.03,-0.05 0.05,-0.11 0.08,-0.16l0.02 -0.05c0.04,-0.07 0.07,-0.14 0.11,-0.21l0.01 -0.02c0.03,-0.06 0.06,-0.12 0.1,-0.18l0.03 -0.05c0.03,-0.06 0.06,-0.12 0.1,-0.18l0.02 -0.03c0.04,-0.07 0.09,-0.14 0.13,-0.21l0.02 -0.03c0.04,-0.06 0.08,-0.12 0.12,-0.18l0.04 -0.05c0.04,-0.06 0.09,-0.13 0.14,-0.2l0 0c0.06,-0.07 0.11,-0.14 0.17,-0.21l0.03 -0.04c0.05,-0.06 0.09,-0.11 0.14,-0.17l0.04 -0.04c0.12,-0.14 0.24,-0.28 0.37,-0.41l0.04 -0.04c0.06,-0.06 0.12,-0.12 0.18,-0.18l0.03 -0.03c0.07,-0.06 0.14,-0.13 0.22,-0.2l0.02 -0.02c0.07,-0.06 0.14,-0.12 0.21,-0.17l0.05 -0.05c0.07,-0.06 0.15,-0.12 0.23,-0.18l0 -0.01c0.09,-0.06 0.18,-0.13 0.26,-0.19l0.04 -0.03c0.08,-0.06 0.15,-0.11 0.23,-0.16l0.06 -0.04c0.18,-0.13 0.37,-0.25 0.57,-0.37l0.06 -0.03c0.08,-0.05 0.17,-0.1 0.26,-0.15l0.05 -0.03c0.11,-0.06 0.22,-0.12 0.33,-0.18l0.01 0c0.11,-0.06 0.22,-0.11 0.33,-0.16l0.05 -0.03c0.11,-0.05 0.23,-0.11 0.35,-0.16l0 0c0.13,-0.06 0.25,-0.11 0.38,-0.17l0.05 -0.02c0.11,-0.04 0.23,-0.09 0.35,-0.13l0.05 -0.03c0.27,-0.1 0.54,-0.19 0.82,-0.28l0.08 -0.03c0.12,-0.04 0.25,-0.08 0.38,-0.11l0.05 -0.02c0.15,-0.04 0.29,-0.08 0.44,-0.12l0 0c0,0 -4.89,4.78 -8.34,10.58 0,0 0,0 -0.01,0z"/>
   <path class="fil4" d="M47.76 140.58c0,0 -5.9,0.43 -5.25,-8.84 7.48,3.18 5.25,8.84 5.25,8.84z"/>
   <path class="fil5" d="M117.3 136.83l3.71 1.27 -0.69 4.97 -2.21 0.08c-0.25,-0.28 0.72,-1.27 0.72,-1.27l0 -1.91 -3.17 -0.99 1.64 -2.15z"/>
   <path class="fil5" d="M109 140.43l3.18 2.95 -1.31 2.21 -3.36 0c0,0 0,-1.03 2.06,-1.53l-2.6 -1.72 2.03 -1.91z"/>
   <path class="fil6" d="M80.12 115.66l-3.21 -1.85c0,0 -0.62,0.32 -0.65,0.49 -0.04,0.17 1.18,1.03 1.18,1.03 0,0 -3.43,-0.93 -3.59,-0.77 -0.17,0.15 -0.24,0.49 -0.14,0.59 0.09,0.09 2.18,0.71 2.18,0.71 0,0 -2.54,-0.32 -2.63,-0.13 -0.1,0.18 -0.21,0.51 -0.04,0.64 0.18,0.12 2.3,0.38 2.3,0.38 0,0 -1.81,0.27 -1.9,0.36 -0.09,0.1 -0.07,0.53 0.14,0.58 0.21,0.06 1.96,0.05 1.96,0.05 0,0 -1.29,0.32 -1.4,0.45 -0.11,0.14 -0.05,0.49 0.12,0.53 0.18,0.03 4.49,-0.54 4.49,-0.54l1.49 0.05 -0.3 -2.57z"/>
   <path class="fil7" d="M129.57 114.99c-0.31,-1.16 -2.84,-0.07 -3.83,-1.18 -3.7,-4.14 -7.15,-2.48 -11.29,-4.45 -4.07,-1.93 -2.59,-8 -5.42,-9.11 -0.6,-0.08 -1.21,-0.19 -1.8,-0.34 -0.86,0.02 -1.65,0.29 -2.38,0.75 -0.05,-0.56 -0.15,-1.12 -0.3,-1.67 -0.11,-0.06 -0.22,-0.11 -0.33,-0.16l-4.64 -0.88c-2.35,-1.3 -3.47,-4.47 -2.45,-6.96 0.14,-0.36 0.35,-0.73 0.69,-0.92 0.17,-0.09 0.35,-0.13 0.54,-0.13 0.66,0 1.36,0.53 2.02,0.83 0.36,0.17 0.72,0.26 1.09,0.3 0.31,-0.01 0.63,-0.02 0.94,-0.01 1.42,-0.19 2.87,-1.05 4.08,-1.92 0.33,-0.23 0.67,-0.48 1.02,-0.71 1.25,-0.83 2.61,-1.56 4,-1.56 0.34,0 0.68,0.04 1.02,0.14 1.59,0.45 2.67,1.93 3.37,3.44 0.7,1.5 1.17,3.13 2.17,4.45 1.15,1.5 2.88,2.43 4.41,3.54 3.05,2.23 5.44,5.41 6.59,8.99 0.21,0.66 0.38,1.33 0.51,2.01 0.33,1.83 0.33,3.72 -0.01,5.55z"/>
   <path class="fil8" d="M120.88 124.15l0 -0.02 -0.16 0c-0.13,0 -0.26,-0.01 -0.38,-0.03l0 -0.01 -0.12 0c-0.23,-0.02 -0.45,-0.05 -0.68,-0.08l0 0 -0.02 0c-0.07,-0.01 -0.15,-0.02 -0.23,-0.03l0 -0.01 -0.05 0c-0.07,-0.01 -0.13,-0.02 -0.2,-0.03l0 -0.01 -0.06 0c-0.06,-0.01 -0.13,-0.03 -0.19,-0.04l0 -0.01 -0.05 0c-0.2,-0.03 -0.41,-0.07 -0.62,-0.12l0 0 -0.01 0 -0.16 -0.03 0 -0.01 -0.04 0 -0.16 -0.04 0 -0.01 -0.02 0 -0.15 -0.03 0 -0.01 -0.03 0c-0.27,-0.06 -0.54,-0.13 -0.81,-0.2l0 -0.01 -0.01 0 -0.16 -0.04 0 0 0 0 -0.12 -0.03 0 -0.01 -0.03 0 -0.14 -0.04 0 0 -0.01 0c-0.09,-0.03 -0.19,-0.06 -0.28,-0.08l0 -0.01 0 0c-0.11,-0.03 -0.22,-0.06 -0.33,-0.09l-0.22 -0.07 0 0 0 0c-0.38,-0.12 -0.75,-0.24 -1.13,-0.38l0 0 0 0c-0.11,-0.04 -0.22,-0.08 -0.33,-0.12l0 0 -0.01 0c-0.18,-0.07 -0.36,-0.14 -0.53,-0.21l0 0 -0.01 0c-0.09,-0.04 -0.19,-0.08 -0.29,-0.12l0 -0.01 -0.01 0c-0.09,-0.04 -0.19,-0.08 -0.28,-0.12l0 0 -0.01 0c-0.12,-0.06 -0.24,-0.11 -0.37,-0.17l0 0 0 0 -0.08 -0.04 0 0 -0.01 0 -0.07 -0.04 0 -0.01 -0.01 0 -0.08 -0.03 0 -0.01 -0.01 0 -0.07 -0.03 0 -0.01 -0.01 0 -0.07 -0.03 0 -0.01 -0.02 0 -0.07 -0.04 0 0 -0.01 0 -0.07 -0.04 0 0 -0.01 0 -0.07 -0.04 0 -0.01 -0.01 0 -0.08 -0.04 0 0 0 0c-0.13,-0.07 -0.25,-0.13 -0.38,-0.2l0 -0.01 0 0c-0.07,-0.04 -0.14,-0.08 -0.2,-0.11l0 -0.01 -0.02 0 -0.07 -0.04 0 -0.01 0 0 -0.12 -0.07 0 -0.01 -0.02 0c-0.1,-0.07 -0.21,-0.13 -0.32,-0.2l0 -0.01 0 0 -0.12 -0.08 0 0 -0.01 0 -0.12 -0.08 0 -0.01 0 0c-0.06,-0.03 -0.11,-0.07 -0.17,-0.11l0 -0.01 -0.01 0 -0.11 -0.08 0 0 0 0c-0.13,-0.1 -0.26,-0.19 -0.38,-0.29l0 -0.01 0 0 -0.04 -0.03 0 -0.01 -0.02 0c-0.06,-0.05 -0.13,-0.11 -0.19,-0.16l0 -0.01 -0.01 0 -0.03 -0.03 0 -0.01 -0.02 0c-0.09,-0.08 -0.18,-0.16 -0.27,-0.25l0 0 0 0 -0.09 -0.08 0 0 0 0 -0.04 -0.04 0 0 -0.01 0 -0.03 -0.04 0 -0.01 -0.01 0 -0.03 -0.03 0 -0.01 -0.01 0 -0.03 -0.03 0 -0.01 -0.01 0 -0.04 -0.03 0 -0.01 -0.01 0 -0.03 -0.03 0 -0.01 -0.01 0 -0.03 -0.04 0 -0.01 -0.01 0 -0.03 -0.03 0 -0.01 -0.01 0 -0.03 -0.04 0 0 -0.01 0 -0.04 -0.04 0 0 0 0c-0.09,-0.1 -0.17,-0.2 -0.26,-0.3l-0.05 -0.06 -0.02 -0.02 -0.05 -0.06 -0.03 -0.04 0 -0.02 -0.02 0 -0.01 -0.01 -0.01 -0.01 -0.01 -0.01 0 -0.02 -0.01 0 -0.03 -0.04 0 0 0 0 -0.04 -0.05 0 -0.03 -0.02 0 -0.01 -0.01 -0.01 -0.01 0 -0.02 -0.02 0 -0.01 -0.02 -0.01 -0.02 0 0 -0.01 0 -0.04 -0.05 0 -0.04 -0.02 0 -0.02 -0.02 0 -0.02 -0.01 0 -0.01 -0.02 -0.02 -0.02 0 0 0 0 -0.04 -0.06 0 -0.03 -0.02 0 -0.02 -0.02 0 -0.02 -0.01 0 -0.08 -0.11 0 -0.01 -0.01 0c-0.08,-0.12 -0.16,-0.25 -0.24,-0.37l0 -0.01 0 0c-0.04,-0.06 -0.08,-0.13 -0.12,-0.2l0 -0.01 -0.01 0 -0.03 -0.06 0 -0.02 -0.02 0c-0.02,-0.04 -0.05,-0.08 -0.07,-0.12l0 -0.01 0 0 -0.04 -0.07 0 -0.01 -0.01 0 -0.03 -0.07 0 -0.01 -0.01 0c-0.13,-0.24 -0.25,-0.49 -0.37,-0.73l0 -0.03 -0.01 0 -0.03 -0.06 0 -0.02 -0.01 0 -0.03 -0.08 0 0 -0.01 0c-0.04,-0.1 -0.08,-0.19 -0.12,-0.29l0 -0.01 0 0c-0.06,-0.13 -0.11,-0.26 -0.16,-0.4l0 -0.02 -0.01 0c-0.03,-0.06 -0.05,-0.13 -0.08,-0.2l0 -0.01 0 0 -0.04 -0.1 0 -0.02 -0.01 0c-0.04,-0.11 -0.08,-0.22 -0.12,-0.33l0 -0.01 0 0 -0.04 -0.12 0 0 0 0 -0.04 -0.12 0 -0.01 0 0c-0.04,-0.11 -0.07,-0.22 -0.11,-0.33l0 -0.01 -0.01 -0.05 0 -0.02 -0.01 0 -0.04 -0.12 0 -0.01 0 0 -0.01 -0.05 -0.02 -0.04 -0.02 -0.07 0 -0.01 -0.03 -0.11 0 -0.01 -0.01 0 -0.01 -0.05 -0.01 -0.02 -0.02 -0.08 0 0 -0.02 -0.09 -0.03 -0.12 -0.01 -0.03 -0.02 -0.05 0 -0.02 0 0 0 -0.01 -0.02 -0.06 -0.01 -0.05 -0.01 -0.02 0 -0.03 0 0 -0.01 -0.03 -0.01 -0.02 -0.02 -0.09 0 -0.03 -0.01 0 -0.03 -0.14 0 -0.07 -0.02 0 -0.02 -0.1 0 -0.06 -0.02 0 -0.03 -0.12 0 -0.05 -0.01 0 -0.02 -0.08 0 -0.01 -0.01 -0.05 0 -0.07 -0.01 0 -0.03 -0.12 0 -0.05 -0.01 0 -0.03 -0.15 0 -0.02 0 0c-0.03,-0.13 -0.06,-0.26 -0.08,-0.4l0 -0.01 -0.01 0 -0.02 -0.1 0 -0.01 -0.02 -0.1 0 -0.04 0 0 -0.04 -0.2 0 -0.1 -0.01 0 -0.03 -0.15 0 -0.1 -0.02 0 -0.02 -0.17 0 -0.08 -0.01 0 -0.03 -0.21 0 -0.08 -0.02 0c-0.01,-0.08 -0.02,-0.15 -0.03,-0.23l0 -0.02 0 0c-0.01,-0.11 -0.03,-0.22 -0.04,-0.32l0 -0.1 -0.01 0c-0.01,-0.1 -0.02,-0.19 -0.03,-0.29l0 -0.13 -0.01 0c-0.01,-0.11 -0.02,-0.21 -0.03,-0.32l0 -0.22 -0.02 0c-0.01,-0.12 -0.02,-0.24 -0.02,-0.36l0 -0.15 -0.01 0c-0.01,-0.11 -0.01,-0.22 -0.02,-0.34l0 -0.04 -0.01 -0.19 0 -0.04 0 -0.08 0 -0.03 0 -0.07 0 -0.01 0 -1.39 0 -0.01 0 -0.02 0 -0.03 0 -0.02 0 -0.01 0 -0.01 0 -0.1 0.01 -0.13 0 -0.21 0.01 -0.21 0.01 -0.05 0 -0.1 0.01 0 0 -0.09c0.01,-0.23 0.02,-0.47 0.04,-0.71l0 0 0 -0.01c0.01,-0.23 0.03,-0.45 0.04,-0.67l0 -0.02c0.02,-0.34 0.03,-0.68 0.04,-1.02l0 -0.04 0 -0.04 0 -0.06c0,-0.08 0,-0.17 0,-0.25l0 -0.15 0 -0.01 0 -0.1 0 -0.01c0,-0.06 0,-0.13 -0.01,-0.19l0 -0.01 0 -0.09 0 -0.02 0 -0.09 0 -0.01 -0.01 -0.09 0 -0.02 0 -0.07 0 -0.03 -0.01 -0.04 0 0 0 -0.03 0 -0.04 0 -0.04c-0.01,-0.07 -0.01,-0.13 -0.02,-0.2 0.04,-0.03 0.08,-0.05 0.13,-0.08l0.01 0 0 0c0.09,-0.06 0.19,-0.11 0.29,-0.16l0 0 0 0 0.08 -0.05 0 0 0 0c0.09,-0.04 0.19,-0.08 0.28,-0.12l0.02 0 0 -0.01c0.06,-0.03 0.13,-0.05 0.2,-0.07l0.01 0 0 -0.01c0.13,-0.04 0.27,-0.09 0.4,-0.12l0.01 0 0 0c0.06,-0.02 0.12,-0.03 0.18,-0.04l0.03 0 0 -0.01c0.07,-0.01 0.14,-0.02 0.21,-0.03l0.04 0 0 -0.01c0.15,-0.02 0.31,-0.03 0.46,-0.04l0.09 0 0 0 0.02 0 0.02 0 0 0 0.08 0c0.15,0.01 0.31,0.02 0.46,0.04l0 0.01 0.05 0c0.08,0.01 0.16,0.02 0.25,0.04l0 0 0 0c0.06,0.01 0.11,0.02 0.16,0.03l0 0.01 0.04 0c0.04,0.01 0.09,0.02 0.13,0.03l0 0.01 0.03 0c0.05,0.01 0.09,0.03 0.14,0.04l0 0 0.01 0 0.04 0.02c0.07,0.02 0.13,0.04 0.2,0.06l0 0.01 0.01 0c0.06,0.02 0.13,0.05 0.2,0.08l0 0 0.01 0c0.17,0.07 0.34,0.16 0.49,0.25l0 0 0.01 0c0.13,0.08 0.25,0.16 0.37,0.25l0 0 0 0c0.3,0.22 0.55,0.48 0.79,0.75l0 0.01 0 0c0.12,0.13 0.23,0.27 0.34,0.41l0 0 0 0c0.17,0.23 0.33,0.47 0.5,0.71l0 0.01 0 0c0.89,1.31 1.83,2.81 4.11,3.89 2.16,1.03 4.3,1.22 6.39,1.75l0 0 0.01 0 0.15 0.04 0 0 0.01 0c0.19,0.06 0.39,0.11 0.58,0.17l0 0 0.01 0 0.12 0.04 0 0 0.01 0c0.16,0.06 0.33,0.11 0.49,0.17l0 0 0 0c0.11,0.04 0.22,0.08 0.33,0.13l0 0 0 0c0.26,0.1 0.51,0.21 0.76,0.33l0 0 0 0 0.08 0.04 0 0 0 0 0.08 0.04 0 0 0 0c0.13,0.07 0.25,0.14 0.38,0.21l0 0 0.01 0c0.06,0.04 0.13,0.08 0.2,0.12l0 0.01 0.01 0c0.11,0.07 0.22,0.13 0.32,0.21l0 0 0.01 0c0.04,0.03 0.08,0.05 0.12,0.08l0 0 0 0c0.06,0.04 0.11,0.08 0.17,0.12l0 0.01 0.01 0c0.18,0.13 0.35,0.27 0.53,0.41l0 0.01 0 0 0.04 0.03 0 0.01 0.01 0c0.08,0.07 0.16,0.14 0.24,0.21l0 0 0 0 0.04 0.04 0 0 0.01 0c0.19,0.18 0.39,0.37 0.58,0.57l0 0.01 0.01 0 0.03 0.04 0 0.01 0.01 0 0.03 0.03 0 0.01 0.01 0 0.04 0.04 0 0 0 0c0.03,0.04 0.07,0.07 0.1,0.11 0.05,0.06 0.1,0.11 0.15,0.17l0 0.01 0.01 0 0.03 0.04 0 0 0 0c0.04,0.05 0.08,0.1 0.12,0.15l0 0.02 0.02 0 0.03 0.03 0 0.01 0 0c0.04,0.05 0.08,0.1 0.12,0.15l0 0.02 0.01 0 0.03 0.04 0 0 0.01 0c0.07,0.1 0.14,0.2 0.2,0.29l0 0.01 0 0c0.03,0.04 0.06,0.08 0.09,0.12l0 0 0 0c0.03,0.04 0.05,0.08 0.08,0.12l0 0.01 0 0 0.04 0.06 0 0.02 0.01 0c0.03,0.04 0.05,0.08 0.08,0.12l0 0.01 0 0 0.04 0.06 0 0.02 0.01 0c0.02,0.04 0.05,0.08 0.07,0.12l0 0.01 0 0c0.04,0.07 0.09,0.15 0.13,0.23l0 0.02 0.01 0 0.03 0.06 0 0.02 0.01 0 0.03 0.06 0 0.02 0.01 0 0.03 0.07 0 0.02 0.01 0 0.03 0.07 0 0.01 0.01 0 0.04 0.08 0 0 0 0c0.06,0.14 0.11,0.28 0.16,0.41l0 0.01 0.01 0 0.03 0.1 0 0.03 0.01 0 0.04 0.09 0 0.03 0.01 0 0.03 0.1 0 0.03 0.01 0 0.03 0.1 0 0.02 0.01 0c0.01,0.04 0.02,0.09 0.03,0.13l0 0 0 0 0.03 0.1 0 0.04 -0.01 0.03 -0.02 0 0 0.09 -0.02 0.11 0 0.01 -0.02 0 0 0.09 -0.01 0.06 -0.01 0.06 -0.02 0 0 0.08 -0.02 0.09 -0.01 0.03 -0.01 0 0 0.06 -0.03 0.12 -0.01 0.03 -0.01 0 0 0.03 0 0 -0.03 0.15 -0.02 0.06 -0.03 0.1 0 0 0 0.01 0 0.02 -0.02 0.04 -0.01 0.05 -0.01 0 0 0.04 -0.02 0.07 -0.01 0.02 -0.01 0 0 0.06 -0.03 0.11 -0.01 0 0 0.03 -0.02 0.04 -0.01 0.05 -0.02 0 0 0.05 -0.02 0.06 0 0.02 -0.02 0 0 0.05 -0.02 0.07 -0.02 0 0 0.06 -0.01 0.03 -0.01 0.04 -0.02 0 0 0.05 -0.03 0.07 0 0 -0.01 0 0 0.05 -0.03 0.08 -0.02 0 0 0.04 -0.01 0.04 -0.01 0.01c-0.02,0.06 -0.03,0.11 -0.05,0.16l-0.01 0 0 0.01 0 0.01 -0.01 0.02 -0.06 0.16 -0.01 0.01 0 0 0 0.02 -0.01 0.02 -0.06 0.16 -0.01 0.01 -0.01 0 0 0.02 0 0.01 -0.02 0.05 0.02 -0.05 -0.03 0.05 -0.01 0 0 0.03 -0.02 0.06 -0.02 0 0 0.04 -0.04 0.08 0 0 0 0.02 -0.03 0.06 0 0.01 -0.01 0 0 0.02 -0.03 0.06 -0.02 0 0 0.03 -0.02 0.05 -0.02 0 0 0.05 0 0 -0.02 0.04 -0.02 0 0 0.04 -0.04 0.08 0 0 0 0.01 -0.01 0.02 -0.03 0.06 0 0 0 0.01 -0.04 0.07 0 0 0 0.01 -0.02 0.03 -0.02 0.04 -0.01 0 0 0.02 -0.03 0.07 -0.01 0 0 0.01 -0.01 0.02 -0.02 0.03 -0.01 0.02 0 0 0 0.01 -0.04 0.07 0 0 0 0.01 -0.03 0.06 -0.01 0.01 -0.07 0.13 -0.02 0 0 0.03 -0.03 0.06 -0.01 0 0 0.01 -0.04 0.07 0 0 0 0.01 -0.02 0.03 -0.02 0 0 0.04 -0.03 0.05 -0.01 0 0 0.02 -0.04 0.06 -0.01 0 0 0.01 -0.01 0.03 0 0 -0.03 0 0 0.04 -0.02 0.05 -0.02 0 0 0.02 -0.04 0.06 0 0 0 0.01 -0.02 0.03 -0.02 0 0 0.04 -0.03 0.04 -0.02 0 0 0.02 -0.01 0.03 0 0 -0.03 0.04 0 0 0 0 -0.02 0.04 -0.02 0 0 0.02 -0.03 0.06 -0.01 0 0 0 0 0.01 -0.02 0.02 -0.06 0.1 -0.01 0 0 0 -0.03 0.05 -0.01 0.02 -0.04 0.05 -0.06 0.09 -0.03 0.04 -0.03 0.04 0 0 0 0.01 -0.03 0.03 -0.02 0 0 0.03 -0.02 0.03 -0.01 0.02 -0.01 0.01 0 0 0 0 -0.03 0.04 -0.01 0 0 0.02 -0.02 0.02 -0.02 0 0 0.03 -0.02 0.03 -0.01 0.01 -0.01 0.01 0 0 0 0.01 -0.03 0.04 -0.02 0 0 0.01 -0.01 0.03 -0.03 0 0 0.03 -0.01 0.01 -0.03 0 0 0.04 -0.03 0.04 -0.01 0 0 0.02 -0.02 0.03 -0.02 0 0 0.02 -0.02 0.02 -0.02 0 0 0.03 -0.04 0.05 -0.01 0 0 0 -0.03 0.04 -0.01 0 0 0.01 -0.02 0.04 -0.02 0 0 0.01 -0.01 0.01c-0.03,0.05 -0.07,0.1 -0.11,0.14l-0.01 0 0 0 0 0.01 -0.01 0.01 -0.02 0.02 -0.01 0 0 0.01c-0.03,0.04 -0.06,0.08 -0.1,0.12 -0.06,0.07 -0.12,0.14 -0.19,0.21l0 0 0 0 -0.04 0.04 0 0 0 0.01 -0.04 0.03 0 0 0 0.01 -0.04 0.03 -0.01 0 0 0.01c-0.1,0.11 -0.21,0.22 -0.32,0.33l-0.01 0 0 0.01 -0.04 0.03 0 0 0 0 -0.04 0.04 0 0 0 0c-0.08,0.07 -0.16,0.14 -0.24,0.21l-0.01 0 0 0.01 -0.04 0.03 -0.01 0 0 0.01c-0.06,0.05 -0.13,0.11 -0.2,0.16l-0.01 0 0 0c-0.03,0.03 -0.07,0.06 -0.11,0.08l-0.01 0 0 0.02c-0.04,0.02 -0.07,0.04 -0.1,0.07l-0.03 0 0 0.01 -0.04 0.03 0 0 0 0 -0.06 0.04 -0.02 0 0 0.02c-0.11,0.07 -0.22,0.13 -0.33,0.19l-0.01 0 0 0 -0.07 0.04 -0.01 0 0 0.01 -0.08 0.03 0 0 0 0.01 -0.08 0.04 -0.01 0 0 0c-0.03,0.01 -0.06,0.03 -0.09,0.04l-0.03 0 0 0.02 -0.06 0.02 -0.03 0 0 0.01c-0.03,0.01 -0.05,0.02 -0.08,0.03l0 0 -0.07 0.03 -0.04 0.01 -0.01 0 -0.01 0 0 0.01 -0.04 0.01 -0.02 0.01 0 0 -0.05 0.02 -0.05 0 0 0.01 -0.03 0.01 -0.07 0.02 -0.07 0 0 0.02 -0.05 0.01 -0.04 0.01 -0.08 0 0 0.02c-0.04,0.01 -0.07,0.01 -0.11,0.02l-0.1 0 0 0.02c-0.05,0.01 -0.09,0.02 -0.14,0.02l-0.02 0 0 0.01c-0.05,0 -0.09,0.01 -0.13,0.01l-0.02 0.01 0 0 -0.03 0c-0.05,0.01 -0.1,0.01 -0.15,0.01l-0.22 0 0 0.02 -0.06 0.01 -0.02 0 -0.06 0 -0.06 0 -0.03 0 -0.02 0 0 0 -0.02 0.01c-0.1,0 -0.19,0 -0.29,0l0 0 -0.06 0 0 0 -0.02 0 0 0c-0.06,0 -0.12,0 -0.18,0l-0.01 0 -0.02 0 -0.02 0 0 0 -0.01 -0.01 -0.01 0 -0.01 0 0 0 -0.01 0 0 0 -0.01 0 -0.01 0 0 0 -0.01 0 -0.01 0c-0.13,0 -0.26,-0.01 -0.39,-0.01zm7.74 -5.96l-0.02 0.05 0.02 -0.05z"/>
   <path class="fil9" d="M99.74 95.09c-1.13,2.85 -1.1,9.39 0.27,10.4 1.63,1.2 9.05,0 9.05,0 0,0 0.53,-2.33 0.73,-5.16 -1.64,-0.14 -3.26,-0.5 -4.78,-1.14 -2.08,-0.87 -3.97,-2.28 -5.27,-4.1z"/>
   <polygon class="fil10" points="104.05,104.88 105,107.62 110.15,106.57 109.66,101.52 "/>
   <path class="fil10" d="M107.4 100.4c0,0 -0.26,-2.19 1.14,-2.16 1.4,0.03 2.56,3.49 0,3.79l-1.14 -1.63z"/>
   <path class="fil3" d="M113.52 124.05c-0.94,0 -11.35,2.47 -11.84,7.1 -0.5,4.62 14.03,8.42 14.03,8.42l2.15 -2.77 -7.29 -4.99 2.95 -7.76z"/>
   <path class="fil11" d="M104.45 134.98l-0.03 -0.02c-0.08,-0.06 -0.16,-0.11 -0.24,-0.17l-0.02 -0.01c-0.08,-0.06 -0.16,-0.11 -0.23,-0.17l-0.03 -0.02c-0.08,-0.05 -0.16,-0.11 -0.23,-0.17l-0.02 -0.02c-0.07,-0.05 -0.14,-0.11 -0.21,-0.17l-0.03 -0.02c-0.07,-0.05 -0.14,-0.11 -0.2,-0.17l-0.01 -0.01 0 0 0 0c-0.07,-0.06 -0.14,-0.12 -0.2,-0.19l-0.02 -0.01c-0.06,-0.06 -0.13,-0.12 -0.18,-0.18l-0.02 -0.01c-0.06,-0.07 -0.12,-0.13 -0.17,-0.19l-0.01 -0.01c-0.06,-0.07 -0.11,-0.13 -0.16,-0.19l-0.01 -0.02c-0.05,-0.06 -0.1,-0.12 -0.15,-0.18l-0.01 -0.02c-0.04,-0.06 -0.09,-0.12 -0.13,-0.19l-0.01 -0.01c-0.04,-0.06 -0.07,-0.13 -0.11,-0.19l-0.01 -0.01c-0.03,-0.07 -0.07,-0.14 -0.1,-0.2l0 -0.01c-0.03,-0.07 -0.06,-0.14 -0.09,-0.2l0 -0.01zm-0.12 -0.42l0 0c-0.01,-0.07 -0.02,-0.14 -0.03,-0.21l0 0c-0.01,-0.15 -0.01,-0.29 0.01,-0.43 0.01,-0.08 0.02,-0.15 0.03,-0.22l0 0c0.01,-0.07 0.03,-0.14 0.04,-0.21l0 0c0.02,-0.07 0.04,-0.14 0.06,-0.21l0 0c0.07,-0.21 0.15,-0.41 0.25,-0.61l0 0c0.04,-0.06 0.07,-0.13 0.11,-0.19l0 0zm0.22 -0.35c2.79,-0.9 5.72,-1.36 8.65,-1.36 0.32,0 0.65,0.01 0.97,0.02l-1.44 3.79 2.76 1.89c-1.16,0.34 -2.34,0.61 -3.53,0.82 -1.7,0.31 -3.41,0.49 -5.13,0.6 -0.07,-0.04 -0.14,-0.09 -0.22,-0.14zm-2.75 -3.19c0.02,0.07 0.03,0.14 0.05,0.21z"/>
   <path class="fil12" d="M105 107.62c0,0 -6.45,9.72 -25.24,7.4 -0.28,2.42 0.29,3.42 0.29,3.42 0,0 14.97,4.84 24.73,-1.19 0.39,1.08 1.03,1.98 2.03,2.5 3.31,1.73 5.81,6.67 5.81,6.67l9.8 -4.94c0,0 -1.11,-3.43 -4.56,-8.28 -3.75,-5.28 -7.71,-6.63 -7.71,-6.63l-5.15 1.05z"/>
   <path class="fil3" d="M122.42 121.48c0,0 2.56,9.88 -3.55,10.86 -5.86,0.94 -15.89,0 -15.89,0l6.78 8.08 -2.95 2.45c0,0 -12.35,-7.11 -12.35,-13.05 0,-5.44 15.3,-6.33 15.3,-6.33l12.66 -2.01z"/>
  </g>
 </g>
</svg>
