<?xml version="1.0" encoding="UTF-8"?>
<!DOCTYPE svg PUBLIC "-//W3C//DTD SVG 1.1//EN" "http://www.w3.org/Graphics/SVG/1.1/DTD/svg11.dtd">
<!-- Creator: CorelDRAW 2018 (64 Bit Versão de avaliação) -->
<svg xmlns="http://www.w3.org/2000/svg" xml:space="preserve" width="1000px" height="300px" version="1.1" shape-rendering="geometricPrecision" text-rendering="geometricPrecision" image-rendering="optimizeQuality" fill-rule="evenodd" clip-rule="evenodd"
viewBox="0 0 998.12 298.89"
 xmlns:xlink="http://www.w3.org/1999/xlink">
 <defs>
    <linearGradient id="id0" gradientUnits="userSpaceOnUse" x1="247.62" y1="35.32" x2="102.31" y2="263.57">
     <stop offset="0" stop-opacity="1" stop-color="#F01D24"/>
     <stop offset="1" stop-opacity="1" stop-color="#590E0D"/>
    </linearGradient>
 </defs>
 <g id="Camada_x0020_1">
  <metadata id="CorelCorpID_0Corel-Layer"/>
  <g id="_2615499420976">
   <path fill="white" fill-rule="nonzero" d="M386.79 143.25c0,9.74 -0.11,15.32 -0.22,19.58 -0.22,8.21 -1.64,9.74 -3.94,10.29 -0.76,0.22 -1.42,0.22 -2.51,0.33 -0.66,0.11 -1.21,0.32 -1.21,0.65 0,0.66 0.55,0.88 1.75,0.88 2.85,0.11 5.47,-0.33 8.1,-0.33 4.26,0 9.3,0.22 13.67,0.33 4.27,0.11 7.88,0.33 15.97,0.33 4.27,0 5.14,0 5.91,-2.85 0.55,-2.3 1.42,-9.73 1.42,-10.61 0,-0.77 0,-1.64 -0.65,-1.64 -0.55,0 -0.77,0.44 -0.99,1.64 -0.87,4.7 -2.08,7 -5.58,8.1 -2.95,0.87 -6.56,0.98 -9.84,0.98 -4.27,0 -7.22,-0.22 -9.08,-0.98 -2.74,-1.1 -3.39,-3.51 -3.61,-7.99 -0.11,-2.3 0,-14.99 0,-18.71l0 -9.62c0,-0.44 0.22,-0.77 0.76,-0.77 1.86,0 12.69,0.22 15.65,0.55 3.93,0.44 5.25,1.97 5.68,3.61 0.33,0.98 0.44,2.08 0.44,3.06 0,0.88 0.11,1.75 0.77,1.75 0.44,0 0.65,-0.55 0.76,-1.64 0.11,-1.53 0.11,-4.05 0.44,-7.44 0.33,-3.61 0.88,-5.47 0.88,-6.12 0,-0.66 -0.22,-0.88 -0.55,-0.88 -0.44,0 -0.77,0.44 -1.31,1.09 -1.1,1.32 -2.52,1.65 -5.47,1.86 -2.52,0.22 -15.97,0.22 -17.4,0.22 -0.54,0 -0.65,-0.33 -0.65,-1.09l0 -30.19c0,-0.77 0.22,-1.1 0.65,-1.1 1.21,0 13.13,0.11 14.99,0.33 4.81,0.44 7.11,1.53 7.88,4.05 0.33,0.87 0.54,2.19 0.54,3.61 0,0.87 0.22,1.42 0.88,1.42 0.44,0 0.77,-0.77 0.87,-1.86 0.22,-2.84 0.33,-4.92 0.44,-6.56 0.22,-3.07 0.88,-4.38 0.88,-5.14 0,-0.55 -0.11,-0.99 -0.44,-0.99 -0.33,0 -0.55,0.11 -1.2,0.44 -0.66,0.33 -2.63,0.55 -5.04,0.65 -2.51,0.11 -24.28,0.11 -25.05,0.11 -6.89,-0.32 -9.84,-0.32 -12.36,-0.32 -1.2,0 -1.75,0.21 -1.75,0.87 0,0.44 0.66,0.55 1.42,0.66 0.99,0.11 2.41,0.11 3.18,0.33 3.61,0.76 4.48,2.51 4.7,6.23 0.22,3.5 0.22,6.56 0.22,23.63l0 19.25zm74.39 33.26c5.9,0 11.81,-1.31 16.51,-4.6 7.55,-5.36 9.3,-13.67 9.3,-18.16 0,-8.75 -3.06,-15.53 -15.97,-25.7l-3.06 -2.41c-10.5,-8.2 -13.35,-12.14 -13.35,-18.38 0,-7.98 5.91,-12.69 13.46,-12.69 10.06,0 13.02,4.6 13.67,5.8 0.66,1.2 1.31,4.16 1.42,5.47 0.11,0.88 0.22,1.42 0.88,1.42 0.55,0 0.76,-0.76 0.76,-2.51 0,-7.44 0.44,-11.05 0.44,-11.6 0,-0.55 -0.22,-0.76 -1.09,-0.76 -0.88,0 -1.75,-0.11 -3.83,-0.55 -2.74,-0.66 -5.91,-1.1 -10.17,-1.1 -13.9,0 -22.65,7.99 -22.65,19.7 0,7.43 2.63,14.22 14.22,23.73l4.93 4.05c9.4,7.77 12.58,12.14 12.58,19.69 0,7 -5.15,14.55 -15.65,14.55 -7.33,0 -14.55,-3.06 -16.19,-11.16 -0.33,-1.53 -0.33,-3.06 -0.33,-4.04 0,-0.88 -0.11,-1.21 -0.76,-1.21 -0.55,0 -0.77,0.55 -0.88,1.75 -0.11,1.75 -0.54,6.13 -0.54,11.6 0,2.95 0.11,3.39 1.64,4.16 4.48,2.18 9.51,2.95 14.66,2.95zm91.56 0c7,0 15.31,-0.77 19.69,-2.52 1.97,-0.87 2.19,-1.09 2.84,-3.17 1.1,-3.72 2.41,-13.24 2.41,-14 0,-0.88 -0.22,-1.64 -0.77,-1.64 -0.65,0 -0.87,0.43 -1.09,1.64 -0.33,1.97 -1.75,6.78 -4.05,9.19 -4.37,4.48 -10.83,5.47 -19.03,5.47 -23.41,0 -39.49,-19.15 -39.49,-40.04 0,-11.16 1.86,-20.9 9.84,-28.55 3.83,-3.72 10.61,-7.99 25.16,-7.99 9.63,0 18.05,2.96 21.88,6.24 2.85,2.4 4.6,6.89 4.6,11.15 0,1.54 0.11,2.3 0.87,2.3 0.66,0 0.88,-0.65 0.99,-2.3 0.11,-1.64 0.11,-7.65 0.32,-11.26 0.22,-3.94 0.55,-5.25 0.55,-6.13 0,-0.65 -0.22,-1.09 -0.98,-1.2 -4.05,-0.55 -7.44,-0.88 -11.6,-1.64 -5.36,-0.99 -11.49,-1.32 -15.86,-1.32 -16.85,0 -26.8,5.15 -33.37,11.71 -9.73,9.74 -12.25,22.53 -12.25,29.86 0,10.4 2.63,22.87 13.24,32.38 8.64,7.77 19.69,11.82 36.1,11.82zm81.17 0c26.36,0 43.65,-20.24 43.65,-44.74 0,-25.49 -18.38,-41.03 -43,-41.03 -30.19,0 -43.1,25.06 -43.1,42.78 0,19.69 12.47,42.99 42.45,42.99zm2.95 -4.16c-19.69,0 -35,-16.41 -35,-41.9 0,-23.95 13.67,-35.99 31.94,-35.99 17.28,0 33.25,14.12 33.25,40.37 0,31.83 -20.34,37.52 -30.19,37.52zm141.23 -78.65c-0.22,-2.08 -0.55,-2.96 -1.31,-2.96 -0.77,0 -1.21,0.77 -1.64,1.75l-32.17 68.7 -33.47 -68.8c-0.55,-1.21 -0.99,-1.65 -1.64,-1.65 -0.66,0 -1.1,0.99 -1.21,2.19l-7.87 71.11c-0.55,4.48 -0.77,8.42 -4.38,9.08 -1.64,0.33 -2.4,0.33 -3.28,0.33 -0.55,0 -1.09,0.21 -1.09,0.65 0,0.77 0.76,0.88 1.86,0.88 2.95,0 8.2,-0.33 9.19,-0.33 0.87,0 6.45,0.33 10.5,0.33 1.09,0 1.64,-0.22 1.64,-0.99 0,-0.33 -0.44,-0.54 -1.1,-0.54 -0.65,0 -2.07,0 -3.93,-0.44 -1.64,-0.33 -2.96,-1.21 -2.96,-3.94 0,-1.86 0.11,-3.39 0.22,-5.14l4.49 -51.53c1.2,2.96 13.78,29.98 14.76,31.95 0.55,1.09 9.96,20.02 12.8,25.38 2.08,3.93 2.63,5.03 3.39,5.03 0.99,0 1.32,-0.99 3.62,-5.8l27.12 -57.54 5.26 57.1c0.21,1.97 0.32,3.61 -0.44,3.94 -0.55,0.22 -0.77,0.33 -0.77,0.77 0,0.54 0.55,0.87 3.07,1.09 4.04,0.33 16.51,0.66 18.92,0.66 1.31,0 1.64,-0.22 1.64,-0.88 0,-0.54 -0.66,-0.65 -1.2,-0.65 -1.1,0 -3.61,0 -6.78,-0.99 -4.71,-1.53 -5.47,-7.66 -5.91,-11.59l-7.33 -67.17zm70.45 49.01c0.55,0 0.76,0.22 0.98,0.65l10.18 26.91c0.65,1.75 0,2.74 -0.66,2.96 -0.44,0.11 -0.77,0.33 -0.77,0.76 0,0.66 1.21,0.66 3.29,0.77 7.54,0.22 15.53,0.22 17.17,0.22 1.2,0 2.19,-0.22 2.19,-0.88 0,-0.54 -0.55,-0.65 -1.2,-0.65 -0.88,0 -2.63,-0.11 -4.27,-0.66 -2.3,-0.66 -5.47,-2.41 -9.41,-12.14 -6.67,-16.63 -23.85,-61.81 -25.49,-65.97 -1.31,-3.39 -1.75,-3.94 -2.4,-3.94 -0.66,0 -1.1,0.66 -2.41,4.27l-24.83 67.93c-1.97,5.47 -4.16,9.63 -9.19,10.29 -0.88,0.11 -1.86,0.22 -2.63,0.22 -0.98,0 -1.53,0.21 -1.53,0.65 0,0.66 0.66,0.88 2.08,0.88 5.14,0 11.16,-0.33 12.36,-0.33 1.2,0 5.58,0.33 8.21,0.33 0.98,0 1.96,-0.22 1.96,-0.88 0,-0.44 -0.32,-0.65 -1.42,-0.65 -0.33,0 -0.65,0 -0.98,0 -1.86,0 -3.94,-0.99 -3.94,-3.18 0,-1.97 0.55,-4.59 1.53,-7.33l6.56 -19.36c0.22,-0.55 0.55,-0.87 1.1,-0.87l23.52 0zm-22.32 -3.94c-0.33,0 -0.54,-0.22 -0.33,-0.77l9.63 -29.53c0.55,-1.64 1.09,-1.64 1.64,0l10.39 29.53c0.11,0.44 0.11,0.77 -0.43,0.77l-20.9 0zm70.34 4.48c0,10.5 0,19.15 -0.55,23.74 -0.43,3.17 -0.98,5.58 -3.17,6.02 -0.98,0.22 -2.29,0.44 -3.28,0.44 -0.66,0 -0.87,0.32 -0.87,0.65 0,0.66 0.54,0.88 1.75,0.88 3.28,0 10.17,-0.33 10.28,-0.33 0.55,0 7.44,0.33 13.45,0.33 1.21,0 1.75,-0.33 1.75,-0.88 0,-0.33 -0.21,-0.65 -0.87,-0.65 -0.99,0 -3.39,-0.22 -4.92,-0.44 -3.29,-0.44 -3.94,-2.85 -4.27,-6.02 -0.55,-4.59 -0.55,-13.24 -0.55,-23.74l0 -2.62c0,-0.55 0.22,-0.88 0.77,-0.88l13.45 0.22c0.66,0 0.99,0.22 1.43,0.66 2.18,2.84 7.33,10.17 11.92,16.19 6.24,8.2 10.06,13.56 14.77,16.08 2.84,1.53 5.58,2.08 11.7,2.08l7.77 0c1.97,0 2.63,-0.22 2.63,-0.88 0,-0.33 -0.44,-0.65 -0.99,-0.65 -0.65,0 -2.19,0 -4.27,-0.33 -2.73,-0.44 -7.43,-1.64 -13.34,-7.88 -6.35,-6.78 -13.78,-16.52 -22.75,-28 9.84,-9.08 13.23,-17.18 13.23,-25.27 0,-7.55 -4.81,-12.91 -7.55,-14.88 -5.79,-4.16 -13.12,-4.81 -20.02,-4.81 -3.39,0 -11.7,0.32 -12.9,0.32 -0.55,0 -7.44,-0.32 -12.37,-0.32 -1.2,0 -1.75,0.21 -1.75,0.87 0,0.44 0.44,0.66 0.88,0.66 0.98,0 2.84,0.11 3.72,0.33 3.61,0.76 4.48,2.51 4.7,6.23 0.22,3.5 0.22,6.56 0.22,23.63l0 19.25zm8.75 -45.5c0,-0.66 0.33,-1.1 0.88,-1.32 1.09,-0.33 4.05,-0.65 7.33,-0.65 11.7,0 18.92,8.2 18.92,21.88 0,8.31 -2.84,14.22 -6.67,16.84 -2.52,1.75 -5.58,2.08 -8.2,2.08 -4.82,0 -9.85,-0.77 -11.49,-1.75 -0.55,-0.33 -0.77,-0.77 -0.77,-1.31l0 -35.77z"/>
   <path fill="white" fill-rule="nonzero" d="M386.3 206.02c0,4.84 3.41,8.6 8.41,8.6 4.22,0 6.59,-2.81 6.59,-2.81l-1.59 -2.17c0,0 -1.87,2.17 -4.96,2.17 -2.97,0 -5.32,-2.58 -5.32,-5.79 0,-3.41 2.31,-5.51 5.23,-5.51 1.43,0 3.39,0.56 3.39,1.75l0 0.93 2.74 0 0 -1.82c0,-2.79 -4.1,-3.67 -6.2,-3.67 -4.74,0 -8.29,3.6 -8.29,8.32zm31.32 0.02c0,4.82 3.64,8.58 8.46,8.58 4.81,0 8.46,-3.76 8.46,-8.58 0,-4.67 -3.65,-8.34 -8.46,-8.34 -4.82,0 -8.46,3.67 -8.46,8.34zm3.13 0c0,-3.13 2.38,-5.53 5.33,-5.53 2.95,0 5.32,2.4 5.32,5.53 0,3.28 -2.37,5.77 -5.32,5.77 -2.95,0 -5.33,-2.49 -5.33,-5.77zm30.36 8.3l2.95 0c1.1,0 1.56,-0.46 1.56,-1.56l0 -7.47c0,-0.95 -0.16,-2.31 -0.16,-2.31l0.05 0c0,0 0.71,1.39 1.36,2.31l6.22 9.03 2.7 0 0 -13.3c0,-0.32 0.18,-0.5 0.51,-0.5l0.99 0 0 -2.56 -2.95 0c-1.11,0 -1.57,0.48 -1.57,1.56l0 7.5c0,0.94 0.16,2.3 0.16,2.3l-0.05 0c0,0 -0.71,-1.36 -1.36,-2.3l-6.2 -9.06 -2.72 0 0 13.3c0,0.32 -0.18,0.5 -0.5,0.5l-0.99 0 0 2.56zm38.07 0l3.02 0 0 -13.8 2.51 0c0.32,0 0.51,0.18 0.51,0.5l0 0.99 2.65 0 0 -2.58c0,-1.08 -0.37,-1.47 -1.48,-1.47l-11.41 0c-1.1,0 -1.47,0.39 -1.47,1.47l0 2.58 2.65 0 0 -0.99c0,-0.32 0.18,-0.5 0.51,-0.5l2.51 0 0 13.8zm22.4 0l1.82 0c1.15,0 1.55,-0.3 1.91,-1.33l1.02 -2.86 5.53 0 1.02 2.86c0.36,1.03 0.78,1.33 1.93,1.33l1.8 0 0 -2.56 -0.37 0c-0.39,0 -0.58,-0.09 -0.71,-0.5l-4.84 -13.3 -3.16 0 -4.87 13.3c-0.13,0.41 -0.32,0.5 -0.71,0.5l-0.37 0 0 2.56zm5.44 -6.68l1.41 -4.1c0.3,-0.9 0.64,-2.45 0.64,-2.45l0.05 0c0,0 0.34,1.55 0.64,2.45l1.41 4.1 -4.15 0zm27.2 5.12c0,1.1 0.48,1.56 1.56,1.56l4.08 0c3.05,0 5.65,-1.47 5.65,-4.75 0,-1.66 -0.85,-3.31 -2.63,-3.85l0 -0.04c0.99,-0.51 1.98,-1.68 1.98,-3.5 0,-2.7 -2.12,-4.22 -5.07,-4.22l-7.07 0 0 2.56 1.5 0 0 12.24zm3.02 -8.12l0 -4.12 2.53 0c1.34,0 2.03,0.85 2.03,2.02 0,1.18 -0.72,2.1 -1.98,2.1l-2.58 0zm0 6.62l0 -4.22 2.85 0c1.46,0 2.31,0.99 2.31,2.35 0,1.38 -0.83,2.37 -2.31,2.37l-2.35 0c-0.32,0 -0.5,-0.18 -0.5,-0.5zm25.19 3.06l6.13 0 0 -2.56 -1.64 0 0 -11.24 1.64 0 0 -2.56 -6.13 0 0 2.56 1.63 0 0 11.24 -1.63 0 0 2.56zm24.38 -1.56c0,1.1 0.46,1.56 1.57,1.56l7.21 0c1.11,0 1.57,-0.46 1.57,-1.56l0 -2.49 -2.75 0 0 0.99c0,0.32 -0.18,0.5 -0.5,0.5l-3.58 0c-0.32,0 -0.5,-0.18 -0.5,-0.5l0 -11.74c0,-1.08 -0.46,-1.56 -1.57,-1.56l-2.95 0 0 2.56 0.99 0c0.32,0 0.51,0.18 0.51,0.5l0 11.74zm26.55 1.56l6.13 0 0 -2.56 -1.64 0 0 -11.24 1.64 0 0 -2.56 -6.13 0 0 2.56 1.63 0 0 11.24 -1.63 0 0 2.56zm24.38 -1.56c0,1.1 0.46,1.56 1.57,1.56l3.59 0c5.05,0 8.35,-3.04 8.35,-8.2 0,-5.17 -3.3,-8.16 -8.35,-8.16l-6.66 0 0 2.56 1.5 0 0 12.24zm3.02 -1.5l0 -10.74 1.98 0c3.23,0 5.37,1.95 5.37,5.6 0,3.68 -2.09,5.64 -5.37,5.64l-1.47 0c-0.33,0 -0.51,-0.18 -0.51,-0.5zm26.23 3.06l1.82 0c1.15,0 1.54,-0.3 1.91,-1.33l1.02 -2.86 5.53 0 1.01 2.86c0.37,1.03 0.79,1.33 1.94,1.33l1.8 0 0 -2.56 -0.37 0c-0.39,0 -0.58,-0.09 -0.72,-0.5l-4.84 -13.3 -3.16 0 -4.86 13.3c-0.14,0.41 -0.32,0.5 -0.71,0.5l-0.37 0 0 2.56zm5.44 -6.68l1.4 -4.1c0.3,-0.9 0.65,-2.45 0.65,-2.45l0.04 0c0,0 0.35,1.55 0.65,2.45l1.41 4.1 -4.15 0zm27.22 5.12c0,1.1 0.46,1.56 1.56,1.56l3.6 0c5.05,0 8.34,-3.04 8.34,-8.2 0,-5.17 -3.29,-8.16 -8.34,-8.16l-6.66 0 0 2.56 1.5 0 0 12.24zm3.02 -1.5l0 -10.74 1.98 0c3.22,0 5.37,1.95 5.37,5.6 0,3.68 -2.1,5.64 -5.37,5.64l-1.48 0c-0.32,0 -0.5,-0.18 -0.5,-0.5zm28.55 1.5c0,1.1 0.46,1.56 1.57,1.56l7.42 0c1.08,0 1.57,-0.46 1.57,-1.56l0 -2.49 -2.75 0 0 0.99c0,0.32 -0.18,0.5 -0.5,0.5l-3.78 0c-0.33,0 -0.51,-0.18 -0.51,-0.5l0 -3.9 5.3 0 0 -2.56 -5.3 0 0 -4.28 3.69 0c0.32,0 0.5,0.18 0.5,0.5l0 0.99 2.75 0 0 -2.49c0,-1.08 -0.49,-1.56 -1.57,-1.56l-9.89 0 0 2.56 1.5 0 0 12.24zm40.63 0c0,1.1 0.46,1.56 1.57,1.56l3.6 0c5.05,0 8.34,-3.04 8.34,-8.2 0,-5.17 -3.29,-8.16 -8.34,-8.16l-6.66 0 0 2.56 1.49 0 0 12.24zm3.02 -1.5l0 -10.74 1.99 0c3.22,0 5.37,1.95 5.37,5.6 0,3.68 -2.1,5.64 -5.37,5.64l-1.48 0c-0.32,0 -0.51,-0.18 -0.51,-0.5zm27.15 3.06l6.13 0 0 -2.56 -1.63 0 0 -11.24 1.63 0 0 -2.56 -6.13 0 0 2.56 1.64 0 0 11.24 -1.64 0 0 2.56zm22.82 -8.27c0,5.28 3.66,8.55 7.95,8.55 3.07,0 4.82,-1.75 4.82,-1.75l0.04 0c0,0 -0.02,0.34 -0.02,0.69l0 0.78 2.58 0 0 -6.98c0,-1.08 -0.46,-1.55 -1.56,-1.55l-2.66 0 0 2.56 1 0c0.32,0 0.5,0.16 0.5,0.51l0 1.22c0,0 -1.54,1.71 -4.15,1.71 -2.92,0 -5.37,-2.19 -5.37,-5.77 0,-3.31 2.42,-5.55 5.26,-5.55 2.49,0 4.19,1.45 4.19,1.45l1.71 -2.17c0,0 -1.96,-2.07 -5.97,-2.07 -4.75,0 -8.32,3.67 -8.32,8.37zm32.36 8.27l6.13 0 0 -2.56 -1.64 0 0 -11.24 1.64 0 0 -2.56 -6.13 0 0 2.56 1.63 0 0 11.24 -1.63 0 0 2.56zm28.11 0l3.02 0 0 -13.8 2.52 0c0.32,0 0.5,0.18 0.5,0.5l0 0.99 2.65 0 0 -2.58c0,-1.08 -0.37,-1.47 -1.47,-1.47l-11.41 0c-1.11,0 -1.48,0.39 -1.48,1.47l0 2.58 2.65 0 0 -0.99c0,-0.32 0.19,-0.5 0.51,-0.5l2.51 0 0 13.8zm22.4 0l1.83 0c1.15,0 1.54,-0.3 1.91,-1.33l1.01 -2.86 5.54 0 1.01 2.86c0.37,1.03 0.78,1.33 1.94,1.33l1.79 0 0 -2.56 -0.37 0c-0.39,0 -0.57,-0.09 -0.71,-0.5l-4.84 -13.3 -3.16 0 -4.86 13.3c-0.14,0.41 -0.32,0.5 -0.72,0.5l-0.37 0 0 2.56zm5.44 -6.68l1.41 -4.1c0.3,-0.9 0.65,-2.45 0.65,-2.45l0.04 0c0,0 0.35,1.55 0.65,2.45l1.4 4.1 -4.15 0zm27.22 5.12c0,1.1 0.46,1.56 1.57,1.56l7.21 0c1.11,0 1.57,-0.46 1.57,-1.56l0 -2.49 -2.74 0 0 0.99c0,0.32 -0.19,0.5 -0.51,0.5l-3.57 0c-0.32,0 -0.51,-0.18 -0.51,-0.5l0 -11.74c0,-1.08 -0.46,-1.56 -1.57,-1.56l-2.95 0 0 2.56 1 0c0.32,0 0.5,0.18 0.5,0.5l0 11.74z"/>
   <path fill="url(#id0)" d="M152.22 36.8c4.9,0 9.73,0.29 14.48,0.86l-20.49 15.04c-26.94,1.51 -51.21,13.05 -69.11,30.95 -13.02,13.02 -22.68,29.41 -27.55,47.75l107.46 -78.76 0 0 18.56 -13.6 28.48 -20.88 47.21 26.31 -24.41 17.83 0.01 0.01 -13.22 9.77 -0.09 -0.07 -162.65 118.78 0.01 0.03 -13.05 10.42c-4.92,-13.23 -7.61,-27.54 -7.61,-42.48 0,-67.36 54.61,-121.96 121.97,-121.96zm12.8 89.42l35.9 20.04 -121.94 89.45 0.07 0.07 -12.74 9.55c-8.91,-8.85 -16.46,-19.06 -22.32,-30.29l7.26 -5.36 -0.02 -0.04 113.79 -83.42zm-74.19 119.25l181.76 -133.13 47.09 26.13 -46.24 33.72 0 0 -18.42 13.44 0 0 -108.59 79.2c1.92,0.11 3.85,0.16 5.79,0.16 29.33,0 55.89,-11.89 75.12,-31.11 10.43,-10.44 18.71,-23.04 24.09,-37.07l20.56 -14.93c-10.81,56.3 -60.32,98.85 -119.77,98.85 -28.15,0 -54.07,-9.55 -74.71,-25.56l13.3 -9.71 0.02 0.01zm160.22 -125.72c-5.39,-13.65 -13.52,-25.91 -23.71,-36.1 -2.45,-2.45 -5.02,-4.78 -7.7,-6.99l12.97 -9.6c13.4,11.74 24.19,26.38 31.43,42.93l-12.99 9.76z"/>
   <rect fill="none" width="998.12" height="298.89"/>
  </g>
 </g>
</svg>
