<?xml version="1.0" encoding="UTF-8"?>
<!DOCTYPE svg PUBLIC "-//W3C//DTD SVG 1.1//EN" "http://www.w3.org/Graphics/SVG/1.1/DTD/svg11.dtd">
<!-- Creator: CorelDRAW 2018 (64 Bit Versão de avaliação) -->
<svg xmlns="http://www.w3.org/2000/svg" xml:space="preserve" width="644px" height="909px" version="1.1" style="shape-rendering:geometricPrecision; text-rendering:geometricPrecision; image-rendering:optimizeQuality; fill-rule:evenodd; clip-rule:evenodd"
viewBox="0 0 670.72 945.97"
 xmlns:xlink="http://www.w3.org/1999/xlink">
 <defs>
  <style type="text/css">
   <![CDATA[
    .fil7 {fill:#690004;fill-rule:nonzero}
    .fil0 {fill:#A3060C;fill-rule:nonzero}
    .fil2 {fill:#BBCAD6;fill-rule:nonzero}
    .fil1 {fill:#C7181E;fill-rule:nonzero}
    .fil4 {fill:#EB4011;fill-rule:nonzero}
    .fil9 {fill:#F03940;fill-rule:nonzero}
    .fil3 {fill:#FC9846;fill-rule:nonzero}
    .fil6 {fill:#FFE1B8;fill-rule:nonzero}
    .fil5 {fill:#FFE1B8;fill-rule:nonzero}
    .fil8 {fill:black;fill-rule:nonzero;fill-opacity:0.168627}
   ]]>
  </style>
 </defs>
 <g id="Camada_x0020_1">
  <metadata id="CorelCorpID_0Corel-Layer"/>
  <g id="_2559125214480">
   <path class="fil0" d="M393.3 420.68c-1.27,-1.47 2.01,-105.67 2.01,-105.67l99.99 -86.02 -7.88 121.11 -94.12 70.58z"/>
   <path class="fil1" d="M423.85 380.93c20.94,-16.14 74.7,-54.63 107.15,-57.22 -7.41,31.7 -53.49,79.11 -72.58,97.41 -6.74,6.45 -13.9,11.97 -21.1,16.38l-60.01 36.7c-9.77,0.53 -20.05,-11.42 -18.07,-21l45.26 -53.85c5.43,-6.46 11.95,-12.72 19.35,-18.42z"/>
   <path class="fil2" d="M394.14 355.4l0.02 -0.75c-0.01,0.24 -0.01,0.5 -0.02,0.75zm96.74 -58.53l0.48 -7.32 0 0 -0.48 7.32z"/>
   <path class="fil0" d="M220.08 219.33c1.26,1.47 104.79,13.79 104.79,13.79l99.98 -86.01 -120.92 -10.3 -83.85 82.52z"/>
   <path class="fil1" d="M263.95 195.06c19.09,-18.3 65.17,-65.71 72.58,-97.4 -32.45,2.59 -86.21,41.07 -107.15,57.22 -7.39,5.69 -13.92,11.95 -19.35,18.42l-45.26 53.85c-1.98,9.58 8.3,21.53 18.07,21l60.01 -36.71c7.2,-4.4 14.36,-9.92 21.1,-16.38z"/>
   <path class="fil2" d="M285.5 228.34l-0.81 -0.1c0.27,0.03 0.54,0.07 0.81,0.1l0 0zm78.89 -86.38l-7.31 -0.63 0 0 7.31 0.63z"/>
   <polygon class="fil0" points="250.13,302.06 306.66,367.77 322.6,354.05 266.08,288.34 "/>
   <polygon class="fil1" points="230.18,308.54 298.02,387.4 309.86,368.91 250.23,299.59 "/>
   <path class="fil3" d="M435.96 68c48.68,-32.65 104.81,-54.47 162.49,-64.58 21.97,-3.85 52.11,-4.97 72.08,-0.63 1.32,20.4 -4.3,50.03 -11.39,71.18 -18.61,55.52 -48.56,107.76 -88.13,151.02 -42.07,46 -96.35,75.47 -146.34,111.59 -24.57,17.74 -49.14,35.49 -73.7,53.23l-55.43 -64.42 -55.43 -64.43c21.22,-21.64 42.44,-43.28 63.66,-64.92 43.17,-44.04 80.42,-93.31 132.19,-128.04z"/>
   <path class="fil0" d="M220.69 306.76l76.93 89.42c0.78,0.91 2.16,1.02 3.07,0.23l2.33 -2c0.91,-0.79 1.01,-2.16 0.23,-3.08l-76.93 -89.42c-0.78,-0.91 -2.16,-1.02 -3.08,-0.23l-2.32 2c-0.92,0.78 -1.02,2.16 -0.23,3.08z"/>
   <polygon class="fil4" points="351.38,390.29 240.52,261.43 271.96,229.23 386.02,363.99 "/>
   <path class="fil4" d="M182.81 349.28c4.22,-2.7 8.71,-4.9 13.48,-6.41 14.99,-4.72 31.55,-3.26 43.26,6.07 0.22,0.16 0.45,0.31 0.66,0.48 10.08,7.58 17.69,17.66 21.71,29.35 0.93,2.38 1.63,4.86 2.03,7.45 0.89,4.43 1.29,9.03 1.13,13.75 -0.17,5.1 -1.07,10.28 -3.22,15.11 -2.12,4.77 -5.39,9.06 -8.97,12.97 -12.41,13.59 -28.15,22.99 -43.85,30.24 -7.73,3.56 -15.52,6.64 -23.21,9.58 -3.84,1.46 -7.74,2.78 -11.47,4.33 -1.41,0.58 -8.68,3 -8.95,4.04 0,0 1.84,-7.02 3.52,-21.64 -15.26,7.01 -29.3,12.87 -47.75,18.01 0,0 12.36,-24.53 23.89,-42.52 -9.4,1.38 -24.05,5.97 -34.9,10.05 1.07,-0.4 2.7,-4.11 3.34,-5.05 9.4,-13.92 19.39,-28.23 30.17,-42.8 10.97,-14.81 22.23,-32.21 39.13,-43.01z"/>
   <path class="fil5" d="M198.14 364.31c2.4,-1.52 4.96,-2.76 7.67,-3.6 8.51,-2.64 17.9,-1.78 24.54,3.52 0.13,0.09 0.25,0.18 0.38,0.27 5.71,4.31 10.02,10.03 12.32,16.66 0.53,1.35 0.93,2.75 1.16,4.22 0.51,2.51 0.75,5.12 0.67,7.8 -0.09,2.9 -0.59,5.84 -1.8,8.59 -1.19,2.71 -3.04,5.15 -5.06,7.38 -7.03,7.76 -15.97,13.15 -24.92,17.31 -4.41,2.06 -8.87,3.84 -13.27,5.54 -2.2,0.85 -4.43,1.61 -6.57,2.51 -0.81,0.34 -4.98,1.74 -5.14,2.34 0,0 1.06,-4.04 2.04,-12.44 -8.77,4.05 -16.85,7.44 -27.49,10.44 0,0 7.17,-14.13 13.82,-24.46 -4.51,0.66 -11.17,2.62 -16.88,4.63 -1,0.35 -1.89,-0.83 -1.3,-1.72l0.02 -0.02c5.44,-8 11.21,-16.2 17.41,-24.52 6.3,-8.45 12.75,-18.34 22.4,-24.45z"/>
   <path class="fil5" d="M458.64 98.55c-26.05,22.41 -29,61.69 -6.59,87.73 22.4,26.05 61.69,29 87.73,6.59 26.05,-22.4 29,-61.68 6.59,-87.73 -22.41,-26.05 -61.69,-29 -87.73,-6.59z"/>
   <path class="fil0" d="M461.38 101.74c-24.24,20.86 -27,57.55 -6.14,81.8 20.86,24.25 57.55,27 81.8,6.14 24.24,-20.85 27,-57.55 6.14,-81.8 -20.86,-24.24 -57.55,-26.99 -81.8,-6.14zm-5.49 -6.38c27.77,-23.88 69.79,-20.73 93.67,7.04 23.89,27.76 20.73,69.78 -7.03,93.66 -27.77,23.89 -69.79,20.73 -93.67,-7.03 -23.89,-27.77 -20.73,-69.78 7.03,-93.67z"/>
   <path class="fil6" d="M31.82 772.06c-0.08,3.92 -0.17,7.83 -0.26,11.75 13.29,1.98 26.99,2.84 40.71,2.56 -2.36,-5.44 -0.11,-12.96 -9.43,-14.03 -3.02,-0.35 -31.03,0.49 -31.02,-0.28z"/>
   <path class="fil7" d="M32.16 788.97c-1.17,1.6 -3.14,2.64 -5.39,2.84 -1.3,0.12 -2.71,-0.02 -3.91,0.34 -1.18,0.35 -2.05,1.15 -2.88,1.93 -4.38,4.11 -15.12,17.59 -19.44,2.57 -3.93,-13.63 14.69,-26.48 23.84,-33.15 0.61,-0.44 1.26,-0.89 2.09,-0.92 0.9,-0.05 1.83,0.39 2.7,0.82 4.82,2.42 12.21,6 9.27,11.34 -1.25,2.28 -4.12,3.48 -5.3,6.01 -0.97,2.07 0.08,6.79 -0.98,8.22z"/>
   <path class="fil3" d="M214.92 675.26c-15.57,15.31 -22.06,35.3 -35.99,51.97 -26.94,32.22 -129.44,39.36 -129.44,39.36 0,0 2.11,22.76 3.9,25.15 24.47,5.31 105.89,12.98 141.93,-9.83 35.2,-22.28 69.43,-46.14 102.53,-71.48 6.08,-4.66 12.67,-10.26 13.53,-17.36 0.66,-5.45 -2.3,-10.24 -5.36,-14.44 -8.16,-11.25 -21.94,-32.82 -38.1,-33.57 -17.65,-0.83 -41.05,18.44 -53,30.2z"/>
   <path class="fil6" d="M121.29 905.66c1.97,3.38 3.94,6.77 5.91,10.15 12.36,-5.25 24.5,-11.68 36.05,-19.08 -4.85,-3.41 -6.86,-11 -15.37,-7.04 -2.76,1.28 -26.2,16.64 -26.59,15.97z"/>
   <path class="fil8" d="M214.88 716.04c-4.23,18.36 -1.23,36.07 -1.69,54.37 28.93,-18.93 57.19,-38.95 84.66,-59.98 3.36,-2.58 6.87,-5.44 9.49,-8.68l0.47 -1.28c1.38,-3.79 2.75,-7.87 3.35,-11.85 -0.79,-3.65 -2.94,-6.97 -5.14,-9.99 -2.1,-2.89 -4.57,-6.47 -7.36,-10.2 -0.5,-0.21 -1,-0.41 -1.5,-0.61 -13.53,-5.33 -37.8,-16.63 -52.48,-8.22 -16.04,9.2 -25.86,39.34 -29.8,56.44z"/>
   <path class="fil7" d="M130.65 921.41c-0.38,1.93 -1.71,3.71 -3.65,4.86 -1.13,0.68 -2.46,1.15 -3.4,1.99 -0.91,0.83 -1.35,1.92 -1.77,2.98 -2.19,5.59 -6.1,22.38 -16.45,10.67 -9.4,-10.62 1.9,-30.22 7.3,-40.18 0.36,-0.65 0.76,-1.34 1.49,-1.73 0.79,-0.42 1.82,-0.43 2.79,-0.41 5.39,0.11 13.61,0.18 13.24,6.26 -0.15,2.59 -2.22,4.91 -2.2,7.7 0.01,2.29 2.98,6.1 2.65,7.86z"/>
   <path class="fil3" d="M226.56 719.2c-5.13,22.25 0.38,43.54 -2.55,66.07 -5.67,43.56 -92.1,107.45 -92.1,107.45 0,0 14.65,18.89 17.58,20 24.57,-9.06 100.72,-48.04 119.7,-88.42 18.54,-39.43 35.34,-79.72 50.3,-120.67 2.75,-7.52 5.42,-16.17 2.19,-22.92 -2.48,-5.18 -7.78,-7.74 -12.84,-9.73 -13.52,-5.33 -37.8,-16.63 -52.48,-8.22 -16.04,9.2 -25.86,39.34 -29.8,56.44z"/>
   <path class="fil6" d="M332.35 519.45c-6.19,-0.23 -12.38,-0.47 -18.57,-0.7 -0.37,-4.93 -0.33,-9.88 0.09,-14.81 -5.24,-1.49 -11.33,-3.83 -12.55,-9.13 -0.39,-1.68 -0.2,-3.42 -0.02,-5.13 0.78,-7.05 -15.65,-26.57 -14.87,-33.62 0.27,-2.43 17.77,7.52 18.95,5.37 2.08,-3.77 6.45,-5.63 10.64,-6.62 10.69,-2.54 22.61,-0.92 31.42,5.64 2.34,1.75 4.5,3.89 5.65,6.57 1.77,4.15 0.93,8.89 0.05,13.31 -0.81,4.08 -1.61,8.17 -2.42,12.25 -0.93,4.69 -2.36,10.05 -6.71,12.06 -2.3,1.06 -5.11,0.96 -7.17,2.46 -3.62,2.63 -2.77,8.21 -4.49,12.35z"/>
   <path class="fil9" d="M390.44 446.04c0.95,-1.8 1.99,-3.55 3.17,-5.21 2.56,-3.59 5.8,-6.72 7.79,-10.65 2,-3.93 2.47,-9.12 -0.42,-12.44 -1.87,-2.15 -4.74,-3.1 -7.51,-3.74 -9.13,-2.09 -18.82,-1.67 -27.75,1.19 -8.49,2.73 -16,6.84 -24.88,4.13 -8.36,-2.55 -14.18,-0.95 -22.52,2.62 -9.03,3.87 -21.38,5.4 -29.46,10.57 -3.37,2.16 -5.97,5.36 -7.93,8.85 -6.81,12.08 -5.87,28.1 2.31,39.29 1.83,2.52 3.98,4.78 6.23,6.94 4.64,4.45 10.21,9.97 16.31,11.35 -0.18,-5.37 -6.1,-21.97 -2.26,-26.62 6.11,-7.37 21.03,-5.85 29.24,-4.63 8.96,1.33 17.22,7.11 26.07,7.91 6.37,0.58 14.23,-3.01 19.39,-6.6 6.37,-4.43 8.73,-16.36 12.22,-22.96z"/>
   <path class="fil0" d="M296.99 516.28c-36.38,13.86 -53.67,68.43 -71.49,99.93 -12.2,21.55 -28.67,45.83 -53.43,46.59 -15.99,0.48 -30.25,-9.42 -42.84,-19.3 3.43,19.52 8.78,41.76 26.46,50.73 13.05,6.62 29.02,3.7 42.84,8.5 14.92,5.16 26.92,19.08 42.7,19.3 11.97,0.16 22.58,-7.81 34.42,-9.63 18.3,-2.81 35.15,9.15 50.59,19.37 4.49,2.98 9.72,5.98 14.96,4.73 6.73,-1.59 9.93,-9.24 11.27,-16.03 6.09,-30.96 -5.11,-61.4 -7.72,-92.05 -2.35,-27.51 12.27,-51.3 9.38,-79.25 -2.04,-19.67 -16.69,-34.24 -36.41,-35.92 -7.33,-0.63 -14.28,0.55 -20.73,3.03z"/>
   <path class="fil6" d="M405.43 397.51c-2.79,2.85 -5.58,5.71 -8.37,8.56 -0.86,0.89 -3.73,2.83 -2.56,4.37 0.57,0.75 2.3,3.46 4.17,6.06 0.78,2.6 1.66,5.17 2.21,7.84 1.4,6.73 -2.81,22.44 5.5,25.05 1.61,0.51 3.25,1.02 4.9,0.88 1.34,-0.11 2.61,-0.65 3.83,-1.24 0.95,-0.46 2.56,-0.95 2.9,-2 0.35,-1.1 -0.56,-3.95 -0.73,-5.17 -0.49,-3.45 -0.98,-6.91 -1.47,-10.37 -0.48,-3.39 -0.76,-7.42 1.59,-9.54 0.52,-0.46 1.13,-0.8 1.58,-1.34 0.51,-0.6 0.76,-1.42 0.98,-2.21 0.81,-2.92 1.42,-5.99 1.58,-9.07 0.15,-2.81 -1.58,-4.06 -3.19,-6.06 -1.9,-2.34 -2.12,-5.31 -3.94,-7.66 -1.03,-1.33 -2.6,-2.28 -4.12,-2.01 -1.23,0.23 -2.2,1.19 -3.1,2.11 -0.59,0.6 -1.18,1.2 -1.76,1.8z"/>
   <path class="fil0" d="M420.57 522.57c3.5,-6.47 5.45,-13.57 6.25,-22.24 1.98,-21.41 0.88,-43.31 -3.23,-64.63 -9.21,-1.41 -18.59,-0.8 -27.44,1.79 -0.31,17.74 -1.92,35.39 -4.79,52.74 -1.41,8.49 -3.97,15.71 -11.4,19.54 -16.56,8.53 -33.75,15.67 -51.39,21.33 -3.9,1.25 -7.9,2.47 -11.16,5.07 -5.99,4.76 -8.48,13.74 -7.15,21.95 1.33,8.21 6.04,15.59 11.98,20.96 4.26,3.85 9.38,6.87 14.79,7.14 5.58,0.28 10.81,-2.36 15.69,-5.11 21.8,-12.29 41.84,-28.13 59.3,-46.88 3.53,-3.79 6.35,-7.6 8.55,-11.66z"/>
  </g>
 </g>
</svg>
