<?xml version="1.0" encoding="UTF-8"?>
<!DOCTYPE svg PUBLIC "-//W3C//DTD SVG 1.1//EN" "http://www.w3.org/Graphics/SVG/1.1/DTD/svg11.dtd">
<!-- Creator: CorelDRAW 2018 (64 Bit Versão de avaliação) -->
<svg xmlns="http://www.w3.org/2000/svg" xml:space="preserve" width="180px" height="69px" version="1.1" shape-rendering="geometricPrecision" text-rendering="geometricPrecision" image-rendering="optimizeQuality" fill-rule="evenodd" clip-rule="evenodd"
viewBox="0 0 473.12 181.43"
 xmlns:xlink="http://www.w3.org/1999/xlink">
 <g id="Camada_x0020_1">
  <metadata id="CorelCorpID_0Corel-Layer"/>
  <path fill="#F41730" fill-rule="nonzero" d="M99.61 8.9l81.82 81.82 -90.71 90.71 -90.72 -90.71 90.72 -90.72 8.89 8.9zm46.24 81.82l-55.13 -55.13 -55.13 55.13 55.13 55.13 55.13 -55.13z"/>
  <path fill="#F41730" fill-rule="nonzero" d="M245.46 8.9l81.81 81.82 -90.71 90.71 -90.71 -90.71 90.71 -90.72 8.9 8.9zm46.23 81.82l-55.13 -55.13 -55.13 55.13 55.13 55.13 55.13 -55.13z"/>
  <polygon fill="#F41730" fill-rule="nonzero" points="391.3,8.9 473.12,90.72 382.4,181.43 300.59,99.61 318.38,81.82 382.4,145.85 437.53,90.72 373.51,26.69 "/>
 </g>
</svg>
