<?xml version="1.0" encoding="UTF-8"?>
<!DOCTYPE svg PUBLIC "-//W3C//DTD SVG 1.1//EN" "http://www.w3.org/Graphics/SVG/1.1/DTD/svg11.dtd">
<!-- Creator: CorelDRAW 2018 (64 Bit Versão de avaliação) -->
<svg xmlns="http://www.w3.org/2000/svg" xml:space="preserve" width="227px" height="21px" version="1.1" shape-rendering="geometricPrecision" text-rendering="geometricPrecision" image-rendering="optimizeQuality" fill-rule="evenodd" clip-rule="evenodd"
viewBox="0 0 209.18 19.65"
 xmlns:xlink="http://www.w3.org/1999/xlink">
 <g id="Camada_x0020_1">
  <metadata id="CorelCorpID_0Corel-Layer"/>
  <g id="_2745530125360">
   <path fill="#E6E6E6" fill-rule="nonzero" d="M10.79 0.96l8.86 8.86 -9.83 9.83 -9.82 -9.83 9.82 -9.82 0.97 0.96zm5 8.86l-5.97 -5.97 -5.97 5.97 5.97 5.97 5.97 -5.97z"/>
   <path fill="#E6E6E6" fill-rule="nonzero" d="M26.58 0.96l8.86 8.86 -9.82 9.83 -9.83 -9.83 9.83 -9.82 0.96 0.96zm5.01 8.86l-5.97 -5.97 -5.97 5.97 5.97 5.97 5.97 -5.97z"/>
   <polygon fill="#E6E6E6" fill-rule="nonzero" points="168.73,0.96 177.59,9.82 167.76,19.65 158.9,10.79 160.83,8.86 167.76,15.79 173.73,9.82 166.8,2.89 "/>
   <path fill="red" fill-rule="nonzero" d="M121.35 0.96l8.86 8.86 -9.83 9.83 -9.82 -9.83 9.82 -9.82 0.97 0.96zm5 8.86l-5.97 -5.97 -5.97 5.97 5.97 5.97 5.97 -5.97z"/>
   <path fill="red" fill-rule="nonzero" d="M137.14 0.96l8.86 8.86 -9.82 9.83 -9.83 -9.83 9.83 -9.82 0.96 0.96zm5.01 8.86l-5.97 -5.97 -5.97 5.97 5.97 5.97 5.97 -5.97z"/>
   <polygon fill="red" fill-rule="nonzero" points="152.93,0.96 161.79,9.82 151.97,19.65 143.11,10.79 145.04,8.86 151.97,15.79 157.94,9.82 151.01,2.89 "/>
   <path fill="red" fill-rule="nonzero" d="M105.55 0.96l8.86 8.86 -9.82 9.83 -9.83 -9.83 9.83 -9.82 0.96 0.96zm5.01 8.86l-5.97 -5.97 -5.97 5.97 5.97 5.97 5.97 -5.97z"/>
   <path fill="red" fill-rule="nonzero" d="M89.76 0.96l8.86 8.86 -9.83 9.83 -9.82 -9.83 9.82 -9.82 0.97 0.96zm5 8.86l-5.97 -5.97 -5.97 5.97 5.97 5.97 5.97 -5.97z"/>
   <path fill="red" fill-rule="nonzero" d="M73.96 0.96l8.86 8.86 -9.82 9.83 -9.82 -9.83 9.82 -9.82 0.96 0.96zm5.01 8.86l-5.97 -5.97 -5.97 5.97 5.97 5.97 5.97 -5.97z"/>
   <path fill="red" fill-rule="nonzero" d="M58.17 0.96l8.86 8.86 -9.82 9.83 -9.83 -9.83 9.83 -9.82 0.96 0.96zm5.01 8.86l-5.97 -5.97 -5.97 5.97 5.97 5.97 5.97 -5.97z"/>
   <polygon fill="red" fill-rule="nonzero" points="40.45,16.76 47.38,9.82 41.41,3.85 34.48,10.79 32.55,8.86 41.41,0 51.24,9.82 42.38,18.68 "/>
   <path fill="#E6E6E6" fill-rule="nonzero" d="M184.52 0.96l8.86 8.86 -9.82 9.83 -9.83 -9.83 9.83 -9.82 0.96 0.96zm5.01 8.86l-5.97 -5.97 -5.97 5.97 5.97 5.97 5.97 -5.97z"/>
   <path fill="#E6E6E6" fill-rule="nonzero" d="M200.32 0.96l8.86 8.86 -9.83 9.83 -9.82 -9.83 9.82 -9.82 0.97 0.96zm5 8.86l-5.97 -5.97 -5.97 5.97 5.97 5.97 5.97 -5.97z"/>
  </g>
 </g>
</svg>
