<?xml version="1.0" encoding="UTF-8"?>
<!DOCTYPE svg PUBLIC "-//W3C//DTD SVG 1.1//EN" "http://www.w3.org/Graphics/SVG/1.1/DTD/svg11.dtd">
<!-- Creator: CorelDRAW 2018 (64 Bit Versão de avaliação) -->
<svg xmlns="http://www.w3.org/2000/svg" xml:space="preserve" width="606px" height="975px" version="1.1" style="shape-rendering:geometricPrecision; text-rendering:geometricPrecision; image-rendering:optimizeQuality; fill-rule:evenodd; clip-rule:evenodd"
viewBox="0 0 368.97 593.3"
 xmlns:xlink="http://www.w3.org/1999/xlink">
 <defs>
  <style type="text/css">
   <![CDATA[
    .fil17 {fill:#F599A1;fill-rule:nonzero}
    .fil26 {fill:#F27135;fill-rule:nonzero}
    .fil27 {fill:#EF4E36;fill-rule:nonzero}
    .fil28 {fill:#EF4937;fill-rule:nonzero}
    .fil11 {fill:#EA344E;fill-rule:nonzero}
    .fil6 {fill:#DE3344;fill-rule:nonzero}
    .fil8 {fill:#D9343F;fill-rule:nonzero}
    .fil20 {fill:#D73761;fill-rule:nonzero}
    .fil25 {fill:#E1C2B2;fill-rule:nonzero}
    .fil19 {fill:#D1A1B2;fill-rule:nonzero}
    .fil29 {fill:#C2344D;fill-rule:nonzero}
    .fil30 {fill:#A8334D;fill-rule:nonzero}
    .fil18 {fill:#93C1E7;fill-rule:nonzero}
    .fil23 {fill:#9A758E;fill-rule:nonzero}
    .fil7 {fill:#9889BA;fill-rule:nonzero}
    .fil22 {fill:#789FD3;fill-rule:nonzero}
    .fil9 {fill:#7D7BB9;fill-rule:nonzero}
    .fil5 {fill:#786198;fill-rule:nonzero}
    .fil10 {fill:#724672;fill-rule:nonzero}
    .fil24 {fill:#6881B7;fill-rule:nonzero}
    .fil21 {fill:#5D70AA;fill-rule:nonzero}
    .fil12 {fill:#690004;fill-rule:nonzero}
    .fil3 {fill:#A3060C;fill-rule:nonzero}
    .fil1 {fill:#A3060C;fill-rule:nonzero}
    .fil14 {fill:#C7181E;fill-rule:nonzero}
    .fil16 {fill:#E07620;fill-rule:nonzero}
    .fil4 {fill:#F03940;fill-rule:nonzero}
    .fil15 {fill:#F03940;fill-rule:nonzero}
    .fil13 {fill:#FC9846;fill-rule:nonzero}
    .fil0 {fill:#FFD79E;fill-rule:nonzero}
    .fil2 {fill:#FFE1B8;fill-rule:nonzero}
   ]]>
  </style>
 </defs>
 <g id="Camada_x0020_1">
  <metadata id="CorelCorpID_0Corel-Layer"/>
  <g id="_2559125215728">
   <path class="fil0" d="M149.04 359.3l0 -0.24c-0.24,-11.34 -10.8,-20.67 -23.86,-21.04 -4.53,-0.14 -8.8,0.79 -12.5,2.52 -6.85,-8.42 -18.14,-13.92 -30.92,-13.92 -14.36,0 -26.86,6.95 -33.26,17.19 -2.64,-1.11 -5.6,-1.74 -8.74,-1.74 -6.65,0 -12.53,2.82 -16.18,7.15 -2.65,-1.73 -5.99,-2.7 -9.6,-2.55 -7.47,0.33 -13.56,5.59 -13.96,12.07l-0.01 0.19c-0.23,4.88 4.33,8.94 9.96,8.94l129.22 0c5.45,0 9.89,-3.84 9.85,-8.57z"/>
   <polygon class="fil1" points="107.37,352.36 116.68,467.61 119.01,467.42 109.7,352.18 "/>
   <path class="fil2" d="M68.43 392.6c0,0 1.3,8.37 2.86,10.48 1.56,2.12 7.4,6.34 7.4,6.34l4.35 -6.12 -4.74 -11.25 -9.87 0.55z"/>
   <path class="fil3" d="M48.3 404.45l-0.06 0 -0.01 0 -0.01 0 -0.07 -0.02 0 0 -0.06 -0.01 -0.01 -0.01 -0.02 -0.01c-0.04,-0.01 -0.08,-0.03 -0.12,-0.05l0 0 -0.07 -0.05 -0.01 0 -0.01 -0.01 -0.06 -0.04 -0.02 -0.03 -0.03 -0.02 -0.02 -0.01 -0.01 -0.02c-0.04,-0.03 -0.08,-0.07 -0.11,-0.12l-0.01 0 0 -0.01 -0.02 -0.02 -0.03 -0.04 -0.02 -0.02 -0.01 -0.01 -0.03 -0.04 -0.03 -0.04 0 -0.01 -0.02 -0.03 -0.03 -0.04 -0.02 -0.02 -0.01 -0.02 -0.03 -0.05 -0.02 -0.04 0 0 -0.03 -0.05 -0.03 -0.04 -0.01 -0.02 -0.01 -0.03 -0.04 -0.08 -0.01 -0.01 -0.01 -0.01 -0.02 -0.05 -0.03 -0.06 -0.01 -0.01 -0.01 -0.04 -0.03 -0.05 -0.02 -0.05 -0.01 -0.01 -0.02 -0.06 -0.03 -0.06 0 -0.01 -0.06 -0.14 -0.01 -0.03 -0.03 -0.06 -0.02 -0.07 0 0 -0.03 -0.06 -0.02 -0.07 -0.01 -0.03 -0.02 -0.03 -0.04 -0.13 0 0 0 -0.01 -0.03 -0.07 -0.02 -0.07 -0.01 -0.03 -0.01 -0.05 -0.03 -0.07 -0.01 -0.06 -0.01 -0.01 -0.07 -0.23 0 0c-0.68,-2.39 -1.13,-6.16 -1.13,-10.39 0,-4.32 0.46,-8.14 1.17,-10.51l0 0 0.02 -0.08 0.02 -0.05 0 -0.02 0.03 -0.07 0.02 -0.07 0 -0.02 0.02 -0.05 0.02 -0.07 0.02 -0.05 0.01 -0.02 0.02 -0.07 0.02 -0.07 0.01 -0.01 0.02 -0.05 0.02 -0.07 0.02 -0.04 0.01 -0.02 0.02 -0.06 0.02 -0.06 0.01 -0.01 0.02 -0.05 0.02 -0.06 0.02 -0.04 0.01 -0.02 0.02 -0.06 0.03 -0.05 0 -0.01 0.02 -0.05 0.03 -0.05 0.01 -0.03 0.01 -0.02 0.03 -0.05 0.02 -0.05 0.01 -0.01 0.02 -0.04 0.03 -0.05 0.01 -0.03 0.01 -0.02 0.03 -0.05 0.02 -0.04 0.01 0 0 -0.01 0.05 -0.08 0.01 -0.02 0.01 -0.02 0.03 -0.04 0.03 -0.04 0 0 0.01 -0.01 0.04 -0.06 0.02 -0.02 0.01 -0.02 0.03 -0.03 0.02 -0.03 0.01 -0.01 0.02 -0.02 0.03 -0.04 0.01 -0.01 0.07 -0.07 0 0 0.01 0 0.05 -0.05 0.01 -0.01 0.02 -0.01 0.05 -0.05 0 0 0.03 -0.01 0.03 -0.02 0.02 -0.01 0.07 -0.04 0 0 0.05 -0.02 0.02 -0.01 0 0 0.07 -0.02 0.06 -0.01 0.02 0 0.01 0 0.06 -0.01 0.07 0.01 0.01 0c0.03,0 0.06,0.01 0.09,0.02l-0.01 0c1.51,0.38 2.7,6.06 2.7,13.02 0,6.93 -1.19,12.61 -2.69,13.02l-0.01 0 -0.01 0 0 0 -0.01 0 -0.07 0.02 0 0 -0.05 0 -0.01 0 -0.01 0 0 0z"/>
   <path class="fil4" d="M120.74 391.41l0.21 -0.64 -0.41 0 -0.84 -2.64 -71.4 -9.77c0,0 2.26,5.09 2.18,12.41l-0.04 0c0.01,0.21 0.01,0.42 0.02,0.64 -0.01,0.21 -0.01,0.42 -0.02,0.64l0.04 0c0.08,7.31 -2.18,12.4 -2.18,12.4l71.4 -9.77 0.84 -2.63 0.41 0 -0.21 -0.64z"/>
   <path class="fil5" d="M49.98 398.35c0.23,-1.38 0.41,-2.96 0.47,-4.68 0.01,0 0.01,0 0.01,0 -0.06,1.73 -0.25,3.3 -0.48,4.68l0 0z"/>
   <path class="fil6" d="M77.29 394.95c0,0 0.01,0 0.01,0 0,0 -0.01,0 -0.01,0zm-0.48 0c-0.01,0 -0.02,0 -0.03,0 0.01,0 0.02,0 0.03,0zm0.56 0c0,0 0,0 0,0 0,0 0,0 0,0zm0.06 0c0.02,0 0.03,0 0.05,0 -0.02,0 -0.03,0 -0.05,0zm-0.93 0c-0.01,0 -0.03,0 -0.04,0 0.01,0 0.03,0 0.04,0zm-0.09 0c-0.01,0 -0.02,0 -0.02,0 0,0 0.01,0 0.02,0zm1.19 0c0.01,0 0.01,0 0.02,0 -0.01,0 -0.01,0 -0.02,0zm0.16 0c0.01,0 0.02,0 0.04,0 -0.02,0 -0.03,0 -0.04,0zm-1.9 0c-0.02,0 -0.04,0 -0.06,0 0.02,0 0.04,0 0.06,0zm2.07 0c0.01,0 0.01,0 0.02,0 0,0 -0.01,0 -0.02,0zm-2.26 0c0,0 0,0 -0.01,0 0.01,0 0.01,0 0.01,0zm2.31 0l0 0zm0.11 0c0.01,0 0.01,0 0.02,0 -0.01,0 -0.01,0 -0.02,0zm-2.9 0c0,0 0,0 0,0 0,0 0,0 0,0zm3.23 0c0.01,0 0.01,0 0.02,0 -0.01,0 -0.01,0 -0.02,0zm0.27 0c0,0 0,0 0,0 0,0 0,0 0,0zm0.08 0c0,0 0.01,0 0.01,0 0,0 -0.01,0 -0.01,0zm0.05 0c0,0 0,0 0,0l0 0zm0.25 0c0.02,0 0.05,0 0.07,0 -0.02,0 -0.05,0 -0.07,0zm0.09 0c0,0 0,0 0,0 0,0 0,0 0,0zm0.66 -0.01c0,0 0.01,0 0.01,0 0,0 -0.01,0 -0.01,0zm0.05 0c0,0 0,0 0,0 0,0 0,0 0,0zm0.03 0c0.02,0 0.04,0 0.07,0 -0.03,0 -0.05,0 -0.07,0zm7.86 -0.11c0.01,0 0.03,0 0.05,0 -0.02,0 -0.04,0 -0.05,0zm0.06 0c0.01,0 0.01,0 0.01,0 0,0 0,0 -0.01,0zm0.36 -0.01c0.02,0 0.03,0 0.05,0 -0.02,0 -0.03,0 -0.05,0zm0.34 -0.01c0.09,0 0.17,0 0.26,0 -0.09,0 -0.17,0 -0.26,0zm0.27 0c0.03,0 0.05,0 0.08,0 -0.03,0 -0.05,0 -0.08,0zm0.14 0c0.24,-0.01 0.49,-0.01 0.73,-0.02 -0.24,0.01 -0.49,0.01 -0.73,0.02zm0.74 -0.02c12.07,-0.25 26.1,-0.71 29.67,-0.83l0 0c-3.59,0.12 -17.61,0.58 -29.67,0.83z"/>
   <path class="fil6" d="M50.72 393.82c-0.15,-0.06 -0.22,-0.11 -0.26,-0.15l0 0c0.03,0.04 0.11,0.09 0.26,0.15z"/>
   <path class="fil7" d="M63.19 402.41l0 0 7.29 -0.99 0 0 -7.29 0.99zm50.02 -6.84l0 0 6.49 -0.89 0.24 -0.74c0.18,0 0.27,-0.01 0.27,-0.01l-0.51 0.75 -6.49 0.89z"/>
   <path class="fil8" d="M48.3 404.44c0.03,-0.06 0.24,-0.55 0.52,-1.39l0 0c-0.28,0.84 -0.49,1.33 -0.52,1.39z"/>
   <path class="fil9" d="M48.82 403.05c0.35,-1.06 0.81,-2.67 1.16,-4.7l0 0c-0.35,2.03 -0.81,3.65 -1.16,4.7l0 0z"/>
   <path class="fil3" d="M48.3 404.45c0,0 0,0 0,-0.01 0.03,-0.06 0.24,-0.55 0.52,-1.39l0 0c0.35,-1.05 0.81,-2.67 1.16,-4.7l69.33 -3.66 0.57 -0.7c0,0 -0.2,-0.01 -0.54,-0.03 0.25,0 0.45,-0.01 0.6,-0.02l-0.24 0.74 -6.49 0.89 -2.32 0.32 -29.28 4 -11.13 1.53 -7.29 0.99 -14.89 2.04zm28.83 -9.5c-0.11,0 -0.21,0 -0.32,0 0.11,0 0.21,0 0.32,0zm0 0c0.06,0 0.11,0 0.16,0 -0.05,0 -0.1,0 -0.16,0zm0.17 0c0.02,0 0.04,0 0.07,0 -0.03,0 -0.05,0 -0.07,0zm-0.52 0c-0.1,0 -0.19,0 -0.28,0 0.09,0 0.18,0 0.28,0zm0.59 0c0.02,0 0.04,0 0.06,0 -0.02,0 -0.04,0 -0.06,0zm0.11 0c0.04,0 0.08,0 0.12,0 -0.04,0 -0.08,0 -0.12,0zm-1.02 0c-0.02,0 -0.04,0 -0.05,0 0.01,0 0.03,0 0.05,0zm-0.07 0c-0.18,0 -0.36,0 -0.53,0 0.17,0 0.35,0 0.53,0zm1.23 0c0.05,0 0.09,0 0.14,0 -0.05,0 -0.09,0 -0.14,0zm0.18 0c0.04,0 0.09,0 0.13,0 -0.04,0 -0.09,0 -0.13,0zm-2 0c-0.04,0 -0.08,0 -0.13,0 0.05,0 0.09,0 0.13,0zm2.15 0c0.01,0 0.02,0 0.03,0 -0.01,0 -0.02,0 -0.03,0zm0.03 0c0.03,0 0.07,0 0.11,0 -0.04,0 -0.08,0 -0.11,0zm-2.32 0c-0.15,0 -0.31,0 -0.47,0 0.16,0 0.32,0 0.47,0zm2.45 0c0.1,0 0.21,0 0.31,0 -0.1,0 -0.21,0 -0.31,0zm-2.92 0c-18.96,-0.04 -23.44,-0.74 -24.47,-1.13 1.03,0.39 5.52,1.09 24.47,1.13zm3.25 0c0.08,0 0.16,0 0.25,0 -0.09,0 -0.17,0 -0.25,0zm0.25 0c0.03,0 0.05,0 0.08,0 -0.03,0 -0.05,0 -0.08,0zm0.09 0c0.01,0 0.02,0 0.04,0 -0.02,0 -0.03,0 -0.04,0zm0.04 0c0.08,0 0.17,0 0.25,0 -0.08,0 -0.17,0 -0.25,0zm0.32 0c0,0 0.01,0 0.02,0 -0.01,0 -0.02,0 -0.02,0zm0.02 0c0.22,-0.01 0.44,-0.01 0.66,-0.01 -0.22,0 -0.44,0 -0.66,0.01zm0.67 -0.01c0.01,0 0.02,0 0.04,0 -0.02,0 -0.03,0 -0.04,0zm0.04 0c0.01,0 0.02,0 0.03,0 -0.01,0 -0.02,0 -0.03,0zm0.1 0c2.34,-0.02 4.99,-0.06 7.79,-0.11 -2.8,0.05 -5.45,0.09 -7.79,0.11zm7.84 -0.11c0,0 0.01,0 0.01,0 0,0 -0.01,0 -0.01,0zm0.02 0c0.12,-0.01 0.23,-0.01 0.35,-0.01 -0.12,0 -0.23,0 -0.35,0.01zm0.4 -0.01c0.1,0 0.19,0 0.29,-0.01 -0.1,0.01 -0.19,0.01 -0.29,0.01zm0.55 -0.01c0,0 0.01,0 0.01,0 0,0 -0.01,0 -0.01,0zm0.09 0c0.02,0 0.04,0 0.06,0 -0.02,0 -0.04,0 -0.06,0zm0.79 -0.02c0,0 0.01,0 0.01,0 0,0 -0.01,0 -0.01,0z"/>
   <path class="fil10" d="M49.98 398.35c0.23,-1.38 0.42,-2.95 0.48,-4.68l0 0c-0.06,1.73 -0.25,3.3 -0.48,4.68l0 0z"/>
   <path class="fil9" d="M50.46 393.67c0,0 0,0 -0.01,0 0,0 0,0 0,0 -0.05,-0.06 -0.01,-0.1 -0.01,-0.1l0 -1.52 0.04 0 0 0c0,0.13 0,0.25 0,0.38 0,0.42 -0.01,0.84 -0.02,1.24z"/>
   <path class="fil11" d="M50.48 392.43c0,-0.13 0,-0.25 0,-0.38 0,0.13 0,0.25 0,0.38z"/>
   <path class="fil10" d="M50.46 393.67c0,0 0,0 -0.01,0 0,0 0,0 0,0 0.01,0 0.01,0 0.01,0l0 0z"/>
   <path class="fil3" d="M121.29 391.31c0,2.44 -0.77,4.42 -1.72,4.42 -0.95,0 -0.16,-1.98 -0.16,-4.42 0,-2.44 -0.79,-4.42 0.16,-4.42 0.95,0 1.72,1.98 1.72,4.42z"/>
   <path class="fil2" d="M79.67 400.98c-0.1,-1.85 -2.93,-5.25 -0.98,-6.03 1.51,-0.6 3.3,1.87 3.96,3.4 0.67,1.52 0.39,3.3 0.39,4.95 0,1.64 2.34,3.52 2.34,3.52l-7.99 2.6 -0.65 -2.47c0,0 3.01,-4.31 2.93,-5.97z"/>
   <polygon class="fil1" points="242.41,353.35 228.81,456.74 231.13,457.04 244.72,353.65 "/>
   <path class="fil12" d="M262.5 459.13c0,2.53 -36.24,9.26 -81.23,9.26 -44.99,0 -81.46,-6.73 -81.46,-9.26 0,-2.53 36.47,-4.58 81.46,-4.58 44.99,0 81.23,2.05 81.23,4.58z"/>
   <path class="fil13" d="M130.72 422.15l-4.72 -10.55 -23.73 19.49 -16.63 -27.79 -11.6 5.47c0,0 12.15,36.8 24.59,40 0,0 9.54,-0.37 26.14,-7.87 16.6,-7.49 5.95,-18.75 5.95,-18.75z"/>
   <polygon class="fil1" points="130.92,354.48 133.26,459.51 135.59,459.46 133.26,354.43 "/>
   <path class="fil14" d="M142.01 412.1l6.04 -4.89c0,0 8.96,4.68 14.02,7.21l-1.55 19.09 3.7 37.8 -47.93 -2.73c0,0 6.24,-35.65 6.43,-40.91 0.2,-5.26 3.31,-14.79 3.31,-14.79l4.81 -4.71 7.6 1.96 3.57 1.97z"/>
   <polygon class="fil1" points="137.85,415.72 130.82,436.01 137.13,455.99 145.57,437.31 138.86,415.79 142.01,412.1 138.44,410.13 134.89,412.1 "/>
   <path class="fil13" d="M149.38 407.75l0.92 8.61 -3.28 15.9 -8.36 14.5 -9.12 -11.66 0 -24.71 1.3 -2.22 -5.59 3.93c0,0 -3.11,10.31 -3.31,15.57 -0.19,5.26 -5.65,40.91 -5.65,40.91l48.71 2.73 -3.7 -37.8 1.55 -19.87c-3.91,-1.96 -10.63,-4.73 -13.47,-5.89z"/>
   <path class="fil15" d="M149.28 407.6c0,0 0.72,6.71 -1.56,14.39 -2.27,7.67 -9.39,25.16 -9.39,25.16l14.43 -16.53 -1.6 -6.07 2.72 0c0,0 1.27,-12.17 -4.6,-16.95z"/>
   <path class="fil15" d="M131.34 407.29c0,0 -1.69,6.54 -0.57,14.46 1.04,7.32 1.04,6.71 8,25.26l-14.25 -17.45 2.48 -5.78 -2.69 -0.4c0,0 -0.73,-9.8 7.03,-16.09z"/>
   <polygon class="fil16" points="138.53,446.86 137.31,466.5 135.94,466.5 "/>
   <polygon class="fil1" points="264.5,353.81 242.87,467.39 245.17,467.83 266.8,354.25 "/>
   <path class="fil4" d="M181.16 480.81l0 4.23 -75.81 -9.27 0 86.65c0,13.27 9.85,24.47 23.01,26.16l20.24 2.59c21.62,2.78 43.5,2.84 65.14,0.19l20.06 -2.45c13.23,-1.62 23.17,-12.85 23.17,-26.18l0 -86.96 -75.81 5.04z"/>
   <path class="fil3" d="M181.93 593.3c-11.14,0 -22.27,-0.71 -33.33,-2.13l-20.24 -2.59c-13.16,-1.69 -23.01,-12.89 -23.01,-26.16l0 -2.14c0,0 9.04,16.31 61.57,16.31 5.23,0 10.91,-0.17 17.03,-0.52 28.36,-1.65 57.99,-36.36 61.98,-69.24l2.83 -14.58c-14.03,3.59 -36.29,5.51 -60.23,5.51 -29.23,0 -60.95,-2.86 -83.18,-9.05l0 -4.67c22.23,6.19 53.94,9.05 83.16,9.05 0.01,0 0.01,0 0.01,0l0 0c0.01,0 0,0 0.01,0 24.48,0 47.22,-2.01 61.18,-5.76 2.79,-0.75 5.23,-1.57 7.26,-2.46l0 4.67 0 73.19c0,13.33 -9.94,24.56 -23.17,26.18l-20.06 2.45c-10.57,1.3 -21.19,1.94 -31.81,1.94z"/>
   <path class="fil4" d="M99.81 458.45c0,0 85.09,13.09 161.44,0 0,0 16.91,10.91 0,24 -16.9,13.09 -111.81,14.96 -158.71,0.78 0,0 -16.36,-12.24 -2.73,-24.78z"/>
   <path class="fil0" d="M142.8 411.95l-4.36 -1.82 -0.11 0.06 0.03 -0.06 -3.51 1.47c-1.17,-0.25 -2.42,-0.59 -3.75,-1.05 0,0 1.04,-2.82 1.81,-6.13 0.02,0 0.03,0 0.05,0 2.82,-2.92 5.59,-1.46 8.01,-3.23 1.75,-1.49 3.3,-3.45 4.44,-5.79 -0.28,3.96 -0.22,6.84 0.73,6.92 -0.03,0.48 -0.04,0.98 -0.04,1.48 0,2.48 0.39,5.08 1.85,6.22 0,0 -1.69,1.38 -5.15,1.93z"/>
   <path class="fil2" d="M197.9 460.2c0,0 3.69,1.55 7.29,2.38 3.6,0.84 7.14,3.33 7.15,7.75 0.01,4.41 -7.29,1.93 -9.23,0 -1.93,-1.94 -3.72,-3.13 -3.72,-1.79 0,1.34 2.08,4.73 0.59,4.15 -1.48,-0.58 -3.72,-5.04 -4.01,-8.02 -0.3,-2.98 1.93,-4.47 1.93,-4.47z"/>
   <path class="fil2" d="M145.42 395.37c-3.5,7.2 -10.83,10.86 -16.38,8.16 -5.55,-2.69 -7.22,-10.72 -3.73,-17.92 3.5,-7.2 10.83,-10.85 16.39,-8.16 3.53,1.72 5.49,5.6 5.55,10.05 0.37,0.66 0.59,1.53 0.58,2.42 0,1.31 -0.46,2.67 -1.59,3.49 -0.23,0.66 -0.5,1.31 -0.82,1.96z"/>
   <path class="fil17" d="M140.97 401.19c1.75,-1.49 3.3,-3.45 4.44,-5.79l0 0c-1.14,2.34 -2.69,4.3 -4.44,5.79z"/>
   <polygon class="fil13" points="157.79,421.05 162.85,413.64 180,441.89 202.21,460.2 194.81,467.61 170.45,451.24 156.42,431.76 "/>
   <path class="fil18" d="M142.01 412.1l-0.06 -0.03c0.04,-0.01 0.08,-0.01 0.11,-0.02l-0.05 0.05z"/>
   <path class="fil19" d="M141.95 412.07l-3.51 -1.94 4.36 1.82c-0.24,0.04 -0.49,0.07 -0.74,0.1 -0.03,0.01 -0.07,0.01 -0.11,0.02z"/>
   <polygon class="fil20" points="140.89,413.41 138.44,410.13 141.95,412.07 142.01,412.1 "/>
   <g>
    <path class="fil1" d="M143.96 417.51l-3.07 -4.1 1.12 -1.31 -0.06 -0.03 0 0 0.06 0.03 0.05 -0.05c0.25,-0.03 0.5,-0.06 0.74,-0.1l1.47 0.62 4.56 -2.95 -4.87 7.89z"/>
    <path class="fil1" d="M133.47 418.29l-2.92 -5.84 -1.02 -2.05 1.14 0.83 1.86 1.34 2.32 -0.97c0.23,0.05 0.46,0.1 0.68,0.14l-0.64 0.36 1.33 1.62 -2.75 4.57z"/>
   </g>
   <path class="fil19" d="M135.53 411.74c-0.22,-0.04 -0.45,-0.09 -0.68,-0.14l3.51 -1.47 -0.03 0.06 -2.8 1.55z"/>
   <polygon class="fil20" points="136.22,413.72 134.89,412.1 135.53,411.74 138.33,410.19 "/>
   <path class="fil14" d="M146.06 404.12c0,0 1.17,2 -1.84,4.23 -1.27,0.94 -2.79,1.49 -4.36,1.69l-1.49 0.09 4.09 7.93c0,0 5.85,-6.76 6.82,-10.46l-3.22 -3.48z"/>
   <path class="fil14" d="M132.03 406.14c0,0 1.67,3.54 6.41,3.99l-4.28 7.93 -4.62 -7.67 2.49 -4.25z"/>
   <path class="fil3" d="M140.12 384.84l-0.06 0 -0.06 0 -0.06 0 -0.06 0 0 0 -0.06 -0.01 0 0 -0.06 0 -0.06 0 -0.07 0 0 0 -0.06 -0.01 -0.06 0 -0.07 0 0 0 -0.13 -0.01 -0.13 -0.01 -0.07 0 0 0 -0.07 -0.01 0 0 -0.07 0 0 0 -0.07 -0.01 0 0 -0.07 0 0 0 -0.07 -0.01 -0.07 0 -0.07 -0.01 0 0 -0.07 0 -0.08 -0.01 0 0 -0.07 0 0 0 -0.07 -0.01 -0.08 0 -0.07 -0.01 -0.08 -0.01 0 0 -0.08 0 0 0 -0.07 -0.01 -0.08 -0.01 -0.08 -0.01 0 0 -0.08 0 -0.08 -0.01 0 0 -0.08 -0.01 -0.08 -0.01 0 0 -0.08 -0.01 -0.08 0 -0.08 -0.01 0 0 -0.09 -0.01 -0.08 -0.01 0 0 -0.09 -0.01 0 0 -0.08 -0.01 0 0 -0.09 -0.01 -0.08 -0.01 0 0 -0.09 -0.01 -0.08 -0.01 -0.09 -0.01 -0.09 -0.02 -0.09 -0.01 -0.09 -0.01 -0.09 -0.01 -0.09 -0.01 -0.09 -0.01 0 -0.01 -0.09 -0.01 -0.1 -0.01 -0.09 -0.01 -0.09 -0.02 -0.1 -0.01 -0.09 -0.02 -0.1 -0.01 -0.09 -0.01 -0.01 -0.01 -0.01 0 -0.01 0 -0.01 0 -0.01 0 -0.05 -0.01 -0.01 0 -0.01 -0.01 -0.01 0 0 0 -0.01 0 -0.02 0 -0.01 0 -0.01 0 -0.01 -0.01 -0.01 0 -0.01 0 -0.01 0 -0.01 0 -0.01 -0.01 -0.01 0 -0.2 -0.04 -0.03 0c-0.16,-0.04 -0.33,-0.08 -0.5,-0.13l-0.03 -0.01 0 0 -0.03 0 -0.02 -0.01 -0.03 -0.01 -0.03 -0.01 -0.01 0 -0.01 0 -0.06 -0.02 -0.02 -0.01 -0.03 -0.01 -0.03 0 -0.02 -0.01 -0.11 -0.03 -0.03 -0.01 -0.03 -0.01 -0.02 -0.01 -0.03 -0.01 0 0 -0.03 -0.01 -0.02 0 -0.03 -0.01 -0.03 -0.01 -0.01 -0.01 -0.02 0 -0.02 -0.01 -0.03 -0.01 -0.03 -0.01 -0.02 0 -0.01 -0.01 -0.02 0 -0.03 -0.01 -0.03 -0.01 -0.02 -0.01 -0.03 -0.01 0 0 -0.03 -0.01 -0.05 -0.02 -0.05 -0.01c-1.5,-0.5 -3.04,-0.84 -4.68,-0.84 0,0 -0.01,0 -0.01,0l0 0c0,0 0,0 0,0 -0.5,0 -0.88,0 -1.39,0.14 -0.1,0.02 -0.19,0.05 -0.28,0.08 -0.03,0.01 -0.06,0.02 -0.09,0.03l0 0c-0.03,0.01 -0.06,0.02 -0.09,0.03 0,0 -0.01,0 -0.01,0 -0.01,0 -0.01,0 -0.01,0 -0.1,0.03 -0.19,0.06 -0.29,0.07 -0.13,0.03 -0.26,0.04 -0.38,0.04 -0.75,0 -1.34,-0.49 -1.69,-1.21 -0.83,-1.49 -0.31,-4.37 2.34,-6.14 4.06,-2.71 10.98,-4.47 18.94,-0.63 3.11,1.5 4.02,3.2 3.73,4.73 1.96,1.59 2.94,4.68 2.9,7.72l0 0.08 0 0.18 -0.01 0.23 -0.02 0.23 0 0 -0.01 0.23 -0.02 0.22 -0.01 0.03 -0.01 0.16 -0.01 0.08 -0.03 0.18 -0.03 0.22 -0.01 0.08 -0.01 0.07 -0.03 0.18 -0.02 0.08 -0.01 0.04 -0.04 0.22 -0.02 0.07 -0.01 0.06 -0.05 0.2 -0.01 0.07 -0.01 0.03 -0.07 0.27 -0.02 0.05 -0.08 0.26 0 0.02 -0.01 0.03 -0.07 0.21 -0.01 0.02 -0.03 0.11 -0.08 0.21 -0.01 0.03 -0.01 0.03 -0.11 0.26 -0.01 0.02 -0.1 0.24 -0.02 0.04 -0.01 0.03 -0.12 0.24 -0.02 0.04 -0.14 0.25 0 0 -0.11 0.2c0,0 0,0 -0.01,0 0,0.01 0,0.01 -0.01,0.02l0 0 0 0.01 -0.01 0.01 0 0 0 0 0 0 -0.01 0.01 0 0.01c-2.69,4.37 -2.32,8.1 -4.27,8.87l-0.05 0.01 0 0.01 -0.01 0 -0.06 0.01 0 0 -0.01 0.01 -0.01 0 -0.04 0 0 0 -0.01 0 -0.04 0.01 -0.01 0 0 0 0 0 -0.04 -0.01 -0.02 0 -0.03 0 -0.01 0 -0.03 -0.01 -0.01 -0.01 -0.03 -0.01 0 0 -0.04 -0.01 0 -0.01 0 0 -0.04 -0.02 -0.01 0 0 0 -0.03 -0.03 -0.01 -0.01 -0.03 -0.02 0 0 -0.03 -0.03 -0.01 -0.01 -0.03 -0.03 0 0 -0.03 -0.04 0 0 -0.03 -0.05 -0.01 -0.01 -0.02 -0.04 0 0 -0.03 -0.05 0 -0.01 -0.03 -0.05 0 0 -0.02 -0.05 -0.01 -0.01 -0.02 -0.07 -0.02 -0.05 -0.01 -0.02 0 -0.02 -0.02 -0.05 -0.01 -0.04 -0.01 -0.04 -0.02 -0.05 0 -0.02 -0.02 -0.08 0 -0.01 -0.02 -0.08 -0.01 -0.01 -0.01 -0.08 -0.01 -0.03 -0.01 -0.06c-0.02,-0.13 -0.04,-0.26 -0.06,-0.41l0 -0.02c-0.02,-0.13 -0.03,-0.28 -0.04,-0.43l-0.01 -0.12 0 0c-0.03,-0.45 -0.04,-0.95 -0.03,-1.5l0 0 0 -0.31 0 -0.06c0.01,-0.44 0.03,-0.92 0.05,-1.41l0 -0.02c0.05,-0.93 0.12,-1.94 0.21,-3.01 3.32,-1.42 2.62,-6.59 0.63,-7.34 -1.45,-0.55 -2.36,0.71 -2.85,1.79 -1.18,-0.95 -2.49,-1.67 -3.08,-3.12 -0.04,-0.1 -0.08,-0.2 -0.11,-0.3zm10.57 8.57l0 0zm-4.27 8.87l0 0z"/>
   <path class="fil21" d="M150.7 393.39c0,0 0,0 0,0 0,0 0,0 0,0zm0.01 -0.02l0 0c0,0 0,0 0,0zm0.01 -0.02c0.01,0 0.01,0 0.01,0 0,0 0,0 -0.01,0z"/>
   <polygon class="fil16" points="179.32,457.2 170.45,451.24 161.86,439.31 161.06,427.03 172.43,449.34 "/>
   <path class="fil22" d="M118.63 443.49c0.37,-0.14 0.75,-0.29 1.14,-0.45l-0.01 0.07c0,0 -0.42,0.14 -1.13,0.38z"/>
   <path class="fil16" d="M99.83 448.66c3.03,-1.23 8.48,-3.62 12.36,-6.27 4.6,-3.15 8.42,-9.77 9.48,-11.73 -0.13,1.17 -0.3,2.58 -0.5,4.15l-1.1 8.11c-10.54,4.27 -17.56,5.44 -20.24,5.74z"/>
   <path class="fil23" d="M140.12 384.84c-1.24,-0.03 -2.9,-0.16 -4.95,-0.47 -0.01,-0.01 -0.03,-0.01 -0.04,-0.01 0.01,0 0.03,0 0.04,0.01 2.05,0.31 3.71,0.44 4.95,0.47l0 0zm-5.02 -0.49c-0.06,-0.01 -0.11,-0.02 -0.17,-0.03 0.06,0.01 0.11,0.02 0.17,0.03zm-0.2 -0.03c-0.56,-0.11 -1.13,-0.28 -1.71,-0.48 0.58,0.2 1.15,0.37 1.71,0.48z"/>
   <path class="fil24" d="M126.17 383.1c0.1,-0.02 0.19,-0.04 0.29,-0.07 -0.1,0.03 -0.19,0.05 -0.29,0.07zm0.29 -0.07c0.01,0 0.01,-0.01 0.02,-0.01 -0.01,0 -0.01,0.01 -0.02,0.01zm0.19 -0.07c0.1,-0.03 0.19,-0.05 0.29,-0.08l0 0c-0.1,0.03 -0.19,0.05 -0.29,0.08z"/>
   <path class="fil23" d="M126.94 382.88l0 0c0.51,-0.14 1.01,-0.19 1.5,-0.19 -0.49,0 -0.99,0.05 -1.5,0.19zm1.51 -0.19c0,0 -0.01,0 -0.01,0l0 0c0,0 0.01,0 0.01,0z"/>
   <path class="fil25" d="M256.97 484.87l0 0c1.69,-0.74 3.1,-1.52 4.19,-2.35 -1.09,0.83 -2.5,1.61 -4.19,2.35z"/>
   <path class="fil26" d="M255.11 459.44c0,0 0,0 0,0 1.86,-0.28 3.71,-0.58 5.55,-0.89 -1.84,0.31 -3.69,0.61 -5.55,0.89z"/>
   <path class="fil27" d="M188.52 493.09c0,0 0,0 -0.01,0 0.01,0 0.01,0 0.01,0l0 0zm0.01 0c24.48,0 47.23,-2.01 61.18,-5.76l0 0c-13.96,3.75 -36.7,5.76 -61.18,5.76z"/>
   <path class="fil28" d="M249.71 487.33l0 0c2.79,-0.75 5.23,-1.57 7.26,-2.46l0 0c-2.03,0.89 -4.47,1.71 -7.26,2.46z"/>
   <path class="fil3" d="M188.52 493.09c0,0 0,0 -0.01,0 -30.22,0 -63.1,-3.06 -85.41,-9.69 -0.02,-0.01 -0.04,-0.02 -0.06,-0.02 -0.08,-0.03 -0.16,-0.05 -0.24,-0.07 -0.08,-0.03 -0.17,-0.06 -0.26,-0.08l0 0c0,0 -0.83,-0.63 -1.96,-1.73 21.66,5.03 50.12,7.37 76.55,7.37 33.58,0 63.87,-3.78 72.73,-10.64 9.75,-7.54 8.26,-14.36 5.25,-18.79 1.86,-0.28 3.71,-0.58 5.55,-0.89 0.2,-0.03 0.4,-0.07 0.59,-0.1 0,0 7.53,4.85 7.52,11.97 -0.01,3.55 -1.89,7.67 -7.52,12.03l0 0c-0.01,0.01 -0.02,0.02 -0.03,0.03 -0.01,0 -0.02,0.01 -0.03,0.02 -0.01,0.01 -0.02,0.01 -0.03,0.02 -1.09,0.83 -2.5,1.61 -4.19,2.35l0 0c-2.03,0.89 -4.47,1.71 -7.26,2.46 -13.95,3.75 -36.7,5.76 -61.18,5.76 -0.01,0 0,0 -0.01,0z"/>
   <path class="fil4" d="M17.67 152.76c-17.67,109.03 84.8,173.03 89.61,201.27 53.83,0 107.66,0 161.49,0 8.87,-52 175.58,-130.7 58.92,-288.01 -60.13,-81.09 -174.09,-82.4 -242.37,-31.49 -22.76,16.96 -58.12,54.59 -67.65,118.23z"/>
   <path class="fil3" d="M167.36 348.57l-26.33 0c-74.34,-72.82 -98.7,-213.61 -20.85,-333.93 14.65,-6.21 30.32,-10.53 46.38,-12.79 -41.63,148.05 -3.29,307.67 0.8,346.72z"/>
   <path class="fil3" d="M233.71 348.57l-37.52 0c32.22,-77.29 33.05,-256.59 -2.05,-348.55 16.12,0.12 32.28,2.34 47.92,6.83 129.52,159.2 18.29,303.27 -8.35,341.72z"/>
   <path class="fil3" d="M268.84 357.92l-163.96 0 -0.02 0 -0.01 0 0 0 -0.01 0 -0.01 0 -0.01 0 0 0 -0.01 0 -0.01 0 0 0 -0.02 0 0 0 -0.05 0 0 0 -0.01 0 -0.01 0 -0.01 0 -0.01 0 -0.02 0 -0.01 0 -0.03 0 -0.01 0 -0.01 0 -0.01 0 0 0 -0.01 -0.01 -0.01 0 -0.01 0 -0.01 0 0 0 -0.02 0 -0.01 0 0 0 0 0 -0.01 0 0 0 -0.01 0 -0.01 0 -0.09 -0.01 -0.01 0 -0.08 -0.01 -0.09 -0.01 -0.06 -0.01 -0.03 -0.01 -0.09 -0.01 0 0 -0.09 -0.02 -0.09 -0.02 -0.05 -0.01 -0.04 -0.01 -0.07 -0.01 -0.02 -0.01 -0.08 -0.02 -0.01 0 -0.08 -0.03 -0.17 -0.05 -0.08 -0.03 -0.01 0 -0.08 -0.04 -0.16 -0.06 -0.07 -0.03 -0.01 -0.01c-1.62,-0.74 -2.74,-2.36 -2.74,-4.25 0,-2.59 2.1,-4.68 4.68,-4.68l163.96 0c1.81,0 3.39,1.04 4.16,2.55l0.01 0.01 0.04 0.08 0.03 0.08 0.02 0.03 0.02 0.05 0.02 0.06 0.01 0.02 0.04 0.08 0 0 0.03 0.09 0.01 0.02 0.02 0.06 0.02 0.05 0.01 0.03 0.02 0.08 0.01 0.01 0.02 0.09 0 0.01 0.02 0.07 0.01 0.04 0.02 0.05 0.01 0.06 0.02 0.1 0.01 0.01 0 0.01 0.01 0.08 0.01 0.03 0.01 0.06 0.01 0.06 0 0.03 0.01 0.08 0.01 0.02 0.01 0.09 0 0.01 0.01 0.08 0 0 0 0.01 0 0.01c0,0 0,0.01 0,0.01 0,0 0,0.01 0,0.02l0 0 0 0c0,0.01 0,0.02 0,0.02 0,0 0,0.01 0,0.01l0 0.02 0 0.01 0 0.01 0 0 0 0 0 0.02 0.01 0.01 0 0.01 0 0 0 0.02 0 0 0 0.01c0,0.01 0,0.01 0,0.02 0,0 0,0.01 0,0.01 0,0.01 0,0.01 0,0.02l0 0 0 0.01 0 0.01 0 0.01 0 0.01 0 0 0 0.01 0 0.01c0,0.01 0,0.01 0,0.01 0,0.01 0,0.02 0,0.02 0,0 0,0.01 0,0.01l0 0.01 0 0.01 0 0.01 0 0 0 0.01 0 0.02c0,2.58 -2.09,4.67 -4.67,4.67z"/>
   <path class="fil29" d="M107.82 357.92l-2.94 0c-0.01,0 -0.02,0 -0.03,0 0.01,0 0.02,0 0.03,0l2.94 0z"/>
   <path class="fil29" d="M104.84 357.92c0,0 -0.01,0 -0.02,0 0.01,0 0.02,0 0.02,0zm-0.03 0c0,0 -0.01,0 -0.01,0 0,0 0.01,0 0.01,0zm-0.03 0c0,0 -0.01,0 -0.01,0 0,0 0.01,0 0.01,0zm-0.02 0c-0.01,0 -0.02,0 -0.03,0 0.01,0 0.02,0 0.03,0zm-0.04 0c0,0 -0.01,0 -0.02,0 0.01,0 0.02,0 0.02,0zm-0.03 0c-0.01,0 -0.01,0 -0.02,0 0.01,0 0.01,0 0.02,0zm-0.03 0c0,0 -0.01,0 -0.01,0 0,0 0.01,0 0.01,0zm-0.03 0c0,0 0,0 -0.01,0 0,0 0.01,0 0.01,0zm-0.03 0c0,0 0,0 0,-0.01 0,0.01 0,0.01 0,0.01zm-0.04 -0.01l0 0 0 0zm-0.03 0c0,0 0,0 0,0 0,0 0,0 0,0zm-0.02 0c0,0 0,0 -0.01,0 0.01,0 0.01,0 0.01,0z"/>
   <path class="fil30" d="M273.51 353.25c0,-0.01 0,-0.02 0,-0.03 0,0.01 0,0.02 0,0.03zm0 -0.04c0,-0.01 0,-0.01 0,-0.02 0,0.01 0,0.01 0,0.02zm0 -0.03c0,0 0,-0.01 0,-0.02 0,0.01 0,0.02 0,0.02zm0 -0.03c0,0 0,-0.01 0,-0.02 0,0.01 0,0.02 0,0.02zm0 -0.03c0,0 0,-0.01 0,-0.02 0,0.01 0,0.02 0,0.02zm0 -0.03c0,-0.01 0,-0.01 0,-0.02 0,0.01 0,0.01 0,0.02zm0 -0.03c0,-0.01 0,-0.01 0,-0.02 0,0.01 0,0.01 0,0.02zm0 -0.03c0,-0.01 0,-0.01 0,-0.02 0,0.01 0,0.01 0,0.02zm0 -0.03c0,0 0,-0.01 -0.01,-0.01 0.01,0 0.01,0.01 0.01,0.01zm-0.01 -0.03c0,0 0,0 0,0 0,0 0,0 0,0zm0 -0.04c0,0 0,-0.01 0,-0.01 0,0 0,0.01 0,0.01zm0 -0.03c0,0 0,0 0,0 0,0 0,0 0,0zm0 -0.02c0,0 0,-0.01 0,-0.01 0,0 0,0.01 0,0.01zm0 -0.03l0 0 0 0z"/>
   <path class="fil0" d="M140.06 538.84l-0.01 -0.11c-0.12,-5.36 -5.77,-9.76 -12.76,-9.94 -2.43,-0.06 -4.71,0.38 -6.69,1.19 -3.67,-3.98 -9.71,-6.58 -16.55,-6.58 -7.68,0 -14.37,3.29 -17.8,8.13 -1.41,-0.53 -2.99,-0.83 -4.67,-0.83 -3.56,0 -6.71,1.34 -8.66,3.38 -1.42,-0.82 -3.21,-1.27 -5.14,-1.2 -4,0.15 -7.25,2.64 -7.47,5.7l0 0.09c-0.12,2.31 2.31,4.22 5.33,4.22l69.15 0c2.91,0 5.29,-1.81 5.27,-4.05z"/>
  </g>
 </g>
</svg>
