<?xml version="1.0" encoding="UTF-8"?>
<!DOCTYPE svg PUBLIC "-//W3C//DTD SVG 1.1//EN" "http://www.w3.org/Graphics/SVG/1.1/DTD/svg11.dtd">
<!-- Creator: CorelDRAW 2018 (64 Bit Versão de avaliação) -->
<svg xmlns="http://www.w3.org/2000/svg" xml:space="preserve" width="1001px" height="300px" version="1.1" shape-rendering="geometricPrecision" text-rendering="geometricPrecision" image-rendering="optimizeQuality" fill-rule="evenodd" clip-rule="evenodd"
viewBox="0 0 999.11 299.19"
 xmlns:xlink="http://www.w3.org/1999/xlink">
 <defs>
    <linearGradient id="id0" gradientUnits="userSpaceOnUse" x1="247.87" y1="35.35" x2="102.41" y2="263.84">
     <stop offset="0" stop-opacity="1" stop-color="#F01D24"/>
     <stop offset="1" stop-opacity="1" stop-color="#590E0D"/>
    </linearGradient>
 </defs>
 <g id="Camada_x0020_1">
  <metadata id="CorelCorpID_0Corel-Layer"/>
  <g id="_1816192474480">
   <g>
    <path fill="white" fill-rule="nonzero" d="M387.18 135.11c0,9.74 -0.11,15.33 -0.22,19.6 -0.22,8.21 -1.65,9.74 -3.95,10.29 -0.76,0.22 -1.42,0.22 -2.51,0.33 -0.66,0.11 -1.21,0.33 -1.21,0.66 0,0.65 0.55,0.87 1.75,0.87 2.85,0.11 5.48,-0.33 8.11,-0.33 4.27,0 9.3,0.22 13.68,0.33 4.27,0.11 7.89,0.33 15.99,0.33 4.27,0 5.15,0 5.91,-2.85 0.55,-2.3 1.43,-9.74 1.43,-10.62 0,-0.77 0,-1.64 -0.66,-1.64 -0.55,0 -0.77,0.44 -0.98,1.64 -0.88,4.71 -2.08,7.01 -5.59,8.1 -2.96,0.88 -6.57,0.99 -9.85,0.99 -4.27,0 -7.23,-0.22 -9.09,-0.99 -2.74,-1.09 -3.4,-3.5 -3.62,-7.99 -0.11,-2.3 0,-15 0,-18.72l0 -9.64c0,-0.44 0.22,-0.77 0.77,-0.77 1.86,0 12.7,0.22 15.66,0.55 3.94,0.44 5.26,1.97 5.69,3.61 0.33,0.99 0.44,2.08 0.44,3.07 0,0.88 0.11,1.75 0.77,1.75 0.44,0 0.65,-0.55 0.76,-1.64 0.11,-1.53 0.11,-4.05 0.44,-7.45 0.33,-3.61 0.88,-5.47 0.88,-6.13 0,-0.66 -0.22,-0.87 -0.55,-0.87 -0.44,0 -0.77,0.43 -1.31,1.09 -1.1,1.31 -2.52,1.64 -5.48,1.86 -2.52,0.22 -15.99,0.22 -17.41,0.22 -0.55,0 -0.66,-0.33 -0.66,-1.09l0 -30.23c0,-0.76 0.22,-1.09 0.66,-1.09 1.2,0 13.14,0.11 15,0.33 4.82,0.43 7.12,1.53 7.89,4.05 0.33,0.87 0.54,2.19 0.54,3.61 0,0.88 0.22,1.43 0.88,1.43 0.44,0 0.77,-0.77 0.88,-1.87 0.22,-2.84 0.32,-4.92 0.43,-6.57 0.22,-3.06 0.88,-4.38 0.88,-5.14 0,-0.55 -0.11,-0.99 -0.44,-0.99 -0.33,0 -0.55,0.11 -1.2,0.44 -0.66,0.33 -2.63,0.55 -5.04,0.66 -2.52,0.11 -24.31,0.11 -25.08,0.11 -6.89,-0.33 -9.85,-0.33 -12.37,-0.33 -1.2,0 -1.75,0.22 -1.75,0.87 0,0.44 0.66,0.55 1.42,0.66 0.99,0.11 2.41,0.11 3.18,0.33 3.61,0.77 4.49,2.52 4.71,6.24 0.22,3.5 0.22,6.57 0.22,23.65l0 19.28zm74.46 33.28c5.91,0 11.82,-1.31 16.53,-4.59 7.56,-5.37 9.31,-13.69 9.31,-18.18 0,-8.76 -3.07,-15.55 -15.99,-25.74l-3.06 -2.4c-10.52,-8.22 -13.36,-12.16 -13.36,-18.4 0,-7.99 5.91,-12.7 13.47,-12.7 10.07,0 13.03,4.6 13.68,5.8 0.66,1.21 1.32,4.16 1.43,5.48 0.11,0.87 0.22,1.42 0.87,1.42 0.55,0 0.77,-0.77 0.77,-2.52 0,-7.45 0.44,-11.06 0.44,-11.61 0,-0.54 -0.22,-0.76 -1.1,-0.76 -0.87,0 -1.75,-0.11 -3.83,-0.55 -2.74,-0.66 -5.91,-1.1 -10.18,-1.1 -13.91,0 -22.67,8 -22.67,19.71 0,7.45 2.63,14.24 14.23,23.77l4.93 4.05c9.42,7.77 12.59,12.15 12.59,19.71 0,7.01 -5.14,14.56 -15.65,14.56 -7.34,0 -14.57,-3.06 -16.21,-11.17 -0.33,-1.53 -0.33,-3.06 -0.33,-4.05 0,-0.87 -0.11,-1.2 -0.77,-1.2 -0.54,0 -0.76,0.55 -0.87,1.75 -0.11,1.75 -0.55,6.13 -0.55,11.61 0,2.95 0.11,3.39 1.64,4.16 4.49,2.19 9.53,2.95 14.68,2.95zm91.65 0c7.01,0 15.33,-0.76 19.71,-2.51 1.97,-0.88 2.19,-1.1 2.85,-3.18 1.09,-3.72 2.41,-13.25 2.41,-14.02 0,-0.87 -0.22,-1.64 -0.77,-1.64 -0.66,0 -0.88,0.44 -1.09,1.64 -0.33,1.97 -1.76,6.79 -4.06,9.2 -4.38,4.49 -10.84,5.48 -19.05,5.48 -23.43,0 -39.53,-19.17 -39.53,-40.08 0,-11.17 1.86,-20.92 9.86,-28.58 3.83,-3.72 10.62,-7.99 25.18,-7.99 9.64,0 18.07,2.95 21.9,6.24 2.85,2.41 4.6,6.9 4.6,11.17 0,1.53 0.11,2.3 0.88,2.3 0.65,0 0.87,-0.66 0.98,-2.3 0.11,-1.65 0.11,-7.67 0.33,-11.28 0.22,-3.94 0.55,-5.26 0.55,-6.13 0,-0.66 -0.22,-1.1 -0.99,-1.21 -4.05,-0.55 -7.44,-0.88 -11.6,-1.64 -5.37,-0.99 -11.5,-1.32 -15.88,-1.32 -16.87,0 -26.83,5.15 -33.4,11.72 -9.75,9.75 -12.27,22.56 -12.27,29.9 0,10.4 2.63,22.88 13.25,32.41 8.66,7.77 19.72,11.82 36.14,11.82zm81.25 0c26.39,0 43.69,-20.25 43.69,-44.78 0,-25.52 -18.39,-41.07 -43.03,-41.07 -30.22,0 -43.15,25.08 -43.15,42.82 0,19.71 12.49,43.03 42.49,43.03zm2.96 -4.16c-19.71,0 -35.04,-16.42 -35.04,-41.94 0,-23.98 13.69,-36.02 31.97,-36.02 17.3,0 33.29,14.12 33.29,40.4 0,31.87 -20.37,37.56 -30.22,37.56zm141.37 -78.73c-0.22,-2.08 -0.55,-2.96 -1.32,-2.96 -0.76,0 -1.2,0.77 -1.64,1.76l-32.19 68.76 -33.51 -68.87c-0.55,-1.21 -0.99,-1.65 -1.64,-1.65 -0.66,0 -1.1,0.99 -1.21,2.19l-7.88 71.18c-0.55,4.49 -0.77,8.43 -4.38,9.09 -1.65,0.33 -2.41,0.33 -3.29,0.33 -0.55,0 -1.09,0.22 -1.09,0.66 0,0.76 0.76,0.87 1.86,0.87 2.96,0 8.21,-0.33 9.2,-0.33 0.87,0 6.46,0.33 10.51,0.33 1.09,0 1.64,-0.22 1.64,-0.98 0,-0.33 -0.44,-0.55 -1.09,-0.55 -0.66,0 -2.08,0 -3.95,-0.44 -1.64,-0.33 -2.95,-1.2 -2.95,-3.94 0,-1.86 0.11,-3.4 0.22,-5.15l4.49 -51.57c1.2,2.95 13.79,30 14.78,31.97 0.55,1.1 9.96,20.04 12.81,25.41 2.08,3.94 2.63,5.03 3.4,5.03 0.98,0 1.31,-0.98 3.61,-5.8l27.16 -57.6 5.25 57.16c0.22,1.97 0.33,3.61 -0.44,3.94 -0.54,0.22 -0.76,0.33 -0.76,0.77 0,0.55 0.55,0.88 3.06,1.09 4.06,0.33 16.54,0.66 18.95,0.66 1.31,0 1.64,-0.22 1.64,-0.87 0,-0.55 -0.66,-0.66 -1.2,-0.66 -1.1,0 -3.62,0 -6.79,-0.99 -4.71,-1.53 -5.48,-7.66 -5.92,-11.6l-7.33 -67.24zm70.52 49.06c0.54,0 0.76,0.22 0.98,0.66l10.19 26.93c0.65,1.75 0,2.74 -0.66,2.96 -0.44,0.11 -0.77,0.33 -0.77,0.77 0,0.65 1.21,0.65 3.29,0.76 7.55,0.22 15.55,0.22 17.19,0.22 1.2,0 2.19,-0.22 2.19,-0.87 0,-0.55 -0.55,-0.66 -1.21,-0.66 -0.87,0 -2.62,-0.11 -4.27,-0.66 -2.29,-0.66 -5.47,-2.41 -9.41,-12.15 -6.68,-16.65 -23.87,-61.87 -25.52,-66.03 -1.31,-3.4 -1.75,-3.95 -2.41,-3.95 -0.65,0 -1.09,0.66 -2.4,4.27l-24.86 68.01c-1.97,5.47 -4.16,9.63 -9.2,10.29 -0.88,0.11 -1.86,0.22 -2.63,0.22 -0.98,0 -1.53,0.22 -1.53,0.66 0,0.65 0.66,0.87 2.08,0.87 5.15,0 11.17,-0.33 12.37,-0.33 1.21,0 5.59,0.33 8.22,0.33 0.98,0 1.97,-0.22 1.97,-0.87 0,-0.44 -0.33,-0.66 -1.43,-0.66 -0.33,0 -0.65,0 -0.98,0 -1.86,0 -3.94,-0.99 -3.94,-3.18 0,-1.97 0.54,-4.6 1.53,-7.33l6.57 -19.39c0.22,-0.54 0.55,-0.87 1.09,-0.87l23.55 0zm-22.34 -3.94c-0.33,0 -0.55,-0.22 -0.33,-0.77l9.64 -29.57c0.54,-1.64 1.09,-1.64 1.64,0l10.4 29.57c0.11,0.44 0.11,0.77 -0.44,0.77l-20.91 0zm70.41 4.49c0,10.51 0,19.16 -0.55,23.76 -0.44,3.17 -0.98,5.58 -3.17,6.02 -0.99,0.22 -2.3,0.44 -3.29,0.44 -0.66,0 -0.88,0.33 -0.88,0.66 0,0.65 0.55,0.87 1.76,0.87 3.28,0 10.18,-0.33 10.29,-0.33 0.55,0 7.45,0.33 13.47,0.33 1.2,0 1.75,-0.33 1.75,-0.87 0,-0.33 -0.22,-0.66 -0.88,-0.66 -0.98,0 -3.39,-0.22 -4.92,-0.44 -3.29,-0.44 -3.95,-2.85 -4.27,-6.02 -0.55,-4.6 -0.55,-13.25 -0.55,-23.76l0 -2.63c0,-0.55 0.22,-0.88 0.76,-0.88l13.47 0.22c0.66,0 0.99,0.22 1.43,0.66 2.19,2.84 7.33,10.18 11.93,16.2 6.25,8.22 10.08,13.58 14.79,16.1 2.84,1.53 5.58,2.08 11.71,2.08l7.78 0c1.97,0 2.63,-0.22 2.63,-0.87 0,-0.33 -0.44,-0.66 -0.99,-0.66 -0.66,0 -2.19,0 -4.27,-0.33 -2.74,-0.44 -7.45,-1.64 -13.36,-7.88 -6.35,-6.79 -13.8,-16.54 -22.78,-28.04 9.86,-9.09 13.25,-17.19 13.25,-25.29 0,-7.56 -4.81,-12.92 -7.55,-14.89 -5.81,-4.17 -13.14,-4.82 -20.04,-4.82 -3.4,0 -11.72,0.33 -12.92,0.33 -0.55,0 -7.45,-0.33 -12.38,-0.33 -1.2,0 -1.75,0.22 -1.75,0.87 0,0.44 0.44,0.66 0.88,0.66 0.98,0 2.84,0.11 3.72,0.33 3.61,0.77 4.49,2.52 4.71,6.24 0.22,3.5 0.22,6.57 0.22,23.65l0 19.28zm8.76 -45.56c0,-0.65 0.33,-1.09 0.87,-1.31 1.1,-0.33 4.06,-0.66 7.34,-0.66 11.72,0 18.94,8.21 18.94,21.9 0,8.32 -2.84,14.24 -6.67,16.87 -2.52,1.75 -5.59,2.08 -8.22,2.08 -4.82,0 -9.85,-0.77 -11.5,-1.76 -0.54,-0.32 -0.76,-0.76 -0.76,-1.31l0 -35.81z"/>
    <path fill="white" fill-rule="nonzero" d="M386.68 202.67c0,7.6 5.36,13.5 13.21,13.5 6.63,0 10.35,-4.41 10.35,-4.41l-2.49 -3.41c0,0 -2.94,3.41 -7.79,3.41 -4.66,0 -8.36,-4.06 -8.36,-9.09 0,-5.35 3.62,-8.65 8.22,-8.65 2.24,0 5.32,0.87 5.32,2.75l0 1.45 4.31 0 0 -2.86c0,-4.38 -6.45,-5.75 -9.74,-5.75 -7.45,0 -13.03,5.64 -13.03,13.06zm49.18 0.04c0,7.56 5.72,13.46 13.28,13.46 7.57,0 13.29,-5.9 13.29,-13.46 0,-7.35 -5.72,-13.1 -13.29,-13.1 -7.56,0 -13.28,5.75 -13.28,13.1zm4.92 0c0,-4.92 3.73,-8.69 8.36,-8.69 4.64,0 8.36,3.77 8.36,8.69 0,5.14 -3.72,9.05 -8.36,9.05 -4.63,0 -8.36,-3.91 -8.36,-9.05zm47.66 13.03l4.64 0c1.73,0 2.46,-0.73 2.46,-2.46l0 -11.73c0,-1.48 -0.26,-3.62 -0.26,-3.62l0.08 0c0,0 1.12,2.17 2.13,3.62l9.77 14.19 4.24 0 0 -20.89c0,-0.5 0.29,-0.79 0.79,-0.79l1.56 0 0 -4.02 -4.63 0c-1.74,0 -2.46,0.76 -2.46,2.46l0 11.76c0,1.49 0.25,3.62 0.25,3.62l-0.07 0c0,0 -1.13,-2.13 -2.14,-3.62l-9.73 -14.22 -4.27 0 0 20.88c0,0.51 -0.29,0.8 -0.8,0.8l-1.56 0 0 4.02zm59.79 0l4.74 0 0 -21.68 3.94 0c0.51,0 0.8,0.29 0.8,0.79l0 1.56 4.16 0 0 -4.05c0,-1.7 -0.58,-2.32 -2.32,-2.32l-17.91 0c-1.74,0 -2.32,0.62 -2.32,2.32l0 4.05 4.16 0 0 -1.56c0,-0.5 0.29,-0.79 0.8,-0.79l3.95 0 0 21.68zm35.17 0l2.86 0c1.81,0 2.42,-0.47 3,-2.1l1.59 -4.49 8.69 0 1.59 4.49c0.58,1.63 1.23,2.1 3.04,2.1l2.83 0 0 -4.02 -0.58 0c-0.62,0 -0.91,-0.14 -1.13,-0.8l-7.6 -20.88 -4.95 0 -7.64 20.88c-0.22,0.66 -0.51,0.8 -1.12,0.8l-0.58 0 0 4.02zm8.54 -10.5l2.21 -6.44c0.47,-1.41 1.01,-3.84 1.01,-3.84l0.07 0c0,0 0.55,2.43 1.02,3.84l2.2 6.44 -6.51 0zm42.7 8.04c0,1.73 0.76,2.46 2.46,2.46l6.41 0c4.77,0 8.86,-2.32 8.86,-7.46 0,-2.6 -1.34,-5.21 -4.12,-6.04l0 -0.07c1.55,-0.8 3.11,-2.65 3.11,-5.51 0,-4.23 -3.33,-6.62 -7.96,-6.62l-11.11 0 0 4.02 2.35 0 0 19.22zm4.74 -12.74l0 -6.48 3.98 0c2.1,0 3.19,1.34 3.19,3.18 0,1.85 -1.12,3.3 -3.12,3.3l-4.05 0zm0 10.38l0 -6.62 4.49 0c2.28,0 3.62,1.56 3.62,3.69 0,2.17 -1.31,3.73 -3.62,3.73l-3.69 0c-0.51,0 -0.8,-0.29 -0.8,-0.8zm39.55 4.82l9.63 0 0 -4.02 -2.57 0 0 -17.66 2.57 0 0 -4.02 -9.63 0 0 4.02 2.57 0 0 17.66 -2.57 0 0 4.02zm38.29 -2.46c0,1.73 0.72,2.46 2.46,2.46l11.33 0c1.73,0 2.46,-0.73 2.46,-2.46l0 -3.91 -4.31 0 0 1.55c0,0.51 -0.29,0.8 -0.8,0.8l-5.6 0c-0.51,0 -0.8,-0.29 -0.8,-0.8l0 -18.42c0,-1.7 -0.72,-2.46 -2.46,-2.46l-4.63 0 0 4.02 1.55 0c0.51,0 0.8,0.29 0.8,0.79l0 18.43zm41.68 2.46l9.63 0 0 -4.02 -2.57 0 0 -17.66 2.57 0 0 -4.02 -9.63 0 0 4.02 2.57 0 0 17.66 -2.57 0 0 4.02zm38.29 -2.46c0,1.73 0.72,2.46 2.46,2.46l5.65 0c7.92,0 13.1,-4.78 13.1,-12.89 0,-8.1 -5.18,-12.81 -13.1,-12.81l-10.46 0 0 4.02 2.35 0 0 19.22zm4.74 -2.36l0 -16.86 3.11 0c5.07,0 8.44,3.08 8.44,8.79 0,5.79 -3.3,8.87 -8.44,8.87l-2.31 0c-0.51,0 -0.8,-0.29 -0.8,-0.8zm41.18 4.82l2.86 0c1.81,0 2.43,-0.47 3,-2.1l1.6 -4.49 8.68 0 1.6 4.49c0.57,1.63 1.23,2.1 3.04,2.1l2.82 0 0 -4.02 -0.58 0c-0.62,0 -0.91,-0.14 -1.12,-0.8l-7.6 -20.88 -4.96 0 -7.64 20.88c-0.22,0.66 -0.5,0.8 -1.12,0.8l-0.58 0 0 4.02zm8.54 -10.5l2.21 -6.44c0.47,-1.41 1.01,-3.84 1.01,-3.84l0.08 0c0,0 0.54,2.43 1.01,3.84l2.21 6.44 -6.52 0zm42.74 8.04c0,1.73 0.72,2.46 2.46,2.46l5.65 0c7.92,0 13.1,-4.78 13.1,-12.89 0,-8.1 -5.18,-12.81 -13.1,-12.81l-10.46 0 0 4.02 2.35 0 0 19.22zm4.74 -2.36l0 -16.86 3.11 0c5.07,0 8.44,3.08 8.44,8.79 0,5.79 -3.3,8.87 -8.44,8.87l-2.31 0c-0.51,0 -0.8,-0.29 -0.8,-0.8zm44.84 2.36c0,1.73 0.72,2.46 2.46,2.46l11.65 0c1.7,0 2.46,-0.73 2.46,-2.46l0 -3.91 -4.31 0 0 1.55c0,0.51 -0.28,0.8 -0.79,0.8l-5.94 0c-0.5,0 -0.79,-0.29 -0.79,-0.8l0 -6.11 8.32 0 0 -4.02 -8.32 0 0 -6.73 5.79 0c0.51,0 0.79,0.29 0.79,0.79l0 1.56 4.31 0 0 -3.91c0,-1.7 -0.76,-2.46 -2.46,-2.46l-15.53 0 0 4.02 2.36 0 0 19.22z"/>
   </g>
   <path fill="url(#id0)" d="M152.37 36.83c4.91,0 9.74,0.3 14.49,0.86l-20.51 15.07c-26.96,1.5 -51.25,13.05 -69.17,30.97 -13.04,13.04 -22.7,29.44 -27.58,47.8l107.56 -78.84 0 0 18.58 -13.61 28.51 -20.9 47.26 26.34 -24.44 17.84 0.02 0.01 -13.23 9.78 -0.1 -0.06 -162.8 118.89 0.01 0.03 -13.07 10.43c-4.93,-13.24 -7.62,-27.56 -7.62,-42.52 0,-67.43 54.66,-122.09 122.09,-122.09zm12.82 89.52l35.93 20.06 -122.06 89.53 0.07 0.07 -12.76 9.56c-8.92,-8.85 -16.47,-19.07 -22.34,-30.32l7.27 -5.36 -0.02 -0.04 113.91 -83.5zm-74.27 119.36l181.94 -133.26 47.14 26.16 -46.28 33.75 0 0 -18.45 13.46 0 0 -108.69 79.28c1.92,0.1 3.85,0.15 5.79,0.15 29.37,0 55.95,-11.9 75.19,-31.14 10.45,-10.45 18.73,-23.06 24.12,-37.11l20.58 -14.94c-10.82,56.36 -60.38,98.95 -119.89,98.95 -28.18,0 -54.12,-9.55 -74.78,-25.59l13.31 -9.72 0.02 0.01zm160.38 -125.84c-5.39,-13.66 -13.53,-25.93 -23.74,-36.14 -2.45,-2.45 -5.02,-4.79 -7.7,-6.99l12.98 -9.62c13.41,11.76 24.22,26.41 31.46,42.98l-13 9.77z"/>
   <rect fill="none" width="999.11" height="299.19"/>
  </g>
 </g>
</svg>
