<?xml version="1.0" encoding="UTF-8"?>
<!DOCTYPE svg PUBLIC "-//W3C//DTD SVG 1.1//EN" "http://www.w3.org/Graphics/SVG/1.1/DTD/svg11.dtd">
<!-- Creator: CorelDRAW 2018 (64 Bit Versão de avaliação) -->
<svg xmlns="http://www.w3.org/2000/svg" xml:space="preserve" width="1000px" height="279px" version="1.1" style="shape-rendering:geometricPrecision; text-rendering:geometricPrecision; image-rendering:optimizeQuality; fill-rule:evenodd; clip-rule:evenodd"
viewBox="0 0 3770.3 1053.71"
 xmlns:xlink="http://www.w3.org/1999/xlink">
 <defs>
  <style type="text/css">
   <![CDATA[
    .fil0 {fill:white;fill-rule:nonzero}
    .fil1 {fill:url(#id0)}
   ]]>
  </style>
  <linearGradient id="id0" gradientUnits="userSpaceOnUse" x1="872.34" y1="68.84" x2="289.18" y2="984.86">
   <stop offset="0" style="stop-opacity:1; stop-color:#F01D24"/>
   <stop offset="1" style="stop-opacity:1; stop-color:#590E0D"/>
  </linearGradient>
 </defs>
 <g id="Camada_x0020_1">
  <metadata id="CorelCorpID_0Corel-Layer"/>
  <g id="_2558988131984">
   <g>
    <path class="fil0" d="M1430.82 502.01c0,39.07 -0.44,61.46 -0.88,78.58 -0.88,32.93 -6.59,39.07 -15.8,41.27 -3.08,0.88 -5.71,0.88 -10.1,1.32 -2.64,0.44 -4.83,1.31 -4.83,2.63 0,2.63 2.19,3.51 7.02,3.51 11.42,0.44 21.95,-1.31 32.49,-1.31 17.12,0 37.32,0.87 54.88,1.31 17.12,0.44 31.61,1.32 64.09,1.32 17.12,0 20.64,0 23.71,-11.41 2.19,-9.22 5.71,-39.08 5.71,-42.59 0,-3.07 0,-6.58 -2.64,-6.58 -2.19,0 -3.07,1.75 -3.95,6.58 -3.51,18.88 -8.34,28.1 -22.39,32.49 -11.85,3.51 -26.34,3.95 -39.51,3.95 -17.12,0 -28.97,-0.88 -36.44,-3.95 -10.97,-4.39 -13.61,-14.05 -14.48,-32.05 -0.44,-9.22 0,-60.14 0,-75.07l0 -38.63c0,-1.76 0.87,-3.08 3.07,-3.08 7.46,0 50.92,0.88 62.78,2.2 15.8,1.75 21.07,7.9 22.82,14.49 1.32,3.95 1.76,8.34 1.76,12.29 0,3.51 0.44,7.02 3.07,7.02 1.76,0 2.64,-2.19 3.08,-6.58 0.44,-6.15 0.44,-16.25 1.75,-29.86 1.32,-14.48 3.52,-21.94 3.52,-24.58 0,-2.63 -0.88,-3.51 -2.2,-3.51 -1.76,0 -3.07,1.75 -5.27,4.39 -4.39,5.27 -10.1,6.58 -21.95,7.46 -10.1,0.88 -64.09,0.88 -69.8,0.88 -2.2,0 -2.63,-1.32 -2.63,-4.39l0 -121.17c0,-3.07 0.87,-4.39 2.63,-4.39 4.83,0 52.68,0.44 60.14,1.32 19.32,1.76 28.54,6.15 31.61,16.24 1.32,3.52 2.2,8.78 2.2,14.49 0,3.51 0.87,5.71 3.51,5.71 1.76,0 3.07,-3.08 3.51,-7.47 0.88,-11.41 1.32,-19.75 1.76,-26.34 0.88,-12.29 3.51,-17.56 3.51,-20.63 0,-2.19 -0.44,-3.95 -1.76,-3.95 -1.31,0 -2.19,0.44 -4.83,1.76 -2.63,1.31 -10.53,2.19 -20.19,2.63 -10.1,0.44 -97.46,0.44 -100.53,0.44 -27.66,-1.32 -39.51,-1.32 -49.61,-1.32 -4.83,0 -7.03,0.88 -7.03,3.51 0,1.76 2.64,2.2 5.71,2.64 3.95,0.44 9.66,0.44 12.73,1.31 14.49,3.08 18,10.1 18.88,25.03 0.88,14.05 0.88,26.34 0.88,94.82l0 77.27zm298.52 133.46c23.71,0 47.42,-5.27 66.29,-18.44 30.3,-21.51 37.32,-54.88 37.32,-72.88 0,-35.12 -12.29,-62.33 -64.1,-103.16l-12.29 -9.66c-42.14,-32.93 -53.56,-48.73 -53.56,-73.75 0,-32.05 23.71,-50.93 54,-50.93 40.39,0 52.24,18.44 54.88,23.27 2.63,4.83 5.27,16.68 5.71,21.95 0.43,3.51 0.87,5.71 3.51,5.71 2.19,0 3.07,-3.08 3.07,-10.1 0,-29.85 1.76,-44.34 1.76,-46.54 0,-2.19 -0.88,-3.07 -4.39,-3.07 -3.52,0 -7.03,-0.44 -15.37,-2.19 -10.97,-2.64 -23.71,-4.39 -40.83,-4.39 -55.75,0 -90.87,32.04 -90.87,79.02 0,29.85 10.54,57.07 57.07,95.26l19.76 16.25c37.75,31.17 50.48,48.73 50.48,79.02 0,28.09 -20.63,58.39 -62.78,58.39 -29.41,0 -58.39,-12.3 -64.97,-44.78 -1.32,-6.15 -1.32,-12.3 -1.32,-16.25 0,-3.51 -0.44,-4.83 -3.07,-4.83 -2.2,0 -3.07,2.2 -3.51,7.03 -0.44,7.02 -2.2,24.58 -2.2,46.53 0,11.86 0.44,13.61 6.59,16.69 18,8.78 38.19,11.85 58.82,11.85zm367.46 0c28.09,0 61.46,-3.07 79.02,-10.1 7.9,-3.51 8.78,-4.39 11.41,-12.73 4.39,-14.93 9.66,-53.12 9.66,-56.19 0,-3.51 -0.88,-6.59 -3.07,-6.59 -2.64,0 -3.52,1.76 -4.39,6.59 -1.32,7.9 -7.03,27.21 -16.25,36.87 -17.56,18 -43.46,21.95 -76.38,21.95 -93.95,0 -158.49,-76.82 -158.49,-160.67 0,-44.78 7.47,-83.85 39.51,-114.58 15.37,-14.93 42.59,-32.05 100.98,-32.05 38.63,0 72.43,11.85 87.8,25.02 11.41,9.66 18.44,27.66 18.44,44.78 0,6.15 0.43,9.22 3.51,9.22 2.63,0 3.51,-2.64 3.95,-9.22 0.44,-6.59 0.44,-30.73 1.32,-45.22 0.87,-15.8 2.19,-21.07 2.19,-24.58 0,-2.64 -0.88,-4.39 -3.95,-4.83 -16.24,-2.2 -29.85,-3.51 -46.53,-6.59 -21.52,-3.95 -46.1,-5.26 -63.66,-5.26 -67.61,0 -107.56,20.63 -133.9,46.97 -39.07,39.07 -49.17,90.44 -49.17,119.85 0,41.71 10.54,91.75 53.12,129.95 34.68,31.17 79.02,47.41 144.88,47.41zm325.74 0c105.8,0 175.17,-81.22 175.17,-179.56 0,-102.28 -73.76,-164.62 -172.53,-164.62 -121.17,0 -172.97,100.53 -172.97,171.65 0,79.02 50.04,172.53 170.33,172.53zm11.85 -16.68c-79.02,0 -140.48,-65.85 -140.48,-168.14 0,-96.15 54.88,-144.44 128.19,-144.44 69.37,0 133.46,56.63 133.46,162 0,127.75 -81.65,150.58 -121.17,150.58zm566.77 -315.65c-0.88,-8.34 -2.2,-11.85 -5.27,-11.85 -3.08,0 -4.83,3.07 -6.59,7.02l-129.07 275.7 -134.33 -276.14c-2.2,-4.83 -3.95,-6.58 -6.59,-6.58 -2.63,0 -4.39,3.95 -4.83,8.77l-31.6 285.36c-2.2,18 -3.08,33.81 -17.57,36.44 -6.58,1.32 -9.65,1.32 -13.17,1.32 -2.19,0 -4.39,0.87 -4.39,2.63 0,3.07 3.08,3.51 7.47,3.51 11.85,0 32.92,-1.31 36.87,-1.31 3.52,0 25.91,1.31 42.15,1.31 4.39,0 6.58,-0.88 6.58,-3.95 0,-1.32 -1.75,-2.19 -4.39,-2.19 -2.63,0 -8.34,0 -15.8,-1.76 -6.59,-1.32 -11.85,-4.83 -11.85,-15.8 0,-7.47 0.43,-13.61 0.87,-20.64l18 -206.77c4.83,11.85 55.32,120.29 59.27,128.19 2.19,4.39 39.95,80.34 51.36,101.85 8.34,15.8 10.54,20.19 13.61,20.19 3.95,0 5.27,-3.95 14.49,-23.26l108.88 -230.92 21.07 229.16c0.88,7.9 1.31,14.49 -1.76,15.81 -2.19,0.87 -3.07,1.31 -3.07,3.07 0,2.19 2.19,3.51 12.29,4.39 16.24,1.32 66.29,2.63 75.95,2.63 5.27,0 6.58,-0.88 6.58,-3.51 0,-2.19 -2.63,-2.63 -4.82,-2.63 -4.39,0 -14.49,0 -27.22,-3.95 -18.88,-6.15 -21.95,-30.74 -23.71,-46.54l-29.41 -269.55zm282.72 196.68c2.19,0 3.07,0.87 3.95,2.63l40.83 108c2.63,7.02 0,10.97 -2.64,11.85 -1.75,0.44 -3.07,1.32 -3.07,3.07 0,2.64 4.83,2.64 13.17,3.07 30.29,0.88 62.34,0.88 68.93,0.88 4.83,0 8.78,-0.88 8.78,-3.51 0,-2.19 -2.2,-2.63 -4.83,-2.63 -3.51,0 -10.54,-0.44 -17.12,-2.64 -9.22,-2.63 -21.95,-9.66 -37.76,-48.73 -26.78,-66.73 -95.7,-248.04 -102.29,-264.72 -5.27,-13.61 -7.02,-15.8 -9.66,-15.8 -2.63,0 -4.39,2.63 -9.65,17.12l-99.66 272.62c-7.9,21.95 -16.68,38.63 -36.88,41.27 -3.51,0.44 -7.46,0.88 -10.53,0.88 -3.95,0 -6.15,0.87 -6.15,2.63 0,2.63 2.63,3.51 8.34,3.51 20.64,0 44.78,-1.31 49.61,-1.31 4.83,0 22.39,1.31 32.93,1.31 3.95,0 7.9,-0.88 7.9,-3.51 0,-1.76 -1.32,-2.63 -5.71,-2.63 -1.32,0 -2.63,0 -3.95,0 -7.46,0 -15.8,-3.95 -15.8,-12.73 0,-7.91 2.19,-18.44 6.14,-29.42l26.34 -77.7c0.88,-2.2 2.2,-3.51 4.39,-3.51l94.39 0zm-89.56 -15.81c-1.31,0 -2.19,-0.88 -1.31,-3.07l38.63 -118.53c2.19,-6.59 4.39,-6.59 6.58,0l41.71 118.53c0.44,1.75 0.44,3.07 -1.76,3.07l-83.85 0zm282.28 18c0,42.14 0,76.83 -2.19,95.26 -1.76,12.74 -3.95,22.39 -12.73,24.15 -3.95,0.88 -9.22,1.76 -13.17,1.76 -2.64,0 -3.51,1.31 -3.51,2.63 0,2.63 2.19,3.51 7.02,3.51 13.17,0 40.83,-1.31 41.27,-1.31 2.19,0 29.85,1.31 54,1.31 4.82,0 7.02,-1.31 7.02,-3.51 0,-1.32 -0.88,-2.63 -3.51,-2.63 -3.95,0 -13.61,-0.88 -19.76,-1.76 -13.17,-1.76 -15.8,-11.41 -17.12,-24.15 -2.2,-18.43 -2.2,-53.12 -2.2,-95.26l0 -10.54c0,-2.19 0.88,-3.51 3.08,-3.51l54 0.88c2.63,0 3.95,0.88 5.7,2.63 8.78,11.42 29.42,40.83 47.86,64.98 25.02,32.92 40.38,54.43 59.26,64.53 11.42,6.15 22.39,8.34 46.98,8.34l31.17 0c7.9,0 10.53,-0.88 10.53,-3.51 0,-1.32 -1.75,-2.63 -3.95,-2.63 -2.63,0 -8.78,0 -17.12,-1.32 -10.98,-1.76 -29.85,-6.59 -53.56,-31.61 -25.46,-27.22 -55.32,-66.29 -91.31,-112.39 39.51,-36.43 53.12,-68.92 53.12,-101.41 0,-30.29 -19.32,-51.8 -30.29,-59.7 -23.27,-16.69 -52.69,-19.32 -80.34,-19.32 -13.61,0 -46.98,1.32 -51.81,1.32 -2.19,0 -29.85,-1.32 -49.61,-1.32 -4.82,0 -7.02,0.88 -7.02,3.51 0,1.76 1.76,2.64 3.51,2.64 3.95,0 11.42,0.44 14.93,1.31 14.49,3.08 18,10.1 18.88,25.03 0.87,14.05 0.87,26.34 0.87,94.82l0 77.27zm35.12 -182.63c0,-2.63 1.32,-4.39 3.52,-5.27 4.39,-1.31 16.24,-2.63 29.41,-2.63 46.97,0 75.95,32.93 75.95,87.8 0,33.37 -11.41,57.07 -26.78,67.61 -10.1,7.02 -22.39,8.34 -32.93,8.34 -19.31,0 -39.51,-3.07 -46.09,-7.02 -2.2,-1.32 -3.08,-3.08 -3.08,-5.27l0 -143.56z"/>
    <path class="fil0" d="M1570.97 755.94c0,3.89 1.62,5.51 5.52,5.51l26.1 0c3.81,0 5.51,-1.62 5.51,-5.51l0 -8.76 -9.65 0 0 3.49c0,1.13 -0.65,1.78 -1.78,1.78l-13.3 0c-1.13,0 -1.78,-0.65 -1.78,-1.78l0 -13.7 18.64 0 0 -9 -18.64 0 0 -15.07 12.97 0c1.14,0 1.78,0.64 1.78,1.78l0 3.48 9.65 0 0 -8.75c0,-3.81 -1.7,-5.51 -5.51,-5.51l-34.78 0 0 9 5.27 0 0 43.04zm104.43 -2.44c0,0 7.05,8.92 19.78,8.92 12.08,0 19.13,-7.78 19.13,-16.94 0,-18.88 -27.07,-16.94 -27.07,-26.75 0,-3.65 3.56,-6.16 8.42,-6.16 3.81,0 7.62,1.78 7.62,4.46l0 2.59 9.57 0 0 -5.35c0,-8.18 -10.37,-11.34 -17.1,-11.34 -11.11,0 -19.22,6.89 -19.22,16.21 0,17.91 27.08,17.1 27.08,26.91 0,4.46 -3.89,6.81 -8.27,6.81 -8.02,0 -13.94,-6.81 -13.94,-6.81l-6 7.45zm107.35 -21.31c0,17.02 11.99,30.23 29.58,30.23 14.84,0 23.19,-9.89 23.19,-9.89l-5.6 -7.62c0,0 -6.56,7.62 -17.42,7.62 -10.46,0 -18.73,-9.07 -18.73,-20.34 0,-12 8.11,-19.38 18.4,-19.38 5.03,0 11.92,1.95 11.92,6.17l0 3.24 9.64 0 0 -6.41c0,-9.8 -14.43,-12.88 -21.8,-12.88 -16.7,0 -29.18,12.64 -29.18,29.26zm126.07 29.26l10.62 0 0 -21.48 5.35 0c3,0 4.21,0.4 5.43,2.67l7.37 14.51c1.87,3.65 3.73,4.3 8.03,4.3l5.59 0 0 -9 -1.05 0c-1.78,0 -3.16,-0.16 -4.06,-1.86l-5.59 -11.11c-1.05,-2.1 -2.84,-2.92 -2.84,-2.92l0 -0.16c2.44,-0.48 9.57,-4.78 9.57,-15.16 0,-10.86 -7.38,-17.34 -17.91,-17.34l-25.78 0 0 9 5.27 0 0 48.55zm10.62 -30.56l0 -17.99 8.59 0c5.19,0 8.35,3.24 8.35,8.91 0,5.76 -3.16,9.08 -8.51,9.08l-8.43 0zm98.67 30.56l21.56 0 0 -9 -5.75 0 0 -39.55 5.75 0 0 -9 -21.56 0 0 9 5.76 0 0 39.55 -5.76 0 0 9zm108.81 0l10.62 0 0 -48.55 8.83 0c1.13,0 1.78,0.64 1.78,1.78l0 3.48 9.32 0 0 -9.07c0,-3.81 -1.29,-5.19 -5.18,-5.19l-40.13 0c-3.89,0 -5.18,1.38 -5.18,5.19l0 9.07 9.32 0 0 -3.48c0,-1.14 0.65,-1.78 1.78,-1.78l8.84 0 0 48.55zm95.67 -29.18c0,16.94 12.81,30.15 29.75,30.15 16.94,0 29.75,-13.21 29.75,-30.15 0,-16.46 -12.81,-29.34 -29.75,-29.34 -16.94,0 -29.75,12.88 -29.75,29.34zm11.02 0c0,-11.03 8.35,-19.46 18.73,-19.46 10.37,0 18.72,8.43 18.72,19.46 0,11.51 -8.35,20.26 -18.72,20.26 -10.38,0 -18.73,-8.75 -18.73,-20.26zm14.59 -32.18l7.54 0 8.51 -11.03 -9.89 0 -6.16 11.03zm107.35 61.36l10.62 0 0 -21.48 5.35 0c3,0 4.21,0.4 5.43,2.67l7.38 14.51c1.86,3.65 3.72,4.3 8.02,4.3l5.59 0 0 -9 -1.05 0c-1.78,0 -3.16,-0.16 -4.05,-1.86l-5.6 -11.11c-1.05,-2.1 -2.83,-2.92 -2.83,-2.92l0 -0.16c2.43,-0.48 9.56,-4.78 9.56,-15.16 0,-10.86 -7.37,-17.34 -17.91,-17.34l-25.78 0 0 9 5.27 0 0 48.55zm10.62 -30.56l0 -17.99 8.59 0c5.19,0 8.35,3.24 8.35,8.91 0,5.76 -3.16,9.08 -8.51,9.08l-8.43 0zm98.67 30.56l21.57 0 0 -9 -5.76 0 0 -39.55 5.76 0 0 -9 -21.57 0 0 9 5.76 0 0 39.55 -5.76 0 0 9zm90.08 -29.18c0,16.94 12.81,30.15 29.75,30.15 16.94,0 29.75,-13.21 29.75,-30.15 0,-16.46 -12.81,-29.34 -29.75,-29.34 -16.94,0 -29.75,12.88 -29.75,29.34zm11.03 0c0,-11.03 8.35,-19.46 18.72,-19.46 10.38,0 18.73,8.43 18.73,19.46 0,11.51 -8.35,20.26 -18.73,20.26 -10.37,0 -18.72,-8.75 -18.72,-20.26zm180.78 -0.08c0,17.02 12,30.23 29.59,30.23 14.83,0 23.18,-9.89 23.18,-9.89l-5.59 -7.62c0,0 -6.57,7.62 -17.43,7.62 -10.46,0 -18.73,-9.07 -18.73,-20.34 0,-12 8.11,-19.38 18.4,-19.38 5.03,0 11.92,1.95 11.92,6.17l0 3.24 9.65 0 0 -6.41c0,-9.8 -14.43,-12.88 -21.81,-12.88 -16.7,0 -29.18,12.64 -29.18,29.26zm120.07 0.08c0,16.94 12.81,30.15 29.75,30.15 16.94,0 29.75,-13.21 29.75,-30.15 0,-16.46 -12.81,-29.34 -29.75,-29.34 -16.94,0 -29.75,12.88 -29.75,29.34zm11.03 0c0,-11.03 8.34,-19.46 18.72,-19.46 10.38,0 18.73,8.43 18.73,19.46 0,11.51 -8.35,20.26 -18.73,20.26 -10.38,0 -18.72,-8.75 -18.72,-20.26zm116.66 29.18l10.38 0c3.89,0 5.51,-1.62 5.51,-5.51l0 -26.27c0,-3.32 -0.57,-8.1 -0.57,-8.1l0.17 0c0,0 2.51,4.86 4.78,8.1l21.88 31.78 9.49 0 0 -46.77c0,-1.14 0.65,-1.78 1.78,-1.78l3.49 0 0 -9 -10.38 0c-3.89,0 -5.51,1.7 -5.51,5.51l0 26.34c0,3.33 0.57,8.11 0.57,8.11l-0.16 0c0,0 -2.52,-4.78 -4.79,-8.11l-21.8 -31.85 -9.57 0 0 46.77c0,1.13 -0.65,1.78 -1.78,1.78l-3.49 0 0 9zm143.83 0l10.62 0 0 -48.55 8.83 0c1.14,0 1.79,0.64 1.79,1.78l0 3.48 9.32 0 0 -9.07c0,-3.81 -1.3,-5.19 -5.19,-5.19l-40.12 0c-3.9,0 -5.19,1.38 -5.19,5.19l0 9.07 9.32 0 0 -3.48c0,-1.14 0.65,-1.78 1.78,-1.78l8.84 0 0 48.55zm88.7 0l6.4 0c4.06,0 5.43,-1.05 6.73,-4.7l3.57 -10.05 19.45 0 3.57 10.05c1.3,3.65 2.75,4.7 6.81,4.7l6.32 0 0 -9 -1.3 0c-1.37,0 -2.02,-0.32 -2.51,-1.78l-17.02 -46.77 -11.11 0 -17.1 46.77c-0.49,1.46 -1.13,1.78 -2.51,1.78l-1.3 0 0 9zm19.13 -23.51l4.95 -14.43c1.05,-3.16 2.27,-8.59 2.27,-8.59l0.16 0c0,0 1.21,5.43 2.27,8.59l4.94 14.43 -14.59 0zm3.32 -37.85l7.54 0 8.51 -11.03 -9.89 0 -6.16 11.03zm102.24 55.85c0,3.89 1.7,5.51 5.51,5.51l14.35 0c10.7,0 19.86,-5.19 19.86,-16.7 0,-5.84 -3,-11.67 -9.24,-13.54l0 -0.16c3.49,-1.78 6.97,-5.92 6.97,-12.32 0,-9.48 -7.46,-14.83 -17.83,-14.83l-24.89 0 0 9 5.27 0 0 43.04zm10.62 -28.54l0 -14.5 8.92 0c4.7,0 7.13,2.99 7.13,7.13 0,4.13 -2.51,7.37 -6.97,7.37l-9.08 0zm0 23.27l0 -14.83 10.05 0c5.11,0 8.11,3.48 8.11,8.26 0,4.87 -2.92,8.35 -8.11,8.35l-8.26 0c-1.14,0 -1.79,-0.65 -1.79,-1.78zm98.51 10.78l21.57 0 0 -9 -5.76 0 0 -39.55 5.76 0 0 -9 -21.57 0 0 9 5.76 0 0 39.55 -5.76 0 0 9zm95.68 -5.51c0,3.89 1.62,5.51 5.51,5.51l25.37 0c3.89,0 5.51,-1.62 5.51,-5.51l0 -8.76 -9.64 0 0 3.49c0,1.13 -0.65,1.78 -1.79,1.78l-12.56 0c-1.14,0 -1.79,-0.65 -1.79,-1.78l0 -41.26c0,-3.81 -1.62,-5.51 -5.51,-5.51l-10.37 0 0 9 3.48 0c1.14,0 1.79,0.64 1.79,1.78l0 41.26z"/>
   </g>
   <path class="fil1" d="M489.46 74.78c19.67,0 39.05,1.19 58.11,3.45l-82.23 60.39c-108.12,6.03 -205.49,52.34 -277.33,124.18 -52.26,52.26 -91.01,118.04 -110.57,191.64l431.23 -316.07 0 0 74.48 -54.59 114.31 -83.78 189.47 105.59 -97.98 71.55 0.06 0.04 -53.05 39.21 -0.38 -0.28 -652.71 476.66 0.04 0.12 -52.39 41.84c-19.73,-53.09 -30.52,-110.52 -30.52,-170.48 0,-270.33 219.14,-489.47 489.46,-489.47zm51.37 358.89l144.08 80.42 -489.36 358.96 0.29 0.28 -51.15 38.32c-35.76,-35.49 -66.07,-76.47 -89.56,-121.55l29.12 -21.53 -0.07 -0.12 456.65 -334.78zm-297.72 478.54l729.42 -534.26 188.98 104.85 -185.55 135.34 0 0 -73.95 53.94 0 0 -435.78 317.84c7.69,0.42 15.44,0.63 23.23,0.63 117.73,0 224.31,-47.71 301.45,-124.86 41.89,-41.88 75.09,-92.45 96.7,-148.77l82.49 -59.89c-43.36,225.95 -242.04,396.68 -480.64,396.68 -112.97,0 -216.98,-38.3 -299.82,-102.58l53.39 -38.97 0.08 0.05zm642.99 -504.54c-21.63,-54.76 -54.27,-103.96 -95.19,-144.87 -9.83,-9.84 -20.14,-19.19 -30.89,-28.02l52.07 -38.56c53.75,47.15 97.09,105.89 126.11,172.31l-52.1 39.14z"/>
  </g>
 </g>
</svg>
