<?xml version="1.0" encoding="UTF-8"?>
<!DOCTYPE svg PUBLIC "-//W3C//DTD SVG 1.1//EN" "http://www.w3.org/Graphics/SVG/1.1/DTD/svg11.dtd">
<!-- Creator: CorelDRAW 2018 (64 Bit Versão de avaliação) -->
<svg xmlns="http://www.w3.org/2000/svg" xml:space="preserve" width="1000px" height="300px" version="1.1" shape-rendering="geometricPrecision" text-rendering="geometricPrecision" image-rendering="optimizeQuality" fill-rule="evenodd" clip-rule="evenodd"
viewBox="0 0 998.12 298.89"
 xmlns:xlink="http://www.w3.org/1999/xlink">
 <g id="Camada_x0020_1">
  <metadata id="CorelCorpID_0Corel-Layer"/>
  <g id="_2960414350832">
   <g>
    <path fill="white" fill-rule="nonzero" d="M386.79 134.97c0,9.74 -0.11,15.32 -0.22,19.58 -0.22,8.21 -1.64,9.74 -3.94,10.29 -0.76,0.21 -1.42,0.21 -2.51,0.32 -0.66,0.11 -1.21,0.33 -1.21,0.66 0,0.66 0.55,0.87 1.75,0.87 2.85,0.11 5.47,-0.32 8.1,-0.32 4.26,0 9.3,0.22 13.67,0.32 4.27,0.11 7.88,0.33 15.97,0.33 4.27,0 5.14,0 5.91,-2.84 0.55,-2.3 1.42,-9.74 1.42,-10.61 0,-0.77 0,-1.64 -0.65,-1.64 -0.55,0 -0.77,0.43 -0.99,1.64 -0.87,4.7 -2.08,7 -5.58,8.09 -2.95,0.88 -6.56,0.99 -9.84,0.99 -4.27,0 -7.22,-0.22 -9.08,-0.99 -2.74,-1.09 -3.39,-3.5 -3.61,-7.98 -0.11,-2.3 0,-14.99 0,-18.71l0 -9.63c0,-0.43 0.22,-0.76 0.76,-0.76 1.86,0 12.69,0.22 15.65,0.55 3.93,0.43 5.25,1.96 5.68,3.61 0.33,0.98 0.44,2.07 0.44,3.06 0,0.87 0.11,1.75 0.77,1.75 0.44,0 0.65,-0.55 0.76,-1.64 0.11,-1.53 0.11,-4.05 0.44,-7.44 0.33,-3.61 0.88,-5.47 0.88,-6.13 0,-0.65 -0.22,-0.87 -0.55,-0.87 -0.44,0 -0.77,0.44 -1.31,1.09 -1.1,1.31 -2.52,1.64 -5.47,1.86 -2.52,0.22 -15.97,0.22 -17.4,0.22 -0.54,0 -0.65,-0.33 -0.65,-1.09l0 -30.2c0,-0.76 0.22,-1.09 0.65,-1.09 1.21,0 13.13,0.11 14.99,0.33 4.81,0.44 7.11,1.53 7.88,4.05 0.33,0.87 0.54,2.18 0.54,3.61 0,0.87 0.22,1.42 0.88,1.42 0.44,0 0.77,-0.77 0.87,-1.86 0.22,-2.85 0.33,-4.92 0.44,-6.57 0.22,-3.06 0.88,-4.37 0.88,-5.14 0,-0.54 -0.11,-0.98 -0.44,-0.98 -0.33,0 -0.55,0.11 -1.2,0.44 -0.66,0.32 -2.63,0.54 -5.04,0.65 -2.51,0.11 -24.28,0.11 -25.05,0.11 -6.89,-0.33 -9.84,-0.33 -12.36,-0.33 -1.2,0 -1.75,0.22 -1.75,0.88 0,0.44 0.66,0.55 1.42,0.66 0.99,0.1 2.41,0.1 3.18,0.32 3.61,0.77 4.48,2.52 4.7,6.24 0.22,3.5 0.22,6.56 0.22,23.63l0 19.25zm74.39 33.26c5.9,0 11.81,-1.32 16.51,-4.6 7.55,-5.36 9.3,-13.67 9.3,-18.16 0,-8.75 -3.06,-15.53 -15.97,-25.71l-3.06 -2.4c-10.5,-8.21 -13.35,-12.14 -13.35,-18.38 0,-7.99 5.91,-12.69 13.46,-12.69 10.06,0 13.02,4.6 13.67,5.8 0.66,1.2 1.31,4.16 1.42,5.47 0.11,0.87 0.22,1.42 0.88,1.42 0.55,0 0.76,-0.77 0.76,-2.52 0,-7.43 0.44,-11.04 0.44,-11.59 0,-0.55 -0.22,-0.77 -1.09,-0.77 -0.88,0 -1.75,-0.11 -3.83,-0.54 -2.74,-0.66 -5.91,-1.1 -10.17,-1.1 -13.9,0 -22.65,7.99 -22.65,19.69 0,7.44 2.63,14.22 14.22,23.74l4.93 4.05c9.4,7.77 12.58,12.14 12.58,19.69 0,7 -5.15,14.55 -15.65,14.55 -7.33,0 -14.55,-3.06 -16.19,-11.16 -0.33,-1.53 -0.33,-3.06 -0.33,-4.05 0,-0.87 -0.11,-1.2 -0.76,-1.2 -0.55,0 -0.77,0.55 -0.88,1.75 -0.11,1.75 -0.54,6.13 -0.54,11.6 0,2.95 0.11,3.39 1.64,4.15 4.48,2.19 9.51,2.96 14.66,2.96zm91.56 0c7,0 15.31,-0.77 19.69,-2.52 1.97,-0.87 2.19,-1.09 2.84,-3.17 1.1,-3.72 2.41,-13.24 2.41,-14 0,-0.88 -0.22,-1.65 -0.77,-1.65 -0.65,0 -0.87,0.44 -1.09,1.65 -0.33,1.96 -1.75,6.78 -4.05,9.18 -4.37,4.49 -10.83,5.47 -19.03,5.47 -23.41,0 -39.49,-19.14 -39.49,-40.03 0,-11.16 1.86,-20.9 9.84,-28.56 3.83,-3.71 10.61,-7.98 25.16,-7.98 9.63,0 18.05,2.95 21.88,6.23 2.85,2.41 4.6,6.9 4.6,11.16 0,1.53 0.11,2.3 0.87,2.3 0.66,0 0.88,-0.66 0.99,-2.3 0.11,-1.64 0.11,-7.66 0.32,-11.27 0.22,-3.93 0.55,-5.25 0.55,-6.12 0,-0.66 -0.22,-1.09 -0.98,-1.2 -4.05,-0.55 -7.44,-0.88 -11.6,-1.65 -5.36,-0.98 -11.49,-1.31 -15.86,-1.31 -16.85,0 -26.8,5.14 -33.37,11.71 -9.73,9.73 -12.25,22.53 -12.25,29.86 0,10.39 2.63,22.86 13.24,32.38 8.64,7.77 19.69,11.82 36.1,11.82zm81.17 0c26.36,0 43.65,-20.24 43.65,-44.75 0,-25.48 -18.38,-41.02 -43,-41.02 -30.19,0 -43.1,25.05 -43.1,42.77 0,19.7 12.47,43 42.45,43zm2.95 -4.16c-19.69,0 -35,-16.41 -35,-41.9 0,-23.96 13.67,-35.99 31.94,-35.99 17.28,0 33.25,14.11 33.25,40.37 0,31.83 -20.34,37.52 -30.19,37.52zm141.23 -78.65c-0.22,-2.08 -0.55,-2.96 -1.31,-2.96 -0.77,0 -1.21,0.77 -1.64,1.75l-32.17 68.7 -33.47 -68.81c-0.55,-1.2 -0.99,-1.64 -1.64,-1.64 -0.66,0 -1.1,0.99 -1.21,2.19l-7.87 71.11c-0.55,4.48 -0.77,8.42 -4.38,9.08 -1.64,0.32 -2.4,0.32 -3.28,0.32 -0.55,0 -1.09,0.22 -1.09,0.66 0,0.77 0.76,0.87 1.86,0.87 2.95,0 8.2,-0.32 9.19,-0.32 0.87,0 6.45,0.32 10.5,0.32 1.09,0 1.64,-0.21 1.64,-0.98 0,-0.33 -0.44,-0.55 -1.1,-0.55 -0.65,0 -2.07,0 -3.93,-0.43 -1.64,-0.33 -2.96,-1.21 -2.96,-3.94 0,-1.86 0.11,-3.39 0.22,-5.14l4.49 -51.53c1.2,2.96 13.78,29.98 14.76,31.94 0.55,1.1 9.96,20.02 12.8,25.38 2.08,3.94 2.63,5.04 3.39,5.04 0.99,0 1.32,-0.99 3.62,-5.8l27.12 -57.54 5.26 57.1c0.21,1.97 0.32,3.61 -0.44,3.94 -0.55,0.22 -0.77,0.33 -0.77,0.76 0,0.55 0.55,0.88 3.07,1.1 4.04,0.33 16.51,0.65 18.92,0.65 1.31,0 1.64,-0.21 1.64,-0.87 0,-0.55 -0.66,-0.66 -1.2,-0.66 -1.1,0 -3.61,0 -6.78,-0.98 -4.71,-1.53 -5.47,-7.66 -5.91,-11.6l-7.33 -67.16zm70.45 49c0.55,0 0.76,0.22 0.98,0.66l10.18 26.91c0.65,1.75 0,2.74 -0.66,2.95 -0.44,0.11 -0.77,0.33 -0.77,0.77 0,0.66 1.21,0.66 3.29,0.77 7.54,0.21 15.53,0.21 17.17,0.21 1.2,0 2.19,-0.21 2.19,-0.87 0,-0.55 -0.55,-0.66 -1.2,-0.66 -0.88,0 -2.63,-0.11 -4.27,-0.65 -2.3,-0.66 -5.47,-2.41 -9.41,-12.15 -6.67,-16.62 -23.85,-61.8 -25.49,-65.96 -1.31,-3.39 -1.75,-3.94 -2.4,-3.94 -0.66,0 -1.1,0.66 -2.41,4.27l-24.83 67.93c-1.97,5.47 -4.16,9.63 -9.19,10.28 -0.88,0.11 -1.86,0.22 -2.63,0.22 -0.98,0 -1.53,0.22 -1.53,0.66 0,0.66 0.66,0.87 2.08,0.87 5.14,0 11.16,-0.32 12.36,-0.32 1.2,0 5.58,0.32 8.21,0.32 0.98,0 1.96,-0.21 1.96,-0.87 0,-0.44 -0.32,-0.66 -1.42,-0.66 -0.33,0 -0.65,0 -0.98,0 -1.86,0 -3.94,-0.98 -3.94,-3.17 0,-1.97 0.55,-4.59 1.53,-7.33l6.56 -19.36c0.22,-0.55 0.55,-0.88 1.1,-0.88l23.52 0zm-22.32 -3.93c-0.33,0 -0.54,-0.22 -0.33,-0.77l9.63 -29.54c0.55,-1.64 1.09,-1.64 1.64,0l10.39 29.54c0.11,0.44 0.11,0.77 -0.43,0.77l-20.9 0zm70.34 4.48c0,10.5 0,19.14 -0.55,23.74 -0.43,3.17 -0.98,5.58 -3.17,6.02 -0.98,0.21 -2.29,0.43 -3.28,0.43 -0.66,0 -0.87,0.33 -0.87,0.66 0,0.66 0.54,0.87 1.75,0.87 3.28,0 10.17,-0.32 10.28,-0.32 0.55,0 7.44,0.32 13.45,0.32 1.21,0 1.75,-0.32 1.75,-0.87 0,-0.33 -0.21,-0.66 -0.87,-0.66 -0.99,0 -3.39,-0.22 -4.92,-0.43 -3.29,-0.44 -3.94,-2.85 -4.27,-6.02 -0.55,-4.6 -0.55,-13.24 -0.55,-23.74l0 -2.62c0,-0.55 0.22,-0.88 0.77,-0.88l13.45 0.22c0.66,0 0.99,0.22 1.43,0.66 2.18,2.84 7.33,10.17 11.92,16.19 6.24,8.2 10.06,13.56 14.77,16.08 2.84,1.53 5.58,2.07 11.7,2.07l7.77 0c1.97,0 2.63,-0.21 2.63,-0.87 0,-0.33 -0.44,-0.66 -0.99,-0.66 -0.65,0 -2.19,0 -4.27,-0.32 -2.73,-0.44 -7.43,-1.65 -13.34,-7.88 -6.35,-6.78 -13.78,-16.52 -22.75,-28.01 9.84,-9.08 13.23,-17.17 13.23,-25.27 0,-7.54 -4.81,-12.9 -7.55,-14.87 -5.79,-4.16 -13.12,-4.82 -20.02,-4.82 -3.39,0 -11.7,0.33 -12.9,0.33 -0.55,0 -7.44,-0.33 -12.37,-0.33 -1.2,0 -1.75,0.22 -1.75,0.88 0,0.44 0.44,0.66 0.88,0.66 0.98,0 2.84,0.1 3.72,0.32 3.61,0.77 4.48,2.52 4.7,6.24 0.22,3.5 0.22,6.56 0.22,23.63l0 19.25zm8.75 -45.51c0,-0.65 0.33,-1.09 0.88,-1.31 1.09,-0.33 4.05,-0.66 7.33,-0.66 11.7,0 18.92,8.21 18.92,21.88 0,8.32 -2.84,14.22 -6.67,16.85 -2.52,1.75 -5.58,2.08 -8.2,2.08 -4.82,0 -9.85,-0.77 -11.49,-1.75 -0.55,-0.33 -0.77,-0.77 -0.77,-1.32l0 -35.77z"/>
    <path fill="white" fill-rule="nonzero" d="M386.3 202.47c0,7.59 5.35,13.49 13.19,13.49 6.62,0 10.34,-4.41 10.34,-4.41l-2.49 -3.4c0,0 -2.93,3.4 -7.78,3.4 -4.66,0 -8.35,-4.05 -8.35,-9.08 0,-5.35 3.62,-8.64 8.21,-8.64 2.24,0 5.32,0.87 5.32,2.75l0 1.44 4.3 0 0 -2.85c0,-4.38 -6.44,-5.75 -9.73,-5.75 -7.45,0 -13.01,5.64 -13.01,13.05zm49.13 0.04c0,7.55 5.71,13.45 13.26,13.45 7.56,0 13.27,-5.9 13.27,-13.45 0,-7.34 -5.71,-13.09 -13.27,-13.09 -7.55,0 -13.26,5.75 -13.26,13.09zm4.91 0c0,-4.92 3.73,-8.68 8.35,-8.68 4.63,0 8.36,3.76 8.36,8.68 0,5.13 -3.73,9.04 -8.36,9.04 -4.62,0 -8.35,-3.91 -8.35,-9.04zm47.61 13.01l4.63 0c1.74,0 2.46,-0.72 2.46,-2.46l0 -11.71c0,-1.48 -0.25,-3.62 -0.25,-3.62l0.07 0c0,0 1.12,2.17 2.13,3.62l9.77 14.17 4.23 0 0 -20.86c0,-0.51 0.28,-0.79 0.79,-0.79l1.56 0 0 -4.02 -4.63 0c-1.74,0 -2.46,0.76 -2.46,2.46l0 11.75c0,1.48 0.25,3.62 0.25,3.62l-0.07 0c0,0 -1.12,-2.14 -2.13,-3.62l-9.73 -14.21 -4.27 0 0 20.86c0,0.51 -0.28,0.8 -0.79,0.8l-1.56 0 0 4.01zm59.73 0l4.73 0 0 -21.65 3.95 0c0.5,0 0.79,0.28 0.79,0.79l0 1.56 4.16 0 0 -4.05c0,-1.7 -0.58,-2.32 -2.32,-2.32l-17.89 0c-1.74,0 -2.32,0.62 -2.32,2.32l0 4.05 4.16 0 0 -1.56c0,-0.51 0.29,-0.79 0.8,-0.79l3.94 0 0 21.65zm35.14 0l2.85 0c1.81,0 2.42,-0.47 3,-2.09l1.59 -4.49 8.68 0 1.59 4.49c0.58,1.62 1.23,2.09 3.04,2.09l2.82 0 0 -4.01 -0.58 0c-0.61,0 -0.9,-0.15 -1.12,-0.8l-7.59 -20.86 -4.96 0 -7.63 20.86c-0.21,0.65 -0.5,0.8 -1.12,0.8l-0.57 0 0 4.01zm8.53 -10.48l2.2 -6.44c0.47,-1.41 1.02,-3.83 1.02,-3.83l0.07 0c0,0 0.54,2.42 1.01,3.83l2.21 6.44 -6.51 0zm42.66 8.02c0,1.74 0.76,2.46 2.45,2.46l6.4 0c4.78,0 8.86,-2.31 8.86,-7.45 0,-2.6 -1.34,-5.2 -4.12,-6.03l0 -0.08c1.56,-0.79 3.11,-2.64 3.11,-5.49 0,-4.23 -3.33,-6.62 -7.95,-6.62l-11.1 0 0 4.02 2.35 0 0 19.19zm4.73 -12.72l0 -6.47 3.98 0c2.1,0 3.18,1.33 3.18,3.18 0,1.84 -1.12,3.29 -3.11,3.29l-4.05 0zm0 10.37l0 -6.61 4.49 0c2.27,0 3.61,1.55 3.61,3.68 0,2.17 -1.3,3.73 -3.61,3.73l-3.69 0c-0.51,0 -0.8,-0.29 -0.8,-0.8zm39.51 4.81l9.62 0 0 -4.01 -2.57 0 0 -17.64 2.57 0 0 -4.02 -9.62 0 0 4.02 2.57 0 0 17.64 -2.57 0 0 4.01zm38.25 -2.46c0,1.74 0.72,2.46 2.46,2.46l11.32 0c1.73,0 2.45,-0.72 2.45,-2.46l0 -3.9 -4.3 0 0 1.55c0,0.51 -0.29,0.8 -0.79,0.8l-5.61 0c-0.5,0 -0.79,-0.29 -0.79,-0.8l0 -18.4c0,-1.7 -0.72,-2.46 -2.46,-2.46l-4.63 0 0 4.02 1.56 0c0.5,0 0.79,0.28 0.79,0.79l0 18.4zm41.65 2.46l9.61 0 0 -4.01 -2.56 0 0 -17.64 2.56 0 0 -4.02 -9.61 0 0 4.02 2.56 0 0 17.64 -2.56 0 0 4.01zm38.24 -2.46c0,1.74 0.73,2.46 2.46,2.46l5.64 0c7.92,0 13.09,-4.77 13.09,-12.87 0,-8.1 -5.17,-12.8 -13.09,-12.8l-10.45 0 0 4.02 2.35 0 0 19.19zm4.74 -2.35l0 -16.84 3.11 0c5.06,0 8.42,3.07 8.42,8.78 0,5.79 -3.29,8.86 -8.42,8.86l-2.31 0c-0.51,0 -0.8,-0.29 -0.8,-0.8zm41.14 4.81l2.86 0c1.8,0 2.42,-0.47 3,-2.09l1.59 -4.49 8.67 0 1.6 4.49c0.57,1.62 1.22,2.09 3.03,2.09l2.82 0 0 -4.01 -0.58 0c-0.61,0 -0.9,-0.15 -1.12,-0.8l-7.59 -20.86 -4.95 0 -7.63 20.86c-0.22,0.65 -0.51,0.8 -1.12,0.8l-0.58 0 0 4.01zm8.53 -10.48l2.21 -6.44c0.47,-1.41 1.01,-3.83 1.01,-3.83l0.07 0c0,0 0.54,2.42 1.01,3.83l2.21 6.44 -6.51 0zm42.7 8.02c0,1.74 0.72,2.46 2.45,2.46l5.64 0c7.92,0 13.09,-4.77 13.09,-12.87 0,-8.1 -5.17,-12.8 -13.09,-12.8l-10.44 0 0 4.02 2.35 0 0 19.19zm4.73 -2.35l0 -16.84 3.11 0c5.06,0 8.43,3.07 8.43,8.78 0,5.79 -3.29,8.86 -8.43,8.86l-2.31 0c-0.51,0 -0.8,-0.29 -0.8,-0.8zm44.79 2.35c0,1.74 0.73,2.46 2.46,2.46l11.64 0c1.7,0 2.46,-0.72 2.46,-2.46l0 -3.9 -4.3 0 0 1.55c0,0.51 -0.29,0.8 -0.8,0.8l-5.92 0c-0.51,0 -0.8,-0.29 -0.8,-0.8l0 -6.11 8.32 0 0 -4.01 -8.32 0 0 -6.72 5.78 0c0.51,0 0.8,0.28 0.8,0.79l0 1.56 4.3 0 0 -3.91c0,-1.7 -0.76,-2.46 -2.46,-2.46l-15.51 0 0 4.02 2.35 0 0 19.19z"/>
   </g>
   <path fill="white" d="M152.22 36.8c4.9,0 9.73,0.29 14.48,0.86l-20.49 15.04c-26.94,1.51 -51.21,13.05 -69.11,30.95 -13.02,13.02 -22.68,29.41 -27.55,47.75l107.46 -78.76 0 0 18.56 -13.6 28.48 -20.88 47.21 26.31 -24.41 17.83 0.01 0.01 -13.22 9.77 -0.09 -0.07 -162.65 118.78 0.01 0.03 -13.05 10.42c-4.92,-13.23 -7.61,-27.54 -7.61,-42.48 0,-67.36 54.61,-121.96 121.97,-121.96zm12.8 89.42l35.9 20.04 -121.94 89.45 0.07 0.07 -12.74 9.55c-8.91,-8.85 -16.46,-19.06 -22.32,-30.29l7.26 -5.36 -0.02 -0.04 113.79 -83.42zm-74.19 119.25l181.76 -133.13 47.09 26.13 -46.24 33.72 0 0 -18.42 13.44 0 0 -108.59 79.2c1.92,0.11 3.85,0.16 5.79,0.16 29.33,0 55.89,-11.89 75.12,-31.11 10.43,-10.44 18.71,-23.04 24.09,-37.07l20.56 -14.93c-10.81,56.3 -60.32,98.85 -119.77,98.85 -28.15,0 -54.07,-9.55 -74.71,-25.56l13.3 -9.71 0.02 0.01zm160.22 -125.72c-5.39,-13.65 -13.52,-25.91 -23.71,-36.1 -2.45,-2.45 -5.02,-4.78 -7.7,-6.99l12.97 -9.6c13.4,11.74 24.19,26.38 31.43,42.93l-12.99 9.76z"/>
   <rect fill="none" width="998.12" height="298.89"/>
  </g>
 </g>
</svg>
